%TF.GenerationSoftware,KiCad,Pcbnew,9.0.5*%
%TF.CreationDate,2025-11-23T13:21:57+01:00*%
%TF.ProjectId,unicorn,756e6963-6f72-46e2-9e6b-696361645f70,rev?*%
%TF.SameCoordinates,Original*%
%TF.FileFunction,Soldermask,Top*%
%TF.FilePolarity,Negative*%
%FSLAX46Y46*%
G04 Gerber Fmt 4.6, Leading zero omitted, Abs format (unit mm)*
G04 Created by KiCad (PCBNEW 9.0.5) date 2025-11-23 13:21:57*
%MOMM*%
%LPD*%
G01*
G04 APERTURE LIST*
G04 Aperture macros list*
%AMFreePoly0*
4,1,214,-15.456000,23.138000,-15.348000,23.119000,-15.197000,23.072000,-14.963000,22.986000,-14.789000,22.920000,-12.993000,22.151000,-11.264000,21.238000,-9.611000,20.191000,-8.046000,19.014000,-6.578000,17.717000,-5.217000,16.304000,-5.020000,16.080000,-3.786000,14.537000,-2.687000,12.911000,-1.725000,11.209000,-0.904000,9.440000,-0.228000,7.612000,0.300000,5.732000,0.678000,3.808000,0.869000,2.240000,
0.901000,1.850000,0.924000,1.511000,0.939000,1.176000,0.946000,0.797000,0.948856,0.462818,0.952500,0.444500,0.952500,-0.444500,0.948057,-0.466836,0.948000,-0.482000,0.943000,-0.902000,0.931000,-1.258000,0.912000,-1.598000,0.883000,-1.968000,0.858000,-2.250000,0.603000,-4.179000,0.191000,-6.082000,-0.375000,-7.950000,-1.091000,-9.775000,-1.956000,-11.548000,-2.566000,-12.620000,
-3.290000,-13.741000,-4.108000,-14.866000,-4.974000,-15.929000,-5.071000,-16.040000,-6.445000,-17.490000,-7.915000,-18.813000,-9.476000,-20.007000,-11.124000,-21.067000,-12.855000,-21.992000,-14.664000,-22.778000,-15.747000,-23.169000,-17.551000,-23.700000,-19.371000,-24.083000,-21.227000,-24.322000,-23.136000,-24.420000,-24.130000,-24.417000,-26.073000,-24.299000,-27.988000,-24.024000,-29.881000,-23.593000,-31.754000,-23.003000,
-33.612000,-22.255000,-33.670000,-22.229000,-33.994000,-22.077000,-34.398000,-21.878000,-34.825000,-21.661000,-35.214000,-21.457000,-35.420000,-21.345000,-37.097000,-20.319000,-38.678000,-19.167000,-40.167000,-17.887000,-41.567000,-16.474000,-42.182000,-15.780000,-43.358000,-14.284000,-44.420000,-12.684000,-45.359000,-10.996000,-46.165000,-9.237000,-46.829000,-7.424000,-46.834000,-7.410000,-47.353000,-5.533000,-47.720000,-3.615000,
-47.934000,-1.669000,-47.993000,0.291000,-47.929000,1.830000,-47.707000,3.794000,-47.331000,5.720000,-46.804000,7.601000,-46.129000,9.429000,-45.310000,11.197000,-44.349000,12.899000,-43.249000,14.527000,-42.014000,16.073000,-41.581000,16.560000,-41.299000,16.860000,-40.949000,17.218000,-40.579000,17.586000,-40.239000,17.915000,-40.139000,18.008000,-38.651000,19.280000,-37.062000,20.431000,-35.387000,21.452000,
-33.637000,22.336000,-32.240000,22.921000,-31.941000,23.033000,-31.747000,23.099000,-31.615000,23.131000,-31.500000,23.141000,-31.460000,23.142000,-31.084000,23.077000,-30.765000,22.865000,-30.748000,22.849000,-30.531000,22.525000,-30.461000,22.150000,-30.527000,21.784000,-30.691000,21.512000,-30.819000,21.384000,-30.996000,21.273000,-31.267000,21.154000,-31.400000,21.103000,-33.147000,20.360000,-34.809000,19.483000,
-36.392000,18.468000,-37.899000,17.312000,-38.670000,16.641000,-39.903000,15.424000,-41.059000,14.091000,-42.106000,12.676000,-42.124000,12.650000,-43.112000,11.054000,-43.961000,9.386000,-44.668000,7.655000,-45.227000,5.874000,-45.635000,4.054000,-45.879000,2.300000,-45.971000,0.907000,-45.982000,-0.518000,-45.911000,-1.891000,-45.908000,-1.920000,-45.667000,-3.790000,-45.270000,-5.625000,-44.721000,-7.419000,
-44.020000,-9.164000,-43.172000,-10.854000,-42.485000,-12.010000,-41.453000,-13.494000,-40.290000,-14.903000,-39.015000,-16.221000,-37.643000,-17.432000,-36.193000,-18.517000,-35.312000,-19.089000,-33.646000,-20.020000,-31.924000,-20.802000,-30.153000,-21.433000,-28.337000,-21.912000,-26.483000,-22.237000,-24.680000,-22.402000,-24.347000,-22.412000,-23.913000,-22.417000,-23.423000,-22.416000,-22.921000,-22.411000,-22.451000,-22.401000,
-22.060000,-22.387000,-21.820000,-22.372000,-20.773000,-22.265000,-19.829000,-22.133000,-19.398000,-22.059000,-17.548000,-21.631000,-15.748000,-21.051000,-14.001000,-20.321000,-12.313000,-19.443000,-11.991000,-19.254000,-10.438000,-18.236000,-8.966000,-17.083000,-7.585000,-15.803000,-6.302000,-14.403000,-6.245000,-14.335000,-5.109000,-12.855000,-4.102000,-11.288000,-3.230000,-9.643000,-2.496000,-7.933000,-1.907000,-6.168000,
-1.466000,-4.362000,-1.181000,-2.534000,-1.052000,-0.749000,-1.061000,1.056000,-1.208000,2.832000,-1.241000,3.090000,-1.574000,4.944000,-2.057000,6.753000,-2.688000,8.510000,-3.462000,10.205000,-4.373000,11.830000,-5.419000,13.378000,-6.594000,14.838000,-7.894000,16.204000,-8.280000,16.568000,-9.729000,17.797000,-11.264000,18.894000,-12.879000,19.854000,-14.567000,20.673000,-15.530000,21.064000,
-15.843000,21.187000,-16.046000,21.278000,-16.179000,21.361000,-16.283000,21.455000,-16.290000,21.461000,-16.496000,21.780000,-16.566000,22.135000,-16.509000,22.487000,-16.329000,22.799000,-16.034000,23.033000,-16.024000,23.038000,-15.745000,23.131000,-15.565000,23.143000,-15.456000,23.138000,-15.456000,23.138000,$1*%
%AMFreePoly1*
4,1,192,-13.248000,20.140000,-11.576000,19.490000,-9.965000,18.695000,-8.424000,17.764000,-6.967000,16.704000,-5.605000,15.524000,-4.349000,14.231000,-3.891000,13.699000,-2.778000,12.236000,-1.802000,10.694000,-0.967000,9.081000,-0.277000,7.403000,0.266000,5.667000,0.617000,4.107000,0.823000,2.757000,0.934000,1.398000,0.960000,0.280000,0.954000,-0.374000,0.952500,-0.416225,0.952500,-0.444500,
0.951277,-0.450647,0.934000,-0.937000,0.897000,-1.482000,0.838000,-2.071000,0.564000,-3.841000,0.135000,-5.587000,-0.445000,-7.296000,-1.172000,-8.954000,-2.039000,-10.549000,-2.220000,-10.844000,-3.220000,-12.301000,-4.353000,-13.680000,-5.604000,-14.965000,-6.958000,-16.142000,-8.354000,-17.166000,-9.873000,-18.092000,-11.473000,-18.888000,-13.131000,-19.547000,-14.827000,-20.060000,-15.833000,-20.290000,
-16.900000,-20.477000,-17.982000,-20.608000,-18.760000,-20.671000,-18.992000,-20.681000,-19.331000,-20.690000,-19.725000,-20.697000,-20.120000,-20.702000,-20.466000,-20.702000,-20.708000,-20.699000,-20.720000,-20.699000,-22.570000,-20.551000,-24.371000,-20.251000,-25.190000,-20.061000,-26.917000,-19.540000,-28.594000,-18.872000,-30.206000,-18.064000,-31.739000,-17.123000,-33.181000,-16.056000,-33.420000,-15.859000,-34.787000,-14.614000,
-36.029000,-13.270000,-37.144000,-11.834000,-38.127000,-10.313000,-38.975000,-8.712000,-39.682000,-7.039000,-40.246000,-5.298000,-40.390000,-4.747000,-40.627000,-3.674000,-40.803000,-2.588000,-40.928000,-1.424000,-40.953000,-1.111000,-40.971000,-0.755000,-40.982000,-0.294000,-40.987000,0.221000,-40.985000,0.734000,-40.975000,1.191000,-40.963000,1.479000,-40.775000,3.309000,-40.439000,5.086000,-39.950000,6.821000,
-39.484000,8.099000,-38.738000,9.747000,-37.856000,11.316000,-36.846000,12.798000,-35.716000,14.187000,-34.474000,15.474000,-33.126000,16.652000,-31.682000,17.713000,-30.148000,18.650000,-28.533000,19.454000,-27.664000,19.817000,-27.372000,19.928000,-27.046000,20.047000,-26.737000,20.156000,-26.497000,20.236000,-26.410000,20.262000,-26.061000,20.278000,-25.716000,20.164000,-25.431000,19.938000,-25.388000,19.885000,
-25.224000,19.539000,-25.199000,19.169000,-25.310000,18.816000,-25.477000,18.593000,-25.594000,18.490000,-25.736000,18.406000,-25.949000,18.317000,-26.196000,18.229000,-27.812000,17.586000,-29.358000,16.801000,-30.823000,15.879000,-31.480000,15.401000,-32.774000,14.324000,-33.964000,13.145000,-34.597000,12.423000,-35.649000,11.035000,-36.565000,9.568000,-37.340000,8.032000,-37.971000,6.436000,-38.454000,4.789000,
-38.786000,3.099000,-38.898000,2.198000,-38.994000,0.460000,-38.934000,-1.266000,-38.720000,-2.969000,-38.354000,-4.638000,-38.013000,-5.761000,-37.376000,-7.398000,-36.605000,-8.949000,-35.698000,-10.414000,-34.656000,-11.795000,-33.477000,-13.092000,-32.680000,-13.853000,-31.368000,-14.933000,-29.960000,-15.890000,-28.469000,-16.717000,-26.908000,-17.408000,-25.289000,-17.957000,-23.626000,-18.359000,-22.810000,-18.499000,
-21.268000,-18.660000,-19.684000,-18.697000,-18.230000,-18.620000,-16.684000,-18.411000,-15.162000,-18.077000,-14.180000,-17.788000,-12.527000,-17.164000,-10.962000,-16.407000,-9.484000,-15.515000,-8.093000,-14.490000,-6.788000,-13.329000,-6.119000,-12.646000,-5.001000,-11.334000,-4.012000,-9.932000,-3.156000,-8.451000,-2.438000,-6.900000,-1.862000,-5.291000,-1.435000,-3.635000,-1.159000,-1.941000,-1.111000,-1.471000,
-1.043000,-0.239000,-1.052000,1.044000,-1.138000,2.287000,-1.139000,2.299000,-1.394000,3.985000,-1.804000,5.644000,-2.363000,7.262000,-3.066000,8.825000,-3.908000,10.318000,-4.088000,10.599000,-5.109000,12.023000,-6.249000,13.340000,-7.500000,14.545000,-8.858000,15.632000,-10.315000,16.595000,-10.440000,16.669000,-11.632000,17.314000,-12.871000,17.868000,-13.836000,18.230000,-14.095000,18.325000,
-14.298000,18.409000,-14.381000,18.450000,-14.608000,18.658000,-14.737000,18.855000,-14.836000,19.229000,-14.794000,19.588000,-14.628000,19.901000,-14.357000,20.138000,-13.998000,20.269000,-13.878000,20.283000,-13.705000,20.295000,-13.248000,20.140000,-13.248000,20.140000,$1*%
G04 Aperture macros list end*
%ADD10C,0.000000*%
%ADD11R,1.800000X1.800000*%
%ADD12C,1.800000*%
%ADD13C,5.013000*%
%ADD14FreePoly0,0.000000*%
%ADD15FreePoly1,0.000000*%
G04 APERTURE END LIST*
D10*
%TO.C,REF\u002A\u002A*%
G36*
X119044000Y-68862000D02*
G01*
X119152000Y-68881000D01*
X119303000Y-68928000D01*
X119537000Y-69014000D01*
X119711000Y-69080000D01*
X121507000Y-69849000D01*
X123236000Y-70762000D01*
X124889000Y-71809000D01*
X126454000Y-72986000D01*
X127922000Y-74283000D01*
X129283000Y-75696000D01*
X129480000Y-75920000D01*
X130714000Y-77463000D01*
X131813000Y-79089000D01*
X132775000Y-80791000D01*
X133596000Y-82560000D01*
X134272000Y-84388000D01*
X134800000Y-86268000D01*
X135178000Y-88192000D01*
X135369000Y-89760000D01*
X135401000Y-90150000D01*
X135424000Y-90489000D01*
X135439000Y-90824000D01*
X135446000Y-91203000D01*
X135450000Y-91671000D01*
X135450000Y-91950000D01*
X135448000Y-92482000D01*
X135443000Y-92902000D01*
X135431000Y-93258000D01*
X135412000Y-93598000D01*
X135383000Y-93968000D01*
X135358000Y-94250000D01*
X135103000Y-96179000D01*
X134691000Y-98082000D01*
X134125000Y-99950000D01*
X133409000Y-101775000D01*
X132544000Y-103548000D01*
X131934000Y-104620000D01*
X131210000Y-105741000D01*
X130392000Y-106866000D01*
X129526000Y-107929000D01*
X129429000Y-108040000D01*
X128055000Y-109490000D01*
X126585000Y-110813000D01*
X125024000Y-112007000D01*
X123376000Y-113067000D01*
X121645000Y-113992000D01*
X119836000Y-114778000D01*
X118753000Y-115169000D01*
X116949000Y-115700000D01*
X115129000Y-116083000D01*
X113273000Y-116322000D01*
X111364000Y-116420000D01*
X110370000Y-116417000D01*
X108427000Y-116299000D01*
X106512000Y-116024000D01*
X104619000Y-115593000D01*
X102746000Y-115003000D01*
X100888000Y-114255000D01*
X100830000Y-114229000D01*
X100506000Y-114077000D01*
X100102000Y-113878000D01*
X99675000Y-113661000D01*
X99286000Y-113457000D01*
X99080000Y-113345000D01*
X98403000Y-112930000D01*
X110143000Y-112930000D01*
X110260000Y-112933000D01*
X110375000Y-112930000D01*
X110378000Y-112930000D01*
X111603000Y-112930000D01*
X111720000Y-112933000D01*
X111838000Y-112930000D01*
X111825000Y-112925000D01*
X111643000Y-112924000D01*
X111615000Y-112925000D01*
X111603000Y-112930000D01*
X110378000Y-112930000D01*
X110365000Y-112925000D01*
X110183000Y-112924000D01*
X110155000Y-112925000D01*
X110143000Y-112930000D01*
X98403000Y-112930000D01*
X98362000Y-112906000D01*
X109715000Y-112906000D01*
X109722000Y-112912000D01*
X109790000Y-112913000D01*
X109872000Y-112910000D01*
X109855000Y-112905000D01*
X112105000Y-112905000D01*
X112106000Y-112912000D01*
X112180000Y-112913000D01*
X112270000Y-112910000D01*
X112255000Y-112905000D01*
X112105000Y-112905000D01*
X109855000Y-112905000D01*
X109717000Y-112905000D01*
X109715000Y-112906000D01*
X98362000Y-112906000D01*
X98329000Y-112886000D01*
X109415000Y-112886000D01*
X109420000Y-112892000D01*
X109480000Y-112894000D01*
X109559000Y-112890000D01*
X109545000Y-112886000D01*
X112435000Y-112886000D01*
X112438000Y-112893000D01*
X112490000Y-112894000D01*
X112567000Y-112890000D01*
X112555000Y-112886000D01*
X112435000Y-112886000D01*
X109545000Y-112886000D01*
X109415000Y-112886000D01*
X98329000Y-112886000D01*
X98297000Y-112866000D01*
X109175000Y-112866000D01*
X109191000Y-112874000D01*
X109220000Y-112875000D01*
X109275000Y-112869000D01*
X109265000Y-112866000D01*
X112695000Y-112866000D01*
X112711000Y-112874000D01*
X112740000Y-112875000D01*
X112795000Y-112869000D01*
X112785000Y-112866000D01*
X112695000Y-112866000D01*
X109265000Y-112866000D01*
X109175000Y-112866000D01*
X98297000Y-112866000D01*
X98265000Y-112846000D01*
X108955000Y-112846000D01*
X108968000Y-112854000D01*
X108990000Y-112855000D01*
X109042000Y-112849000D01*
X109035000Y-112846000D01*
X112935000Y-112846000D01*
X112951000Y-112854000D01*
X112980000Y-112855000D01*
X113035000Y-112849000D01*
X113025000Y-112846000D01*
X112935000Y-112846000D01*
X109035000Y-112846000D01*
X108959000Y-112846000D01*
X108955000Y-112846000D01*
X98265000Y-112846000D01*
X98232000Y-112826000D01*
X108755000Y-112826000D01*
X108768000Y-112834000D01*
X108790000Y-112835000D01*
X108842000Y-112829000D01*
X108835000Y-112826000D01*
X113155000Y-112826000D01*
X113168000Y-112834000D01*
X113190000Y-112835000D01*
X113242000Y-112829000D01*
X113235000Y-112826000D01*
X113155000Y-112826000D01*
X108835000Y-112826000D01*
X108755000Y-112826000D01*
X98232000Y-112826000D01*
X98199000Y-112806000D01*
X108575000Y-112806000D01*
X108588000Y-112814000D01*
X108610000Y-112815000D01*
X108662000Y-112809000D01*
X108655000Y-112806000D01*
X113325000Y-112806000D01*
X113346000Y-112815000D01*
X113360000Y-112815000D01*
X113401000Y-112808000D01*
X113395000Y-112806000D01*
X113325000Y-112806000D01*
X108655000Y-112806000D01*
X108647000Y-112806000D01*
X108575000Y-112806000D01*
X98199000Y-112806000D01*
X98167000Y-112786000D01*
X108395000Y-112786000D01*
X108408000Y-112794000D01*
X108430000Y-112795000D01*
X108482000Y-112789000D01*
X108475000Y-112786000D01*
X113505000Y-112786000D01*
X113526000Y-112795000D01*
X113540000Y-112795000D01*
X113581000Y-112788000D01*
X113575000Y-112786000D01*
X113505000Y-112786000D01*
X108475000Y-112786000D01*
X108467000Y-112786000D01*
X108395000Y-112786000D01*
X98167000Y-112786000D01*
X98134000Y-112766000D01*
X108225000Y-112766000D01*
X108246000Y-112775000D01*
X108260000Y-112775000D01*
X108301000Y-112768000D01*
X108295000Y-112766000D01*
X113665000Y-112766000D01*
X113686000Y-112775000D01*
X113700000Y-112775000D01*
X113741000Y-112768000D01*
X113735000Y-112766000D01*
X113665000Y-112766000D01*
X108295000Y-112766000D01*
X108225000Y-112766000D01*
X98134000Y-112766000D01*
X98102000Y-112746000D01*
X108085000Y-112746000D01*
X108106000Y-112755000D01*
X108120000Y-112755000D01*
X108161000Y-112748000D01*
X108155000Y-112746000D01*
X113825000Y-112746000D01*
X113844000Y-112756000D01*
X113850000Y-112756000D01*
X113887000Y-112748000D01*
X113885000Y-112747000D01*
X113825000Y-112746000D01*
X108155000Y-112746000D01*
X108085000Y-112746000D01*
X98102000Y-112746000D01*
X98069000Y-112726000D01*
X107945000Y-112726000D01*
X107966000Y-112735000D01*
X107980000Y-112735000D01*
X108021000Y-112728000D01*
X108015000Y-112726000D01*
X113965000Y-112726000D01*
X113986000Y-112735000D01*
X114000000Y-112735000D01*
X114041000Y-112728000D01*
X114035000Y-112726000D01*
X113965000Y-112726000D01*
X108015000Y-112726000D01*
X107945000Y-112726000D01*
X98069000Y-112726000D01*
X98036000Y-112706000D01*
X107805000Y-112706000D01*
X107826000Y-112715000D01*
X107840000Y-112715000D01*
X107881000Y-112708000D01*
X107875000Y-112706000D01*
X114105000Y-112706000D01*
X114126000Y-112715000D01*
X114140000Y-112715000D01*
X114181000Y-112708000D01*
X114175000Y-112706000D01*
X114105000Y-112706000D01*
X107875000Y-112706000D01*
X107805000Y-112706000D01*
X98036000Y-112706000D01*
X98003000Y-112686000D01*
X107685000Y-112686000D01*
X107704000Y-112696000D01*
X107710000Y-112696000D01*
X107747000Y-112688000D01*
X107745000Y-112687000D01*
X107685000Y-112686000D01*
X114245000Y-112686000D01*
X114264000Y-112696000D01*
X114270000Y-112696000D01*
X114307000Y-112688000D01*
X114305000Y-112687000D01*
X114245000Y-112686000D01*
X107685000Y-112686000D01*
X98003000Y-112686000D01*
X97971000Y-112666000D01*
X107565000Y-112666000D01*
X107584000Y-112676000D01*
X107590000Y-112676000D01*
X107627000Y-112668000D01*
X107625000Y-112667000D01*
X107565000Y-112666000D01*
X114365000Y-112666000D01*
X114384000Y-112676000D01*
X114390000Y-112676000D01*
X114427000Y-112668000D01*
X114425000Y-112667000D01*
X114365000Y-112666000D01*
X107565000Y-112666000D01*
X97971000Y-112666000D01*
X97938000Y-112646000D01*
X107425000Y-112646000D01*
X107446000Y-112655000D01*
X107460000Y-112655000D01*
X107501000Y-112648000D01*
X107495000Y-112646000D01*
X114485000Y-112646000D01*
X114504000Y-112656000D01*
X114510000Y-112656000D01*
X114547000Y-112648000D01*
X114545000Y-112647000D01*
X114485000Y-112646000D01*
X107495000Y-112646000D01*
X107425000Y-112646000D01*
X97938000Y-112646000D01*
X97906000Y-112627000D01*
X107315000Y-112627000D01*
X107340000Y-112637000D01*
X107365000Y-112627000D01*
X107315000Y-112627000D01*
X97906000Y-112627000D01*
X97905000Y-112626000D01*
X114605000Y-112626000D01*
X114624000Y-112636000D01*
X114630000Y-112636000D01*
X114667000Y-112628000D01*
X114665000Y-112627000D01*
X114605000Y-112626000D01*
X97905000Y-112626000D01*
X97873000Y-112606000D01*
X107205000Y-112606000D01*
X107224000Y-112616000D01*
X107230000Y-112616000D01*
X107267000Y-112608000D01*
X107265000Y-112607000D01*
X114715000Y-112607000D01*
X114740000Y-112617000D01*
X114765000Y-112607000D01*
X114715000Y-112607000D01*
X107265000Y-112607000D01*
X107256000Y-112607000D01*
X107205000Y-112606000D01*
X97873000Y-112606000D01*
X97841000Y-112587000D01*
X107095000Y-112587000D01*
X107120000Y-112597000D01*
X107145000Y-112587000D01*
X114815000Y-112587000D01*
X114840000Y-112597000D01*
X114865000Y-112587000D01*
X114815000Y-112587000D01*
X107145000Y-112587000D01*
X107095000Y-112587000D01*
X97841000Y-112587000D01*
X97808000Y-112567000D01*
X106995000Y-112567000D01*
X107020000Y-112577000D01*
X107045000Y-112567000D01*
X106995000Y-112567000D01*
X97808000Y-112567000D01*
X97807000Y-112566000D01*
X114925000Y-112566000D01*
X114944000Y-112576000D01*
X114950000Y-112576000D01*
X114987000Y-112568000D01*
X114985000Y-112567000D01*
X114925000Y-112566000D01*
X97807000Y-112566000D01*
X97776000Y-112547000D01*
X106895000Y-112547000D01*
X106920000Y-112557000D01*
X106945000Y-112547000D01*
X115035000Y-112547000D01*
X115060000Y-112557000D01*
X115085000Y-112547000D01*
X115035000Y-112547000D01*
X106945000Y-112547000D01*
X106895000Y-112547000D01*
X97776000Y-112547000D01*
X97743000Y-112527000D01*
X106795000Y-112527000D01*
X106820000Y-112537000D01*
X106845000Y-112527000D01*
X115135000Y-112527000D01*
X115160000Y-112537000D01*
X115185000Y-112527000D01*
X115135000Y-112527000D01*
X106845000Y-112527000D01*
X106795000Y-112527000D01*
X97743000Y-112527000D01*
X97710000Y-112507000D01*
X106695000Y-112507000D01*
X106720000Y-112517000D01*
X106745000Y-112507000D01*
X115235000Y-112507000D01*
X115260000Y-112517000D01*
X115285000Y-112507000D01*
X115235000Y-112507000D01*
X106745000Y-112507000D01*
X106695000Y-112507000D01*
X97710000Y-112507000D01*
X97678000Y-112487000D01*
X106595000Y-112487000D01*
X106620000Y-112497000D01*
X106645000Y-112487000D01*
X106595000Y-112487000D01*
X97678000Y-112487000D01*
X97677000Y-112486000D01*
X115336000Y-112486000D01*
X115348000Y-112498000D01*
X115375000Y-112488000D01*
X115336000Y-112486000D01*
X97677000Y-112486000D01*
X97644000Y-112466000D01*
X106516000Y-112466000D01*
X106528000Y-112478000D01*
X106555000Y-112468000D01*
X106526000Y-112467000D01*
X115415000Y-112467000D01*
X115440000Y-112477000D01*
X115465000Y-112467000D01*
X115415000Y-112467000D01*
X106526000Y-112467000D01*
X106516000Y-112466000D01*
X97644000Y-112466000D01*
X97612000Y-112447000D01*
X106415000Y-112447000D01*
X106440000Y-112457000D01*
X106465000Y-112447000D01*
X106415000Y-112447000D01*
X97612000Y-112447000D01*
X97611000Y-112446000D01*
X115516000Y-112446000D01*
X115528000Y-112458000D01*
X115555000Y-112448000D01*
X115516000Y-112446000D01*
X97611000Y-112446000D01*
X97579000Y-112426000D01*
X106336000Y-112426000D01*
X106348000Y-112438000D01*
X106375000Y-112428000D01*
X106336000Y-112426000D01*
X115616000Y-112426000D01*
X115628000Y-112438000D01*
X115655000Y-112428000D01*
X115616000Y-112426000D01*
X106336000Y-112426000D01*
X97579000Y-112426000D01*
X97547000Y-112407000D01*
X106235000Y-112407000D01*
X106260000Y-112417000D01*
X106285000Y-112407000D01*
X106235000Y-112407000D01*
X97547000Y-112407000D01*
X97546000Y-112406000D01*
X115696000Y-112406000D01*
X115708000Y-112418000D01*
X115735000Y-112408000D01*
X115696000Y-112406000D01*
X97546000Y-112406000D01*
X97513000Y-112386000D01*
X106156000Y-112386000D01*
X106168000Y-112398000D01*
X106175000Y-112396000D01*
X115777000Y-112396000D01*
X115790000Y-112396000D01*
X115880000Y-112380000D01*
X115903000Y-112364000D01*
X115890000Y-112364000D01*
X115800000Y-112380000D01*
X115777000Y-112396000D01*
X106175000Y-112396000D01*
X106195000Y-112388000D01*
X106156000Y-112386000D01*
X97513000Y-112386000D01*
X97481000Y-112366000D01*
X106076000Y-112366000D01*
X106088000Y-112378000D01*
X106115000Y-112368000D01*
X106076000Y-112366000D01*
X97481000Y-112366000D01*
X97448000Y-112346000D01*
X105996000Y-112346000D01*
X106008000Y-112358000D01*
X106035000Y-112348000D01*
X105996000Y-112346000D01*
X115956000Y-112346000D01*
X115968000Y-112358000D01*
X115995000Y-112348000D01*
X115956000Y-112346000D01*
X105996000Y-112346000D01*
X97448000Y-112346000D01*
X97415000Y-112326000D01*
X105916000Y-112326000D01*
X105928000Y-112338000D01*
X105955000Y-112328000D01*
X105916000Y-112326000D01*
X116036000Y-112326000D01*
X116048000Y-112338000D01*
X116075000Y-112328000D01*
X116036000Y-112326000D01*
X105916000Y-112326000D01*
X97415000Y-112326000D01*
X97403000Y-112319000D01*
X97386000Y-112306000D01*
X105836000Y-112306000D01*
X105848000Y-112318000D01*
X105875000Y-112308000D01*
X105836000Y-112306000D01*
X116116000Y-112306000D01*
X116128000Y-112318000D01*
X116155000Y-112308000D01*
X116116000Y-112306000D01*
X105836000Y-112306000D01*
X97386000Y-112306000D01*
X97358000Y-112286000D01*
X105756000Y-112286000D01*
X105768000Y-112298000D01*
X105795000Y-112288000D01*
X105756000Y-112286000D01*
X116196000Y-112286000D01*
X116208000Y-112298000D01*
X116235000Y-112288000D01*
X116196000Y-112286000D01*
X105756000Y-112286000D01*
X97358000Y-112286000D01*
X97331000Y-112266000D01*
X105676000Y-112266000D01*
X105688000Y-112278000D01*
X105691000Y-112277000D01*
X116280000Y-112277000D01*
X116350000Y-112260000D01*
X116360000Y-112243000D01*
X116290000Y-112260000D01*
X116280000Y-112277000D01*
X105691000Y-112277000D01*
X105715000Y-112268000D01*
X105676000Y-112266000D01*
X97331000Y-112266000D01*
X97251000Y-112208000D01*
X105451000Y-112208000D01*
X105510000Y-112229000D01*
X105604000Y-112255000D01*
X105633000Y-112252000D01*
X105610000Y-112241000D01*
X105551000Y-112226000D01*
X116416000Y-112226000D01*
X116428000Y-112238000D01*
X116455000Y-112228000D01*
X116416000Y-112226000D01*
X105551000Y-112226000D01*
X105502000Y-112214000D01*
X105500000Y-112213000D01*
X105451000Y-112208000D01*
X97251000Y-112208000D01*
X97249000Y-112206000D01*
X116496000Y-112206000D01*
X116508000Y-112218000D01*
X116535000Y-112208000D01*
X116496000Y-112206000D01*
X97249000Y-112206000D01*
X97221000Y-112186000D01*
X105376000Y-112186000D01*
X105388000Y-112198000D01*
X105391000Y-112197000D01*
X116580000Y-112197000D01*
X116650000Y-112180000D01*
X116660000Y-112163000D01*
X116590000Y-112180000D01*
X116580000Y-112197000D01*
X105391000Y-112197000D01*
X105415000Y-112188000D01*
X105376000Y-112186000D01*
X97221000Y-112186000D01*
X97161000Y-112143000D01*
X105240000Y-112143000D01*
X105250000Y-112160000D01*
X105320000Y-112177000D01*
X105310000Y-112160000D01*
X105299000Y-112157000D01*
X116720000Y-112157000D01*
X116790000Y-112140000D01*
X116800000Y-112123000D01*
X116730000Y-112140000D01*
X116720000Y-112157000D01*
X105299000Y-112157000D01*
X105240000Y-112143000D01*
X97161000Y-112143000D01*
X97079000Y-112083000D01*
X105040000Y-112083000D01*
X105050000Y-112100000D01*
X105120000Y-112117000D01*
X105110000Y-112100000D01*
X105099000Y-112097000D01*
X116920000Y-112097000D01*
X116990000Y-112080000D01*
X117000000Y-112063000D01*
X116930000Y-112080000D01*
X116920000Y-112097000D01*
X105099000Y-112097000D01*
X105040000Y-112083000D01*
X97079000Y-112083000D01*
X96997000Y-112023000D01*
X104840000Y-112023000D01*
X104850000Y-112040000D01*
X104920000Y-112057000D01*
X104910000Y-112040000D01*
X104899000Y-112037000D01*
X117120000Y-112037000D01*
X117190000Y-112020000D01*
X117200000Y-112003000D01*
X117130000Y-112020000D01*
X117120000Y-112037000D01*
X104899000Y-112037000D01*
X104840000Y-112023000D01*
X96997000Y-112023000D01*
X96675000Y-111788000D01*
X104105000Y-111788000D01*
X104165000Y-111815000D01*
X104317000Y-111870000D01*
X104501000Y-111932000D01*
X104656000Y-111981000D01*
X104720000Y-111997000D01*
X104672000Y-111974000D01*
X104516000Y-111918000D01*
X104460000Y-111899000D01*
X117551000Y-111899000D01*
X117635000Y-111878000D01*
X117668000Y-111868000D01*
X117751000Y-111833000D01*
X117754000Y-111828000D01*
X117686000Y-111843000D01*
X117638000Y-111859000D01*
X117554000Y-111894000D01*
X117551000Y-111899000D01*
X104460000Y-111899000D01*
X104431000Y-111889000D01*
X104234000Y-111824000D01*
X104118000Y-111790000D01*
X104105000Y-111788000D01*
X96675000Y-111788000D01*
X96653000Y-111772000D01*
X117917000Y-111772000D01*
X117940000Y-111767000D01*
X118050000Y-111728000D01*
X118083000Y-111708000D01*
X118060000Y-111713000D01*
X117950000Y-111752000D01*
X117917000Y-111772000D01*
X96653000Y-111772000D01*
X96517000Y-111674000D01*
X103779000Y-111674000D01*
X103810000Y-111689000D01*
X103886000Y-111718000D01*
X103884000Y-111704000D01*
X103880000Y-111702000D01*
X103800000Y-111673000D01*
X103779000Y-111674000D01*
X96517000Y-111674000D01*
X96503000Y-111663000D01*
X118200000Y-111663000D01*
X118213000Y-111670000D01*
X118220000Y-111669000D01*
X118300000Y-111637000D01*
X118287000Y-111630000D01*
X118280000Y-111631000D01*
X118200000Y-111663000D01*
X96503000Y-111663000D01*
X96435000Y-111614000D01*
X103619000Y-111614000D01*
X103650000Y-111629000D01*
X103726000Y-111658000D01*
X103724000Y-111644000D01*
X103720000Y-111642000D01*
X103640000Y-111613000D01*
X103619000Y-111614000D01*
X96435000Y-111614000D01*
X96421000Y-111603000D01*
X118360000Y-111603000D01*
X118373000Y-111610000D01*
X118380000Y-111609000D01*
X118460000Y-111577000D01*
X118447000Y-111570000D01*
X118440000Y-111571000D01*
X118360000Y-111603000D01*
X96421000Y-111603000D01*
X96352000Y-111554000D01*
X103459000Y-111554000D01*
X103490000Y-111569000D01*
X103566000Y-111598000D01*
X103564000Y-111584000D01*
X103560000Y-111582000D01*
X103499000Y-111559000D01*
X118510000Y-111559000D01*
X118560000Y-111540000D01*
X118570000Y-111521000D01*
X118520000Y-111540000D01*
X118510000Y-111559000D01*
X103499000Y-111559000D01*
X103480000Y-111553000D01*
X103459000Y-111554000D01*
X96352000Y-111554000D01*
X96280000Y-111501000D01*
X103350000Y-111501000D01*
X103360000Y-111520000D01*
X103410000Y-111539000D01*
X103400000Y-111520000D01*
X103391000Y-111517000D01*
X118606000Y-111517000D01*
X118671000Y-111499000D01*
X118700000Y-111488000D01*
X118773000Y-111451000D01*
X118774000Y-111447000D01*
X118708000Y-111466000D01*
X118678000Y-111478000D01*
X118606000Y-111517000D01*
X103391000Y-111517000D01*
X103350000Y-111501000D01*
X96280000Y-111501000D01*
X96225000Y-111461000D01*
X103250000Y-111461000D01*
X103260000Y-111480000D01*
X103310000Y-111499000D01*
X103300000Y-111480000D01*
X103250000Y-111461000D01*
X96225000Y-111461000D01*
X96170000Y-111421000D01*
X103150000Y-111421000D01*
X103160000Y-111440000D01*
X103210000Y-111459000D01*
X103200000Y-111440000D01*
X103198000Y-111439000D01*
X118810000Y-111439000D01*
X118860000Y-111420000D01*
X118870000Y-111401000D01*
X118820000Y-111420000D01*
X118810000Y-111439000D01*
X103198000Y-111439000D01*
X103150000Y-111421000D01*
X96170000Y-111421000D01*
X96115000Y-111381000D01*
X103050000Y-111381000D01*
X103060000Y-111400000D01*
X103110000Y-111419000D01*
X103100000Y-111400000D01*
X103098000Y-111399000D01*
X118910000Y-111399000D01*
X118960000Y-111380000D01*
X118970000Y-111361000D01*
X118920000Y-111380000D01*
X118910000Y-111399000D01*
X103098000Y-111399000D01*
X103050000Y-111381000D01*
X96115000Y-111381000D01*
X95981000Y-111283000D01*
X102810000Y-111283000D01*
X102849000Y-111310000D01*
X102890000Y-111330000D01*
X102994000Y-111373000D01*
X103010000Y-111377000D01*
X102985000Y-111359000D01*
X119010000Y-111359000D01*
X119060000Y-111340000D01*
X119070000Y-111321000D01*
X119020000Y-111340000D01*
X119010000Y-111359000D01*
X102985000Y-111359000D01*
X102971000Y-111350000D01*
X102930000Y-111330000D01*
X102903000Y-111319000D01*
X119109000Y-111319000D01*
X119110000Y-111319000D01*
X119180000Y-111290000D01*
X119211000Y-111261000D01*
X119210000Y-111261000D01*
X119140000Y-111290000D01*
X119109000Y-111319000D01*
X102903000Y-111319000D01*
X102826000Y-111287000D01*
X102810000Y-111283000D01*
X95981000Y-111283000D01*
X95869000Y-111202000D01*
X102630000Y-111202000D01*
X102663000Y-111230000D01*
X102680000Y-111240000D01*
X102765000Y-111278000D01*
X102770000Y-111278000D01*
X102737000Y-111250000D01*
X102720000Y-111240000D01*
X102717000Y-111239000D01*
X119289000Y-111239000D01*
X119290000Y-111239000D01*
X119360000Y-111210000D01*
X119391000Y-111181000D01*
X119390000Y-111181000D01*
X119320000Y-111210000D01*
X119289000Y-111239000D01*
X102717000Y-111239000D01*
X102635000Y-111202000D01*
X102630000Y-111202000D01*
X95869000Y-111202000D01*
X95822000Y-111167000D01*
X95792000Y-111141000D01*
X102490000Y-111141000D01*
X102519000Y-111169000D01*
X102520000Y-111170000D01*
X102590000Y-111199000D01*
X102568000Y-111177000D01*
X119427000Y-111177000D01*
X119430000Y-111178000D01*
X119507000Y-111147000D01*
X119520000Y-111140000D01*
X119573000Y-111103000D01*
X119570000Y-111102000D01*
X119494000Y-111133000D01*
X119480000Y-111140000D01*
X119427000Y-111177000D01*
X102568000Y-111177000D01*
X102562000Y-111171000D01*
X102560000Y-111170000D01*
X102490000Y-111141000D01*
X95792000Y-111141000D01*
X95676000Y-111042000D01*
X102270000Y-111042000D01*
X102303000Y-111070000D01*
X102320000Y-111080000D01*
X102405000Y-111118000D01*
X102410000Y-111118000D01*
X102387000Y-111098000D01*
X119610000Y-111098000D01*
X119688000Y-111067000D01*
X119740000Y-111040000D01*
X119826000Y-110989000D01*
X119830000Y-110982000D01*
X119752000Y-111013000D01*
X119700000Y-111040000D01*
X119614000Y-111091000D01*
X119610000Y-111098000D01*
X102387000Y-111098000D01*
X102377000Y-111090000D01*
X102360000Y-111080000D01*
X102275000Y-111042000D01*
X102270000Y-111042000D01*
X95676000Y-111042000D01*
X95513000Y-110902000D01*
X101970000Y-110902000D01*
X102009000Y-110932000D01*
X102060000Y-110960000D01*
X102169000Y-111012000D01*
X102190000Y-111018000D01*
X102151000Y-110988000D01*
X102100000Y-110960000D01*
X102096000Y-110958000D01*
X119910000Y-110958000D01*
X119987000Y-110926000D01*
X120140000Y-110850000D01*
X120282000Y-110774000D01*
X120330000Y-110742000D01*
X120253000Y-110774000D01*
X120100000Y-110850000D01*
X119958000Y-110926000D01*
X119910000Y-110958000D01*
X102096000Y-110958000D01*
X101991000Y-110908000D01*
X101970000Y-110902000D01*
X95513000Y-110902000D01*
X95174000Y-110610000D01*
X101360000Y-110610000D01*
X101421000Y-110647000D01*
X101563000Y-110722000D01*
X101721000Y-110802000D01*
X101832000Y-110853000D01*
X101848000Y-110859000D01*
X101858000Y-110852000D01*
X101787000Y-110813000D01*
X101641000Y-110740000D01*
X101483000Y-110664000D01*
X101375000Y-110615000D01*
X101360000Y-110610000D01*
X95174000Y-110610000D01*
X94941000Y-110409000D01*
X100980000Y-110409000D01*
X101037000Y-110446000D01*
X101154000Y-110509000D01*
X101245000Y-110555000D01*
X101255000Y-110559000D01*
X101260000Y-110550000D01*
X101200000Y-110512000D01*
X101120000Y-110470000D01*
X101005000Y-110417000D01*
X100980000Y-110409000D01*
X94941000Y-110409000D01*
X94824000Y-110309000D01*
X100800000Y-110309000D01*
X100856000Y-110348000D01*
X100875000Y-110359000D01*
X100951000Y-110397000D01*
X100960000Y-110390000D01*
X100903000Y-110352000D01*
X100880000Y-110340000D01*
X100804000Y-110308000D01*
X100800000Y-110309000D01*
X94824000Y-110309000D01*
X94708000Y-110209000D01*
X100620000Y-110209000D01*
X100676000Y-110248000D01*
X100695000Y-110259000D01*
X100771000Y-110297000D01*
X100780000Y-110290000D01*
X100723000Y-110252000D01*
X100700000Y-110240000D01*
X100624000Y-110208000D01*
X100620000Y-110209000D01*
X94708000Y-110209000D01*
X94617000Y-110131000D01*
X100481000Y-110131000D01*
X100535000Y-110169000D01*
X100596000Y-110198000D01*
X100600000Y-110191000D01*
X100546000Y-110153000D01*
X100540000Y-110150000D01*
X100481000Y-110131000D01*
X94617000Y-110131000D01*
X94548000Y-110072000D01*
X100388000Y-110072000D01*
X100409000Y-110089000D01*
X100459000Y-110117000D01*
X100460000Y-110111000D01*
X100415000Y-110080000D01*
X100388000Y-110072000D01*
X94548000Y-110072000D01*
X94379000Y-109926000D01*
X100140000Y-109926000D01*
X100195000Y-109966000D01*
X100298000Y-110029000D01*
X100359000Y-110060000D01*
X100349000Y-110043000D01*
X100274000Y-109993000D01*
X100176000Y-109940000D01*
X100140000Y-109926000D01*
X94379000Y-109926000D01*
X94333000Y-109887000D01*
X94274000Y-109827000D01*
X99980000Y-109827000D01*
X100031000Y-109868000D01*
X100108000Y-109915000D01*
X100120000Y-109919000D01*
X100090000Y-109888000D01*
X100004000Y-109832000D01*
X99980000Y-109827000D01*
X94274000Y-109827000D01*
X94082000Y-109633000D01*
X99669000Y-109633000D01*
X99670000Y-109634000D01*
X99738000Y-109683000D01*
X99856000Y-109761000D01*
X99945000Y-109815000D01*
X99955000Y-109820000D01*
X99960000Y-109812000D01*
X99904000Y-109770000D01*
X99855000Y-109739000D01*
X99730000Y-109662000D01*
X99700000Y-109643000D01*
X99669000Y-109633000D01*
X94082000Y-109633000D01*
X93721000Y-109269000D01*
X99120000Y-109269000D01*
X99179000Y-109315000D01*
X99322000Y-109415000D01*
X99345000Y-109430000D01*
X99525000Y-109548000D01*
X99584000Y-109580000D01*
X99569000Y-109563000D01*
X99492000Y-109507000D01*
X99354000Y-109415000D01*
X99212000Y-109323000D01*
X99126000Y-109271000D01*
X99120000Y-109269000D01*
X93721000Y-109269000D01*
X93581000Y-109128000D01*
X98920000Y-109128000D01*
X98970000Y-109171000D01*
X99059000Y-109237000D01*
X99095000Y-109259000D01*
X99100000Y-109251000D01*
X99046000Y-109206000D01*
X99010000Y-109180000D01*
X98928000Y-109129000D01*
X98920000Y-109128000D01*
X93581000Y-109128000D01*
X92933000Y-108474000D01*
X92814000Y-108340000D01*
X97870000Y-108340000D01*
X97937000Y-108398000D01*
X98093000Y-108522000D01*
X98301000Y-108682000D01*
X98522000Y-108850000D01*
X98720000Y-108997000D01*
X98856000Y-109096000D01*
X98895000Y-109120000D01*
X98900000Y-109112000D01*
X98843000Y-109066000D01*
X98701000Y-108960000D01*
X98663000Y-108933000D01*
X98442000Y-108770000D01*
X98194000Y-108581000D01*
X98142000Y-108541000D01*
X97976000Y-108414000D01*
X97880000Y-108344000D01*
X97870000Y-108340000D01*
X92814000Y-108340000D01*
X92318000Y-107780000D01*
X91142000Y-106284000D01*
X90080000Y-104684000D01*
X89279000Y-103243000D01*
X93282000Y-103243000D01*
X93290000Y-103260000D01*
X93358000Y-103367000D01*
X93491000Y-103565000D01*
X93660000Y-103811000D01*
X93838000Y-104067000D01*
X93997000Y-104292000D01*
X94076000Y-104400000D01*
X94615000Y-105099000D01*
X95152000Y-105737000D01*
X95738000Y-106372000D01*
X96139000Y-106781000D01*
X96515000Y-107153000D01*
X96836000Y-107458000D01*
X97157000Y-107747000D01*
X97470000Y-108017000D01*
X97637000Y-108159000D01*
X97715000Y-108223000D01*
X97739000Y-108237000D01*
X97740000Y-108233000D01*
X97737000Y-108230000D01*
X97750000Y-108230000D01*
X97788000Y-108275000D01*
X97839000Y-108318000D01*
X97840000Y-108313000D01*
X97795000Y-108268000D01*
X97750000Y-108230000D01*
X97737000Y-108230000D01*
X97686000Y-108182000D01*
X97550000Y-108064000D01*
X97495000Y-108018000D01*
X96161000Y-106790000D01*
X94945000Y-105470000D01*
X93860000Y-104072000D01*
X93590000Y-103680000D01*
X93403000Y-103405000D01*
X93302000Y-103261000D01*
X93282000Y-103243000D01*
X89279000Y-103243000D01*
X89193000Y-103089000D01*
X93187000Y-103089000D01*
X93204000Y-103120000D01*
X93256000Y-103207000D01*
X93272000Y-103220000D01*
X93262000Y-103185000D01*
X93209000Y-103110000D01*
X93187000Y-103089000D01*
X89193000Y-103089000D01*
X89141000Y-102996000D01*
X89020000Y-102732000D01*
X89014501Y-102720000D01*
X92966000Y-102720000D01*
X92966000Y-102732000D01*
X93004000Y-102799000D01*
X93075000Y-102915000D01*
X93150000Y-103031000D01*
X93174000Y-103060000D01*
X93156000Y-103015000D01*
X93094000Y-102915000D01*
X93051000Y-102845000D01*
X92983000Y-102740000D01*
X92966000Y-102720000D01*
X89014501Y-102720000D01*
X88861000Y-102385000D01*
X92762000Y-102385000D01*
X92788000Y-102434000D01*
X92859000Y-102555000D01*
X92931000Y-102671000D01*
X92953000Y-102700000D01*
X92954000Y-102685000D01*
X92878000Y-102553000D01*
X92801000Y-102429000D01*
X92767000Y-102380000D01*
X92762000Y-102385000D01*
X88861000Y-102385000D01*
X88776000Y-102200000D01*
X92669000Y-102200000D01*
X92688000Y-102256000D01*
X92700000Y-102280000D01*
X92746000Y-102357000D01*
X92751000Y-102360000D01*
X92732000Y-102304000D01*
X92720000Y-102280000D01*
X92674000Y-102203000D01*
X92669000Y-102200000D01*
X88776000Y-102200000D01*
X88577000Y-101765000D01*
X92430000Y-101765000D01*
X92440000Y-101797000D01*
X92460000Y-101840000D01*
X92542000Y-101997000D01*
X92618000Y-102131000D01*
X92652000Y-102180000D01*
X92627000Y-102119000D01*
X92558000Y-101985000D01*
X92475000Y-101836000D01*
X92430000Y-101765000D01*
X88577000Y-101765000D01*
X88335000Y-101237000D01*
X88237000Y-100969000D01*
X92025000Y-100969000D01*
X92052000Y-101036000D01*
X92127000Y-101193000D01*
X92224000Y-101388000D01*
X92317000Y-101569000D01*
X92379000Y-101684000D01*
X92390000Y-101700000D01*
X92363000Y-101636000D01*
X92285000Y-101470000D01*
X92216000Y-101331000D01*
X92111000Y-101124000D01*
X92041000Y-100994000D01*
X92025000Y-100969000D01*
X88237000Y-100969000D01*
X88125000Y-100665000D01*
X91881000Y-100665000D01*
X91909000Y-100735000D01*
X91966000Y-100851000D01*
X92011000Y-100928000D01*
X92015000Y-100931000D01*
X91991000Y-100865000D01*
X91952000Y-100787000D01*
X91894000Y-100681000D01*
X91881000Y-100665000D01*
X88125000Y-100665000D01*
X88059000Y-100484000D01*
X91801000Y-100484000D01*
X91826000Y-100552000D01*
X91867000Y-100625000D01*
X91875000Y-100632000D01*
X91853000Y-100568000D01*
X91842000Y-100547000D01*
X91803000Y-100484000D01*
X91801000Y-100484000D01*
X88059000Y-100484000D01*
X87993000Y-100304000D01*
X91721000Y-100304000D01*
X91746000Y-100372000D01*
X91787000Y-100445000D01*
X91795000Y-100452000D01*
X91773000Y-100388000D01*
X91762000Y-100367000D01*
X91723000Y-100304000D01*
X91721000Y-100304000D01*
X87993000Y-100304000D01*
X87942000Y-100164000D01*
X87941634Y-100163000D01*
X91661000Y-100163000D01*
X91661000Y-100164000D01*
X91684000Y-100230000D01*
X91715000Y-100272000D01*
X91694000Y-100210000D01*
X91692000Y-100207000D01*
X91661000Y-100163000D01*
X87941634Y-100163000D01*
X87855000Y-99926000D01*
X91567000Y-99926000D01*
X91585000Y-99993000D01*
X91603000Y-100037000D01*
X91646000Y-100127000D01*
X91653000Y-100134000D01*
X91635000Y-100067000D01*
X91617000Y-100023000D01*
X91574000Y-99933000D01*
X91567000Y-99926000D01*
X87855000Y-99926000D01*
X87821000Y-99834000D01*
X91521000Y-99834000D01*
X91532000Y-99869000D01*
X91554000Y-99892000D01*
X91542000Y-99847000D01*
X91521000Y-99834000D01*
X87821000Y-99834000D01*
X87709000Y-99528000D01*
X91406000Y-99528000D01*
X91424000Y-99596000D01*
X91452000Y-99668000D01*
X91500000Y-99777000D01*
X91512000Y-99795000D01*
X91494000Y-99726000D01*
X91466000Y-99654000D01*
X91418000Y-99545000D01*
X91406000Y-99528000D01*
X87709000Y-99528000D01*
X87671000Y-99424000D01*
X87666000Y-99410000D01*
X87654000Y-99366000D01*
X91348000Y-99366000D01*
X91360000Y-99431000D01*
X91362000Y-99438000D01*
X91391000Y-99495000D01*
X91392000Y-99494000D01*
X91380000Y-99429000D01*
X91378000Y-99422000D01*
X91349000Y-99365000D01*
X91348000Y-99366000D01*
X87654000Y-99366000D01*
X87566000Y-99047000D01*
X91226000Y-99047000D01*
X91244000Y-99117000D01*
X91272000Y-99198000D01*
X91319000Y-99313000D01*
X91333000Y-99334000D01*
X91315000Y-99265000D01*
X91287000Y-99183000D01*
X91240000Y-99068000D01*
X91226000Y-99047000D01*
X87566000Y-99047000D01*
X87471000Y-98705000D01*
X91108000Y-98705000D01*
X91123000Y-98775000D01*
X91142000Y-98838000D01*
X91183000Y-98942000D01*
X91192000Y-98955000D01*
X91177000Y-98885000D01*
X91158000Y-98822000D01*
X91117000Y-98718000D01*
X91108000Y-98705000D01*
X87471000Y-98705000D01*
X87301000Y-98089000D01*
X90904000Y-98089000D01*
X90921000Y-98161000D01*
X90971000Y-98324000D01*
X90972000Y-98328000D01*
X91028000Y-98487000D01*
X91056000Y-98551000D01*
X91039000Y-98479000D01*
X90989000Y-98316000D01*
X90988000Y-98312000D01*
X90933000Y-98153000D01*
X90904000Y-98089000D01*
X87301000Y-98089000D01*
X87261000Y-97947000D01*
X90867000Y-97947000D01*
X90871000Y-98009000D01*
X90893000Y-98053000D01*
X90889000Y-97991000D01*
X90867000Y-97947000D01*
X87261000Y-97947000D01*
X87207000Y-97748000D01*
X90805000Y-97748000D01*
X90816000Y-97817000D01*
X90822000Y-97838000D01*
X90851000Y-97911000D01*
X90855000Y-97912000D01*
X90844000Y-97843000D01*
X90838000Y-97822000D01*
X90809000Y-97749000D01*
X90805000Y-97748000D01*
X87207000Y-97748000D01*
X87167000Y-97607000D01*
X90767000Y-97607000D01*
X90771000Y-97669000D01*
X90793000Y-97713000D01*
X90789000Y-97651000D01*
X90767000Y-97607000D01*
X87167000Y-97607000D01*
X87147000Y-97533000D01*
X87119000Y-97387000D01*
X90707000Y-97387000D01*
X90714000Y-97457000D01*
X90722000Y-97488000D01*
X90749000Y-97570000D01*
X90753000Y-97573000D01*
X90746000Y-97503000D01*
X90738000Y-97472000D01*
X90711000Y-97390000D01*
X90707000Y-97387000D01*
X87119000Y-97387000D01*
X87108000Y-97328000D01*
X90682000Y-97328000D01*
X90692000Y-97355000D01*
X90694000Y-97316000D01*
X90682000Y-97328000D01*
X87108000Y-97328000D01*
X87014000Y-96836000D01*
X90562000Y-96836000D01*
X90576000Y-96919000D01*
X90612000Y-97066000D01*
X90650000Y-97207000D01*
X90672000Y-97270000D01*
X90673000Y-97269000D01*
X90659000Y-97187000D01*
X90621000Y-97030000D01*
X90580000Y-96881000D01*
X90562000Y-96836000D01*
X87014000Y-96836000D01*
X87001000Y-96768000D01*
X90542000Y-96768000D01*
X90552000Y-96795000D01*
X90554000Y-96756000D01*
X90542000Y-96768000D01*
X87001000Y-96768000D01*
X86985000Y-96688000D01*
X90522000Y-96688000D01*
X90532000Y-96715000D01*
X90534000Y-96676000D01*
X90522000Y-96688000D01*
X86985000Y-96688000D01*
X86947000Y-96487000D01*
X90486000Y-96487000D01*
X90489000Y-96557000D01*
X90491000Y-96569000D01*
X90512000Y-96633000D01*
X90514000Y-96633000D01*
X90511000Y-96563000D01*
X90509000Y-96551000D01*
X90488000Y-96487000D01*
X90486000Y-96487000D01*
X86947000Y-96487000D01*
X86934000Y-96420000D01*
X90463000Y-96420000D01*
X90473000Y-96445000D01*
X90473000Y-96395000D01*
X90463000Y-96420000D01*
X86934000Y-96420000D01*
X86893000Y-96207000D01*
X90426000Y-96207000D01*
X90429000Y-96277000D01*
X90431000Y-96289000D01*
X90452000Y-96353000D01*
X90454000Y-96353000D01*
X90451000Y-96283000D01*
X90449000Y-96271000D01*
X90428000Y-96207000D01*
X90426000Y-96207000D01*
X86893000Y-96207000D01*
X86880000Y-96140000D01*
X90403000Y-96140000D01*
X90413000Y-96165000D01*
X90413000Y-96115000D01*
X90403000Y-96140000D01*
X86880000Y-96140000D01*
X86861000Y-96040000D01*
X90383000Y-96040000D01*
X90393000Y-96065000D01*
X90393000Y-96015000D01*
X90383000Y-96040000D01*
X86861000Y-96040000D01*
X86840000Y-95930000D01*
X86838855Y-95924000D01*
X90364000Y-95924000D01*
X90364000Y-95930000D01*
X90372000Y-95967000D01*
X90373000Y-95965000D01*
X90374000Y-95905000D01*
X90364000Y-95924000D01*
X86838855Y-95924000D01*
X86819000Y-95820000D01*
X90343000Y-95820000D01*
X90353000Y-95845000D01*
X90353000Y-95795000D01*
X90343000Y-95820000D01*
X86819000Y-95820000D01*
X86800000Y-95720000D01*
X90323000Y-95720000D01*
X90333000Y-95745000D01*
X90333000Y-95695000D01*
X90323000Y-95720000D01*
X86800000Y-95720000D01*
X86780000Y-95615000D01*
X86779000Y-95610000D01*
X86778350Y-95604000D01*
X90304000Y-95604000D01*
X90304000Y-95610000D01*
X90312000Y-95647000D01*
X90313000Y-95645000D01*
X90314000Y-95585000D01*
X90304000Y-95604000D01*
X86778350Y-95604000D01*
X86766000Y-95490000D01*
X86765350Y-95484000D01*
X90284000Y-95484000D01*
X90284000Y-95490000D01*
X90292000Y-95527000D01*
X90293000Y-95525000D01*
X90294000Y-95465000D01*
X90284000Y-95484000D01*
X86765350Y-95484000D01*
X86753000Y-95370000D01*
X86752350Y-95364000D01*
X90264000Y-95364000D01*
X90264000Y-95370000D01*
X90272000Y-95407000D01*
X90273000Y-95405000D01*
X90274000Y-95345000D01*
X90264000Y-95364000D01*
X86752350Y-95364000D01*
X86740000Y-95250000D01*
X86739354Y-95244000D01*
X90244000Y-95244000D01*
X90244000Y-95250000D01*
X90252000Y-95287000D01*
X90253000Y-95285000D01*
X90254000Y-95225000D01*
X90244000Y-95244000D01*
X86739354Y-95244000D01*
X86726000Y-95120000D01*
X86724400Y-95106000D01*
X90225000Y-95106000D01*
X90225000Y-95120000D01*
X90232000Y-95161000D01*
X90234000Y-95155000D01*
X90234000Y-95085000D01*
X90225000Y-95106000D01*
X86724400Y-95106000D01*
X86710000Y-94980000D01*
X86708500Y-94966000D01*
X90205000Y-94966000D01*
X90205000Y-94980000D01*
X90212000Y-95021000D01*
X90214000Y-95015000D01*
X90214000Y-94945000D01*
X90205000Y-94966000D01*
X86708500Y-94966000D01*
X86695000Y-94840000D01*
X86693425Y-94826000D01*
X90185000Y-94826000D01*
X90185000Y-94840000D01*
X90192000Y-94881000D01*
X90194000Y-94875000D01*
X90194000Y-94805000D01*
X90185000Y-94826000D01*
X86693425Y-94826000D01*
X86677000Y-94680000D01*
X86675507Y-94666000D01*
X90165000Y-94666000D01*
X90165000Y-94680000D01*
X90172000Y-94721000D01*
X90174000Y-94715000D01*
X90174000Y-94645000D01*
X90165000Y-94666000D01*
X86675507Y-94666000D01*
X86661000Y-94530000D01*
X90145000Y-94530000D01*
X90151000Y-94582000D01*
X90154000Y-94575000D01*
X90154000Y-94495000D01*
X90146000Y-94508000D01*
X90145000Y-94530000D01*
X86661000Y-94530000D01*
X86641000Y-94350000D01*
X90125000Y-94350000D01*
X90131000Y-94402000D01*
X90134000Y-94395000D01*
X90134000Y-94315000D01*
X90126000Y-94328000D01*
X90125000Y-94350000D01*
X86641000Y-94350000D01*
X86621000Y-94170000D01*
X90105000Y-94170000D01*
X90111000Y-94222000D01*
X90114000Y-94215000D01*
X90114000Y-94135000D01*
X90106000Y-94148000D01*
X90105000Y-94170000D01*
X86621000Y-94170000D01*
X86599000Y-93970000D01*
X90086000Y-93970000D01*
X90091000Y-94035000D01*
X90094000Y-94025000D01*
X90094000Y-93925000D01*
X90087000Y-93933000D01*
X90086000Y-93970000D01*
X86599000Y-93970000D01*
X86574000Y-93740000D01*
X90066000Y-93740000D01*
X90070000Y-93808000D01*
X90074000Y-93795000D01*
X90074000Y-93685000D01*
X90067000Y-93695000D01*
X90066000Y-93740000D01*
X86574000Y-93740000D01*
X86566000Y-93669000D01*
X86561000Y-93480000D01*
X90046000Y-93480000D01*
X90050000Y-93559000D01*
X90054000Y-93545000D01*
X90054000Y-93415000D01*
X90048000Y-93420000D01*
X90046000Y-93480000D01*
X86561000Y-93480000D01*
X86551000Y-93170000D01*
X90027000Y-93170000D01*
X90030000Y-93257000D01*
X90034000Y-93245000D01*
X90035000Y-93108000D01*
X90035000Y-93105000D01*
X90028000Y-93104000D01*
X90027000Y-93170000D01*
X86551000Y-93170000D01*
X86538000Y-92730000D01*
X86537329Y-92707000D01*
X90008000Y-92707000D01*
X90008000Y-92730000D01*
X90009000Y-92862000D01*
X90014000Y-92865000D01*
X90015000Y-92856000D01*
X90017000Y-92669000D01*
X90015000Y-92616000D01*
X90010000Y-92594000D01*
X90008000Y-92707000D01*
X86537329Y-92707000D01*
X86517000Y-92010000D01*
X86515704Y-91971000D01*
X89988000Y-91971000D01*
X89988000Y-92010000D01*
X89989000Y-92150000D01*
X89994000Y-92161000D01*
X89995000Y-92146000D01*
X89997000Y-91951000D01*
X89995000Y-91886000D01*
X89990000Y-91861000D01*
X89988000Y-91971000D01*
X86515704Y-91971000D01*
X86507000Y-91709000D01*
X86525000Y-91280000D01*
X86528276Y-91202000D01*
X90008000Y-91202000D01*
X90008000Y-91280000D01*
X90009000Y-91436000D01*
X90013000Y-91465000D01*
X90015000Y-91435000D01*
X90017000Y-91213000D01*
X90015000Y-91125000D01*
X90011000Y-91095000D01*
X90008000Y-91202000D01*
X86528276Y-91202000D01*
X86546000Y-90780000D01*
X90027000Y-90780000D01*
X90030000Y-90870000D01*
X90035000Y-90855000D01*
X90035000Y-90705000D01*
X90028000Y-90706000D01*
X90027000Y-90780000D01*
X86546000Y-90780000D01*
X86560000Y-90440000D01*
X90047000Y-90440000D01*
X90050000Y-90530000D01*
X90055000Y-90515000D01*
X90055000Y-90365000D01*
X90048000Y-90366000D01*
X90047000Y-90440000D01*
X86560000Y-90440000D01*
X86571000Y-90170000D01*
X90066000Y-90170000D01*
X90071000Y-90235000D01*
X90074000Y-90225000D01*
X90074000Y-90125000D01*
X90067000Y-90133000D01*
X90066000Y-90170000D01*
X86571000Y-90170000D01*
X86595000Y-89960000D01*
X90085000Y-89960000D01*
X90091000Y-90015000D01*
X90094000Y-90005000D01*
X90094000Y-89915000D01*
X90086000Y-89931000D01*
X90085000Y-89960000D01*
X86595000Y-89960000D01*
X86617000Y-89760000D01*
X90105000Y-89760000D01*
X90111000Y-89815000D01*
X90114000Y-89805000D01*
X90114000Y-89715000D01*
X90106000Y-89731000D01*
X90105000Y-89760000D01*
X86617000Y-89760000D01*
X86639000Y-89570000D01*
X90126000Y-89570000D01*
X90131000Y-89635000D01*
X90134000Y-89625000D01*
X90134000Y-89525000D01*
X90127000Y-89533000D01*
X90126000Y-89570000D01*
X86639000Y-89570000D01*
X86659000Y-89390000D01*
X90145000Y-89390000D01*
X90151000Y-89442000D01*
X90154000Y-89435000D01*
X90154000Y-89355000D01*
X90146000Y-89368000D01*
X90145000Y-89390000D01*
X86659000Y-89390000D01*
X86676000Y-89240000D01*
X86677600Y-89226000D01*
X90165000Y-89226000D01*
X90165000Y-89240000D01*
X90172000Y-89281000D01*
X90174000Y-89275000D01*
X90174000Y-89205000D01*
X90165000Y-89226000D01*
X86677600Y-89226000D01*
X86692000Y-89100000D01*
X86693600Y-89086000D01*
X90185000Y-89086000D01*
X90185000Y-89100000D01*
X90192000Y-89141000D01*
X90194000Y-89135000D01*
X90194000Y-89065000D01*
X90185000Y-89086000D01*
X86693600Y-89086000D01*
X86708000Y-88960000D01*
X86709600Y-88946000D01*
X90205000Y-88946000D01*
X90205000Y-88960000D01*
X90212000Y-89001000D01*
X90214000Y-88995000D01*
X90214000Y-88925000D01*
X90205000Y-88946000D01*
X86709600Y-88946000D01*
X86724000Y-88820000D01*
X86725600Y-88806000D01*
X90225000Y-88806000D01*
X90225000Y-88820000D01*
X90232000Y-88861000D01*
X90234000Y-88855000D01*
X90234000Y-88785000D01*
X90225000Y-88806000D01*
X86725600Y-88806000D01*
X86740000Y-88680000D01*
X86741508Y-88666000D01*
X90245000Y-88666000D01*
X90245000Y-88680000D01*
X90252000Y-88721000D01*
X90254000Y-88715000D01*
X90254000Y-88645000D01*
X90245000Y-88666000D01*
X86741508Y-88666000D01*
X86754000Y-88550000D01*
X86754700Y-88544000D01*
X90264000Y-88544000D01*
X90264000Y-88550000D01*
X90272000Y-88587000D01*
X90273000Y-88585000D01*
X90274000Y-88525000D01*
X90264000Y-88544000D01*
X86754700Y-88544000D01*
X86768000Y-88430000D01*
X86768655Y-88424000D01*
X90284000Y-88424000D01*
X90284000Y-88430000D01*
X90292000Y-88467000D01*
X90293000Y-88465000D01*
X90294000Y-88405000D01*
X90284000Y-88424000D01*
X86768655Y-88424000D01*
X86780000Y-88320000D01*
X90303000Y-88320000D01*
X90313000Y-88345000D01*
X90313000Y-88295000D01*
X90303000Y-88320000D01*
X86780000Y-88320000D01*
X86793000Y-88210000D01*
X86793000Y-88206000D01*
X86793396Y-88204000D01*
X90324000Y-88204000D01*
X90324000Y-88210000D01*
X90332000Y-88247000D01*
X90333000Y-88245000D01*
X90334000Y-88185000D01*
X90324000Y-88204000D01*
X86793396Y-88204000D01*
X86814000Y-88100000D01*
X90343000Y-88100000D01*
X90353000Y-88125000D01*
X90353000Y-88075000D01*
X90343000Y-88100000D01*
X86814000Y-88100000D01*
X86835000Y-87990000D01*
X86836200Y-87984000D01*
X90364000Y-87984000D01*
X90364000Y-87990000D01*
X90372000Y-88027000D01*
X90373000Y-88025000D01*
X90374000Y-87965000D01*
X90364000Y-87984000D01*
X86836200Y-87984000D01*
X86857000Y-87880000D01*
X90383000Y-87880000D01*
X90393000Y-87905000D01*
X90393000Y-87855000D01*
X90383000Y-87880000D01*
X86857000Y-87880000D01*
X86876000Y-87780000D01*
X90403000Y-87780000D01*
X90413000Y-87805000D01*
X90413000Y-87755000D01*
X90403000Y-87780000D01*
X86876000Y-87780000D01*
X86896000Y-87680000D01*
X90423000Y-87680000D01*
X90433000Y-87705000D01*
X90433000Y-87655000D01*
X90423000Y-87680000D01*
X86896000Y-87680000D01*
X86914000Y-87588000D01*
X90442000Y-87588000D01*
X90452000Y-87615000D01*
X90454000Y-87576000D01*
X90442000Y-87588000D01*
X86914000Y-87588000D01*
X86929000Y-87510000D01*
X90464000Y-87510000D01*
X90474000Y-87517000D01*
X90480000Y-87500000D01*
X90496000Y-87410000D01*
X90486000Y-87403000D01*
X90480000Y-87420000D01*
X90464000Y-87510000D01*
X86929000Y-87510000D01*
X86964000Y-87330000D01*
X90504000Y-87330000D01*
X90514000Y-87337000D01*
X90520000Y-87320000D01*
X90536000Y-87230000D01*
X90526000Y-87223000D01*
X90520000Y-87240000D01*
X90504000Y-87330000D01*
X86964000Y-87330000D01*
X86999000Y-87150000D01*
X90544000Y-87150000D01*
X90554000Y-87157000D01*
X90560000Y-87140000D01*
X90576000Y-87050000D01*
X90566000Y-87043000D01*
X90560000Y-87060000D01*
X90544000Y-87150000D01*
X86999000Y-87150000D01*
X87035000Y-86968000D01*
X90582000Y-86968000D01*
X90592000Y-86995000D01*
X90594000Y-86956000D01*
X90582000Y-86968000D01*
X87035000Y-86968000D01*
X87051000Y-86888000D01*
X90602000Y-86888000D01*
X90612000Y-86915000D01*
X90614000Y-86876000D01*
X90602000Y-86888000D01*
X87051000Y-86888000D01*
X87064000Y-86821000D01*
X90632000Y-86821000D01*
X90637000Y-86810000D01*
X90667000Y-86702000D01*
X90668000Y-86700000D01*
X90668000Y-86659000D01*
X90663000Y-86670000D01*
X90633000Y-86778000D01*
X90633000Y-86780000D01*
X90632000Y-86821000D01*
X87064000Y-86821000D01*
X87109000Y-86588000D01*
X90682000Y-86588000D01*
X90692000Y-86615000D01*
X90694000Y-86576000D01*
X90682000Y-86588000D01*
X87109000Y-86588000D01*
X87122000Y-86521000D01*
X90712000Y-86521000D01*
X90717000Y-86510000D01*
X90747000Y-86402000D01*
X90748000Y-86400000D01*
X90748000Y-86359000D01*
X90743000Y-86370000D01*
X90713000Y-86478000D01*
X90713000Y-86480000D01*
X90712000Y-86521000D01*
X87122000Y-86521000D01*
X87168000Y-86288000D01*
X90762000Y-86288000D01*
X90772000Y-86315000D01*
X90774000Y-86276000D01*
X90762000Y-86288000D01*
X87168000Y-86288000D01*
X87169000Y-86280000D01*
X87186000Y-86220000D01*
X90783000Y-86220000D01*
X90800000Y-86210000D01*
X90817000Y-86140000D01*
X90800000Y-86150000D01*
X90783000Y-86220000D01*
X87186000Y-86220000D01*
X87242000Y-86020000D01*
X90843000Y-86020000D01*
X90860000Y-86010000D01*
X90877000Y-85940000D01*
X90860000Y-85950000D01*
X90843000Y-86020000D01*
X87242000Y-86020000D01*
X87315000Y-85760000D01*
X90923000Y-85760000D01*
X90944000Y-85730000D01*
X90960000Y-85690000D01*
X90994000Y-85578000D01*
X90997000Y-85560000D01*
X90976000Y-85590000D01*
X90960000Y-85630000D01*
X90926000Y-85742000D01*
X90923000Y-85760000D01*
X87315000Y-85760000D01*
X87385000Y-85510000D01*
X91002000Y-85510000D01*
X91025000Y-85461000D01*
X91071000Y-85331000D01*
X91119000Y-85182000D01*
X91132000Y-85125000D01*
X91106000Y-85182000D01*
X91058000Y-85316000D01*
X91015000Y-85451000D01*
X91002000Y-85510000D01*
X87385000Y-85510000D01*
X87518000Y-85035000D01*
X87518560Y-85033000D01*
X91160000Y-85033000D01*
X91160000Y-85035000D01*
X91172000Y-85029000D01*
X91215000Y-84922000D01*
X91278000Y-84750000D01*
X91374000Y-84492000D01*
X91489000Y-84197000D01*
X91519000Y-84121000D01*
X91600000Y-83916000D01*
X91647000Y-83786000D01*
X91652000Y-83765000D01*
X91621000Y-83827000D01*
X91550000Y-83998000D01*
X91455000Y-84236000D01*
X91353000Y-84500000D01*
X91259000Y-84748000D01*
X91189000Y-84940000D01*
X91160000Y-85033000D01*
X87518560Y-85033000D01*
X87696000Y-84399000D01*
X87941000Y-83736000D01*
X91660000Y-83736000D01*
X91670000Y-83732000D01*
X91711000Y-83653000D01*
X91796000Y-83465000D01*
X91830000Y-83390000D01*
X91939000Y-83145000D01*
X91989000Y-83028000D01*
X91986000Y-83021000D01*
X91968000Y-83050000D01*
X91921000Y-83147000D01*
X91841000Y-83321000D01*
X91754000Y-83515000D01*
X91685000Y-83672000D01*
X91660000Y-83736000D01*
X87941000Y-83736000D01*
X88252000Y-82893000D01*
X92040000Y-82893000D01*
X92047000Y-82896000D01*
X92079000Y-82840000D01*
X92155000Y-82690000D01*
X92218000Y-82565000D01*
X92312000Y-82372000D01*
X92366000Y-82256000D01*
X92370000Y-82240000D01*
X92333000Y-82303000D01*
X92254000Y-82454000D01*
X92160000Y-82639000D01*
X92080000Y-82803000D01*
X92041000Y-82890000D01*
X92040000Y-82893000D01*
X88252000Y-82893000D01*
X88371000Y-82571000D01*
X88534000Y-82220000D01*
X92386000Y-82220000D01*
X92387000Y-82220000D01*
X92427000Y-82159000D01*
X92491000Y-82045000D01*
X92600000Y-81843000D01*
X92664000Y-81725000D01*
X92725000Y-81604000D01*
X92724000Y-81587000D01*
X92675000Y-81665000D01*
X92590000Y-81818000D01*
X92494000Y-81998000D01*
X92417000Y-82150000D01*
X92386000Y-82220000D01*
X88534000Y-82220000D01*
X88840000Y-81559000D01*
X92745000Y-81559000D01*
X92754000Y-81550000D01*
X92803000Y-81476000D01*
X92905000Y-81309000D01*
X92971000Y-81200000D01*
X93144000Y-80916000D01*
X93329000Y-80622000D01*
X93369000Y-80560000D01*
X93509000Y-80345000D01*
X93579000Y-80236000D01*
X93594000Y-80204000D01*
X93575000Y-80220000D01*
X93515000Y-80304000D01*
X93396000Y-80484000D01*
X93245000Y-80720000D01*
X93087000Y-80973000D01*
X92947000Y-81203000D01*
X92901000Y-81280000D01*
X92793000Y-81465000D01*
X92747000Y-81546000D01*
X92745000Y-81559000D01*
X88840000Y-81559000D01*
X89190000Y-80803000D01*
X89542000Y-80180000D01*
X93606000Y-80180000D01*
X93654000Y-80121000D01*
X93763000Y-79972000D01*
X93832000Y-79875000D01*
X93974000Y-79675000D01*
X94133000Y-79460000D01*
X94335000Y-79190000D01*
X94556000Y-78900000D01*
X94607000Y-78831000D01*
X94564000Y-78876000D01*
X94561000Y-78880000D01*
X94464000Y-78998000D01*
X94306000Y-79203000D01*
X94120000Y-79451000D01*
X93938000Y-79698000D01*
X93801000Y-79890000D01*
X93687000Y-80054000D01*
X93619000Y-80149000D01*
X93615000Y-80155000D01*
X93606000Y-80180000D01*
X89542000Y-80180000D01*
X90151000Y-79101000D01*
X90355000Y-78800000D01*
X94627000Y-78800000D01*
X94678000Y-78744000D01*
X94798000Y-78603000D01*
X94879000Y-78505000D01*
X95002000Y-78355000D01*
X95051000Y-78289000D01*
X95036000Y-78302000D01*
X94939000Y-78412000D01*
X94813000Y-78562000D01*
X94697000Y-78704000D01*
X94631000Y-78791000D01*
X94627000Y-78800000D01*
X90355000Y-78800000D01*
X90760000Y-78200000D01*
X95127000Y-78200000D01*
X95181000Y-78146000D01*
X95307000Y-78009000D01*
X95402000Y-77905000D01*
X95542000Y-77748000D01*
X95613000Y-77663000D01*
X95612000Y-77660000D01*
X95534000Y-77740000D01*
X95406000Y-77878000D01*
X95270000Y-78031000D01*
X95163000Y-78153000D01*
X95127000Y-78200000D01*
X90760000Y-78200000D01*
X91174000Y-77588000D01*
X95670000Y-77588000D01*
X96180000Y-77089000D01*
X96463000Y-76815000D01*
X96753000Y-76542000D01*
X96995000Y-76319000D01*
X97035000Y-76283000D01*
X97220000Y-76117000D01*
X97346000Y-76000000D01*
X97380000Y-75965000D01*
X97335000Y-75993000D01*
X97325000Y-76002000D01*
X97241000Y-76079000D01*
X97075000Y-76228000D01*
X96880000Y-76405000D01*
X96608000Y-76657000D01*
X96301000Y-76952000D01*
X96080000Y-77172000D01*
X95670000Y-77588000D01*
X91174000Y-77588000D01*
X91251000Y-77473000D01*
X92464000Y-75954000D01*
X97400000Y-75954000D01*
X97450000Y-75921000D01*
X97505000Y-75876000D01*
X97640000Y-75765000D01*
X97818000Y-75619000D01*
X97820000Y-75618000D01*
X98020000Y-75460000D01*
X98261000Y-75273000D01*
X98330000Y-75221000D01*
X98527000Y-75070000D01*
X98645000Y-74976000D01*
X98666000Y-74953000D01*
X98580000Y-75011000D01*
X98400000Y-75145000D01*
X98170000Y-75321000D01*
X97924000Y-75515000D01*
X97694000Y-75700000D01*
X97512000Y-75851000D01*
X97411000Y-75941000D01*
X97400000Y-75954000D01*
X92464000Y-75954000D01*
X92486000Y-75927000D01*
X92919000Y-75440000D01*
X93201000Y-75140000D01*
X93403000Y-74934000D01*
X98700000Y-74934000D01*
X98754000Y-74903000D01*
X98825000Y-74855000D01*
X98974000Y-74751000D01*
X99175000Y-74613000D01*
X99200000Y-74596000D01*
X99677000Y-74282000D01*
X100190000Y-73962000D01*
X100430000Y-73820000D01*
X100635000Y-73699000D01*
X100754000Y-73625000D01*
X100769000Y-73610000D01*
X100664000Y-73664000D01*
X100650000Y-73671000D01*
X100401000Y-73815000D01*
X100077000Y-74010000D01*
X99739000Y-74220000D01*
X99444000Y-74410000D01*
X99420000Y-74426000D01*
X99142000Y-74614000D01*
X98909000Y-74776000D01*
X98752000Y-74889000D01*
X98700000Y-74934000D01*
X93403000Y-74934000D01*
X93551000Y-74782000D01*
X93921000Y-74414000D01*
X94261000Y-74085000D01*
X94361000Y-73992000D01*
X94861000Y-73565000D01*
X100850000Y-73565000D01*
X100899000Y-73546000D01*
X101044000Y-73474000D01*
X101090000Y-73450000D01*
X101265000Y-73356000D01*
X101364000Y-73299000D01*
X101370000Y-73294000D01*
X101321000Y-73313000D01*
X101176000Y-73385000D01*
X101130000Y-73409000D01*
X100955000Y-73502000D01*
X100856000Y-73560000D01*
X100850000Y-73565000D01*
X94861000Y-73565000D01*
X95232000Y-73248000D01*
X101440000Y-73248000D01*
X101503000Y-73222000D01*
X101659000Y-73151000D01*
X101855000Y-73060000D01*
X102039000Y-72971000D01*
X102161000Y-72909000D01*
X102172000Y-72903000D01*
X102194000Y-72881000D01*
X102119000Y-72911000D01*
X101957000Y-72987000D01*
X101757000Y-73084000D01*
X101574000Y-73175000D01*
X101457000Y-73236000D01*
X101440000Y-73248000D01*
X95232000Y-73248000D01*
X95690000Y-72856000D01*
X102269000Y-72856000D01*
X102350000Y-72825000D01*
X102547000Y-72740000D01*
X102595000Y-72719000D01*
X102774000Y-72638000D01*
X102868000Y-72590000D01*
X102873000Y-72586000D01*
X102804000Y-72609000D01*
X102651000Y-72673000D01*
X102472000Y-72752000D01*
X102327000Y-72818000D01*
X102281000Y-72843000D01*
X102269000Y-72856000D01*
X95690000Y-72856000D01*
X95849000Y-72720000D01*
X96043000Y-72579000D01*
X102910000Y-72579000D01*
X102960000Y-72560000D01*
X102970000Y-72541000D01*
X102920000Y-72560000D01*
X102910000Y-72579000D01*
X96043000Y-72579000D01*
X96098000Y-72539000D01*
X103010000Y-72539000D01*
X103060000Y-72520000D01*
X103070000Y-72501000D01*
X103020000Y-72520000D01*
X103010000Y-72539000D01*
X96098000Y-72539000D01*
X96161000Y-72494000D01*
X103100000Y-72494000D01*
X103125000Y-72494000D01*
X103209000Y-72461000D01*
X103379000Y-72395000D01*
X103395000Y-72389000D01*
X103559000Y-72323000D01*
X103633000Y-72287000D01*
X103633000Y-72286000D01*
X103563000Y-72306000D01*
X103411000Y-72362000D01*
X103243000Y-72428000D01*
X103122000Y-72480000D01*
X103100000Y-72494000D01*
X96161000Y-72494000D01*
X96507000Y-72243000D01*
X103740000Y-72243000D01*
X103753000Y-72250000D01*
X103760000Y-72249000D01*
X103840000Y-72217000D01*
X103827000Y-72210000D01*
X103820000Y-72211000D01*
X103740000Y-72243000D01*
X96507000Y-72243000D01*
X97438000Y-71569000D01*
X99113000Y-70548000D01*
X100863000Y-69664000D01*
X102260000Y-69079000D01*
X102559000Y-68967000D01*
X102753000Y-68901000D01*
X102885000Y-68869000D01*
X103000000Y-68859000D01*
X103040000Y-68858000D01*
X103416000Y-68923000D01*
X103735000Y-69135000D01*
X103752000Y-69151000D01*
X103963000Y-69468000D01*
X104043000Y-69841000D01*
X104019000Y-70078000D01*
X103892000Y-70370000D01*
X103687000Y-70614000D01*
X103655000Y-70639000D01*
X103588000Y-70696000D01*
X103654000Y-70679000D01*
X103972000Y-70636000D01*
X104278000Y-70730000D01*
X104522000Y-70942000D01*
X104593000Y-71059000D01*
X104636000Y-71169000D01*
X104648000Y-71310000D01*
X104649000Y-71370000D01*
X104644000Y-71534000D01*
X104614000Y-71641000D01*
X104585000Y-71703000D01*
X104421000Y-71923000D01*
X104158000Y-72084000D01*
X103984000Y-72149000D01*
X103892000Y-72185000D01*
X103886000Y-72192000D01*
X103958000Y-72174000D01*
X104134000Y-72117000D01*
X104252000Y-72077000D01*
X104559000Y-71981000D01*
X104777000Y-71943000D01*
X104962000Y-71955000D01*
X105025000Y-71968000D01*
X105391000Y-72129000D01*
X105653000Y-72406000D01*
X105795000Y-72782000D01*
X105800000Y-72809000D01*
X105782000Y-73166000D01*
X105633000Y-73501000D01*
X105381000Y-73760000D01*
X105304000Y-73807000D01*
X105171000Y-73864000D01*
X104947000Y-73949000D01*
X104804000Y-74000000D01*
X103188000Y-74643000D01*
X101642000Y-75428000D01*
X100177000Y-76350000D01*
X99520000Y-76828000D01*
X98226000Y-77905000D01*
X97036000Y-79084000D01*
X96403000Y-79806000D01*
X95351000Y-81194000D01*
X94435000Y-82661000D01*
X93660000Y-84197000D01*
X93029000Y-85793000D01*
X92546000Y-87440000D01*
X92214000Y-89130000D01*
X92102000Y-90031000D01*
X92006000Y-91769000D01*
X92066000Y-93495000D01*
X92280000Y-95198000D01*
X92646000Y-96867000D01*
X92987000Y-97990000D01*
X93624000Y-99627000D01*
X94395000Y-101178000D01*
X95302000Y-102643000D01*
X96344000Y-104024000D01*
X97523000Y-105321000D01*
X98320000Y-106082000D01*
X99632000Y-107162000D01*
X101040000Y-108119000D01*
X102531000Y-108946000D01*
X104092000Y-109637000D01*
X105711000Y-110186000D01*
X107374000Y-110588000D01*
X108190000Y-110728000D01*
X109732000Y-110889000D01*
X111316000Y-110926000D01*
X112770000Y-110849000D01*
X114316000Y-110640000D01*
X114361000Y-110630000D01*
X120560000Y-110630000D01*
X120621000Y-110608000D01*
X120720000Y-110560000D01*
X120846000Y-110493000D01*
X120880000Y-110470000D01*
X120820000Y-110492000D01*
X120720000Y-110540000D01*
X120594000Y-110607000D01*
X120560000Y-110630000D01*
X114361000Y-110630000D01*
X115271000Y-110431000D01*
X120940000Y-110431000D01*
X120996000Y-110412000D01*
X121020000Y-110400000D01*
X121097000Y-110354000D01*
X121100000Y-110349000D01*
X121044000Y-110368000D01*
X121020000Y-110380000D01*
X120943000Y-110426000D01*
X120940000Y-110431000D01*
X115271000Y-110431000D01*
X115727000Y-110331000D01*
X121120000Y-110331000D01*
X121176000Y-110312000D01*
X121200000Y-110300000D01*
X121277000Y-110254000D01*
X121280000Y-110249000D01*
X121224000Y-110268000D01*
X121200000Y-110280000D01*
X121123000Y-110326000D01*
X121120000Y-110331000D01*
X115727000Y-110331000D01*
X115838000Y-110306000D01*
X116110000Y-110226000D01*
X121310000Y-110226000D01*
X121349000Y-110213000D01*
X121410000Y-110181000D01*
X121524000Y-110114000D01*
X121550000Y-110095000D01*
X121511000Y-110108000D01*
X121450000Y-110140000D01*
X121336000Y-110207000D01*
X121310000Y-110226000D01*
X116110000Y-110226000D01*
X116635000Y-110071000D01*
X121580000Y-110071000D01*
X121620000Y-110060000D01*
X121660000Y-110029000D01*
X121620000Y-110040000D01*
X121580000Y-110071000D01*
X116635000Y-110071000D01*
X116820000Y-110017000D01*
X116830000Y-110013000D01*
X121680000Y-110013000D01*
X121734000Y-109991000D01*
X121843000Y-109928000D01*
X121925000Y-109873000D01*
X121962000Y-109842000D01*
X121970000Y-109842000D01*
X122010000Y-109823000D01*
X122090000Y-109770000D01*
X122125000Y-109742000D01*
X122130000Y-109742000D01*
X122170000Y-109723000D01*
X122250000Y-109670000D01*
X122290000Y-109638000D01*
X122250000Y-109657000D01*
X122170000Y-109710000D01*
X122130000Y-109742000D01*
X122125000Y-109742000D01*
X122130000Y-109738000D01*
X122090000Y-109757000D01*
X122010000Y-109810000D01*
X121970000Y-109842000D01*
X121962000Y-109842000D01*
X121970000Y-109835000D01*
X121920000Y-109864000D01*
X121811000Y-109928000D01*
X121775000Y-109949000D01*
X121688000Y-110005000D01*
X121680000Y-110013000D01*
X116830000Y-110013000D01*
X117834000Y-109635000D01*
X122309000Y-109635000D01*
X122383000Y-109589000D01*
X122558000Y-109474000D01*
X122615000Y-109436000D01*
X122782000Y-109323000D01*
X122874000Y-109256000D01*
X122880000Y-109249000D01*
X122823000Y-109282000D01*
X122685000Y-109370000D01*
X122519000Y-109480000D01*
X122376000Y-109577000D01*
X122310000Y-109626000D01*
X122309000Y-109635000D01*
X117834000Y-109635000D01*
X118473000Y-109393000D01*
X118854000Y-109209000D01*
X122938000Y-109209000D01*
X123029000Y-109149000D01*
X123177000Y-109046000D01*
X123344000Y-108928000D01*
X123455000Y-108846000D01*
X123604000Y-108734000D01*
X123678000Y-108674000D01*
X123680000Y-108671000D01*
X123623000Y-108709000D01*
X123480000Y-108809000D01*
X123295000Y-108941000D01*
X123112000Y-109074000D01*
X122975000Y-109175000D01*
X122940000Y-109202000D01*
X122938000Y-109209000D01*
X118854000Y-109209000D01*
X120002000Y-108653000D01*
X123700000Y-108653000D01*
X123721000Y-108644000D01*
X123799000Y-108586000D01*
X123959000Y-108459000D01*
X124162000Y-108297000D01*
X124340000Y-108151000D01*
X124459000Y-108049000D01*
X124482000Y-108027000D01*
X124447000Y-108049000D01*
X124324000Y-108145000D01*
X124280000Y-108182000D01*
X124071000Y-108351000D01*
X123882000Y-108502000D01*
X123875000Y-108507000D01*
X123748000Y-108609000D01*
X123700000Y-108653000D01*
X120002000Y-108653000D01*
X120038000Y-108636000D01*
X121101000Y-107995000D01*
X124520000Y-107995000D01*
X124571000Y-107958000D01*
X124690000Y-107857000D01*
X124828000Y-107732000D01*
X124869000Y-107693000D01*
X124883000Y-107676000D01*
X124796000Y-107747000D01*
X124745000Y-107791000D01*
X124599000Y-107919000D01*
X124523000Y-107990000D01*
X124520000Y-107995000D01*
X121101000Y-107995000D01*
X121516000Y-107744000D01*
X121860000Y-107491000D01*
X125097000Y-107491000D01*
X125180000Y-107418000D01*
X125340000Y-107269000D01*
X125566000Y-107050000D01*
X125813000Y-106807000D01*
X125840000Y-106780000D01*
X126384000Y-106220000D01*
X126881000Y-105667000D01*
X127376000Y-105072000D01*
X127866000Y-104445000D01*
X127875000Y-104420000D01*
X127825000Y-104476000D01*
X127718000Y-104612000D01*
X127708000Y-104625000D01*
X126654000Y-105898000D01*
X125450000Y-107148000D01*
X125260000Y-107330000D01*
X125120000Y-107465000D01*
X125097000Y-107491000D01*
X121860000Y-107491000D01*
X122907000Y-106719000D01*
X124212000Y-105558000D01*
X124881000Y-104875000D01*
X125295000Y-104390000D01*
X127891000Y-104390000D01*
X127892000Y-104395000D01*
X127948000Y-104330000D01*
X127979000Y-104288000D01*
X128029000Y-104210000D01*
X128028000Y-104205000D01*
X127972000Y-104271000D01*
X127941000Y-104312000D01*
X127891000Y-104390000D01*
X125295000Y-104390000D01*
X125516000Y-104130000D01*
X125524519Y-104120000D01*
X128089000Y-104120000D01*
X128089000Y-104130000D01*
X128159000Y-104035000D01*
X128286000Y-103852000D01*
X128397000Y-103690000D01*
X128561000Y-103447000D01*
X128649000Y-103312000D01*
X128677000Y-103263000D01*
X128666000Y-103270000D01*
X128612000Y-103343000D01*
X128505000Y-103500000D01*
X128465000Y-103560000D01*
X128313000Y-103785000D01*
X128177000Y-103986000D01*
X128161000Y-104010000D01*
X128089000Y-104120000D01*
X125524519Y-104120000D01*
X125999000Y-103563000D01*
X126220000Y-103250000D01*
X128678000Y-103250000D01*
X128710000Y-103210000D01*
X128763000Y-103130000D01*
X128782000Y-103090000D01*
X128750000Y-103130000D01*
X128697000Y-103210000D01*
X128678000Y-103250000D01*
X126220000Y-103250000D01*
X126340000Y-103080000D01*
X128786000Y-103080000D01*
X128830000Y-103020000D01*
X128915000Y-102885000D01*
X129014000Y-102722000D01*
X129053000Y-102654000D01*
X129056000Y-102640000D01*
X129054000Y-102640000D01*
X129012000Y-102699000D01*
X128940000Y-102815000D01*
X128848000Y-102964000D01*
X128804000Y-103035000D01*
X128786000Y-103080000D01*
X126340000Y-103080000D01*
X126667000Y-102617000D01*
X129065000Y-102617000D01*
X129066000Y-102620000D01*
X129108000Y-102562000D01*
X129155000Y-102485000D01*
X129278000Y-102271000D01*
X129357000Y-102124000D01*
X129374000Y-102080000D01*
X129332000Y-102141000D01*
X129254000Y-102275000D01*
X129158000Y-102446000D01*
X129101000Y-102545000D01*
X129065000Y-102617000D01*
X126667000Y-102617000D01*
X126988000Y-102161000D01*
X127047000Y-102060000D01*
X129389000Y-102060000D01*
X129428000Y-102000000D01*
X129460000Y-101940000D01*
X129507000Y-101837000D01*
X129511000Y-101820000D01*
X129472000Y-101880000D01*
X129440000Y-101940000D01*
X129393000Y-102043000D01*
X129389000Y-102060000D01*
X127047000Y-102060000D01*
X127197000Y-101800000D01*
X129530000Y-101800000D01*
X129568000Y-101735000D01*
X129656000Y-101565000D01*
X129761000Y-101358000D01*
X129875000Y-101126000D01*
X129953000Y-100964000D01*
X129975000Y-100909000D01*
X129939000Y-100970000D01*
X129852000Y-101138000D01*
X129744000Y-101351000D01*
X129630000Y-101583000D01*
X129553000Y-101745000D01*
X129530000Y-101800000D01*
X127197000Y-101800000D01*
X127757000Y-100830000D01*
X130002000Y-100830000D01*
X130032000Y-100791000D01*
X130060000Y-100740000D01*
X130112000Y-100631000D01*
X130118000Y-100610000D01*
X130088000Y-100649000D01*
X130060000Y-100700000D01*
X130008000Y-100809000D01*
X130002000Y-100830000D01*
X127757000Y-100830000D01*
X127844000Y-100680000D01*
X127895000Y-100570000D01*
X127897306Y-100565000D01*
X130122000Y-100565000D01*
X130122000Y-100570000D01*
X130150000Y-100537000D01*
X130160000Y-100520000D01*
X130198000Y-100435000D01*
X130198000Y-100430000D01*
X130170000Y-100463000D01*
X130160000Y-100480000D01*
X130122000Y-100565000D01*
X127897306Y-100565000D01*
X127978000Y-100390000D01*
X130201000Y-100390000D01*
X130229000Y-100362000D01*
X130230000Y-100360000D01*
X130259000Y-100290000D01*
X130231000Y-100319000D01*
X130230000Y-100320000D01*
X130201000Y-100390000D01*
X127978000Y-100390000D01*
X128043000Y-100250000D01*
X130263000Y-100250000D01*
X130291000Y-100209000D01*
X130321000Y-100150000D01*
X130370000Y-100035000D01*
X130377000Y-100010000D01*
X130352000Y-100047000D01*
X130302000Y-100150000D01*
X130266000Y-100239000D01*
X130263000Y-100250000D01*
X128043000Y-100250000D01*
X128173000Y-99970000D01*
X130381000Y-99970000D01*
X130400000Y-99960000D01*
X130419000Y-99910000D01*
X130400000Y-99920000D01*
X130381000Y-99970000D01*
X128173000Y-99970000D01*
X128215000Y-99880000D01*
X128226534Y-99855000D01*
X130426000Y-99855000D01*
X130426000Y-99880000D01*
X130459000Y-99816000D01*
X130509000Y-99698000D01*
X130562000Y-99556000D01*
X130574000Y-99507000D01*
X130543000Y-99564000D01*
X130501000Y-99665000D01*
X130445000Y-99806000D01*
X130426000Y-99855000D01*
X128226534Y-99855000D01*
X128418000Y-99440000D01*
X130591000Y-99440000D01*
X130594000Y-99464000D01*
X130597000Y-99460000D01*
X130629000Y-99380000D01*
X130626000Y-99356000D01*
X130623000Y-99360000D01*
X130591000Y-99440000D01*
X128418000Y-99440000D01*
X128474000Y-99320000D01*
X130646000Y-99320000D01*
X130677000Y-99256000D01*
X130719000Y-99147000D01*
X130764000Y-99010000D01*
X130773000Y-98967000D01*
X130745000Y-99024000D01*
X130712000Y-99111000D01*
X130663000Y-99248000D01*
X130647000Y-99291000D01*
X130646000Y-99320000D01*
X128474000Y-99320000D01*
X128562000Y-99129000D01*
X128651000Y-98880000D01*
X130801000Y-98880000D01*
X130808000Y-98878000D01*
X130839000Y-98802000D01*
X130901000Y-98626000D01*
X130931000Y-98539000D01*
X130997000Y-98334000D01*
X131035000Y-98208000D01*
X131038000Y-98191000D01*
X131015000Y-98245000D01*
X130957000Y-98405000D01*
X130928000Y-98490000D01*
X130849000Y-98723000D01*
X130811000Y-98841000D01*
X130801000Y-98880000D01*
X128651000Y-98880000D01*
X128937000Y-98080000D01*
X131063000Y-98080000D01*
X131080000Y-98070000D01*
X131097000Y-98000000D01*
X131080000Y-98010000D01*
X131063000Y-98080000D01*
X128937000Y-98080000D01*
X129009000Y-97880000D01*
X131123000Y-97880000D01*
X131140000Y-97870000D01*
X131157000Y-97800000D01*
X131140000Y-97810000D01*
X131123000Y-97880000D01*
X129009000Y-97880000D01*
X129056000Y-97750000D01*
X131162000Y-97750000D01*
X131180000Y-97723000D01*
X131212000Y-97623000D01*
X131227000Y-97559000D01*
X131219000Y-97557000D01*
X131200000Y-97610000D01*
X131166000Y-97727000D01*
X131162000Y-97750000D01*
X129056000Y-97750000D01*
X129138000Y-97520000D01*
X129156000Y-97448000D01*
X131242000Y-97448000D01*
X131252000Y-97475000D01*
X131254000Y-97436000D01*
X131242000Y-97448000D01*
X129156000Y-97448000D01*
X129174000Y-97380000D01*
X131263000Y-97380000D01*
X131280000Y-97370000D01*
X131297000Y-97300000D01*
X131280000Y-97310000D01*
X131263000Y-97380000D01*
X129174000Y-97380000D01*
X129213000Y-97228000D01*
X131302000Y-97228000D01*
X131312000Y-97255000D01*
X131314000Y-97216000D01*
X131302000Y-97228000D01*
X129213000Y-97228000D01*
X129234000Y-97148000D01*
X131322000Y-97148000D01*
X131332000Y-97175000D01*
X131334000Y-97136000D01*
X131322000Y-97148000D01*
X129234000Y-97148000D01*
X129254000Y-97068000D01*
X131342000Y-97068000D01*
X131352000Y-97095000D01*
X131354000Y-97056000D01*
X131342000Y-97068000D01*
X129254000Y-97068000D01*
X129275000Y-96988000D01*
X131362000Y-96988000D01*
X131372000Y-97015000D01*
X131374000Y-96976000D01*
X131362000Y-96988000D01*
X129275000Y-96988000D01*
X129296000Y-96908000D01*
X131382000Y-96908000D01*
X131392000Y-96935000D01*
X131394000Y-96896000D01*
X131382000Y-96908000D01*
X129296000Y-96908000D01*
X129313000Y-96840000D01*
X131402000Y-96840000D01*
X131420000Y-96809000D01*
X131431000Y-96770000D01*
X131457000Y-96657000D01*
X131458000Y-96640000D01*
X131440000Y-96672000D01*
X131429000Y-96710000D01*
X131403000Y-96823000D01*
X131402000Y-96840000D01*
X129313000Y-96840000D01*
X129383000Y-96570000D01*
X131464000Y-96570000D01*
X131474000Y-96577000D01*
X131480000Y-96560000D01*
X131496000Y-96470000D01*
X131486000Y-96463000D01*
X131480000Y-96480000D01*
X131464000Y-96570000D01*
X129383000Y-96570000D01*
X129432000Y-96380000D01*
X131503000Y-96380000D01*
X131513000Y-96405000D01*
X131513000Y-96355000D01*
X131503000Y-96380000D01*
X129432000Y-96380000D01*
X129456000Y-96288000D01*
X131522000Y-96288000D01*
X131532000Y-96315000D01*
X131534000Y-96276000D01*
X131522000Y-96288000D01*
X129456000Y-96288000D01*
X129479000Y-96200000D01*
X131543000Y-96200000D01*
X131553000Y-96225000D01*
X131553000Y-96175000D01*
X131543000Y-96200000D01*
X129479000Y-96200000D01*
X129504000Y-96100000D01*
X131563000Y-96100000D01*
X131573000Y-96125000D01*
X131573000Y-96075000D01*
X131563000Y-96100000D01*
X129504000Y-96100000D01*
X129530000Y-96000000D01*
X131583000Y-96000000D01*
X131593000Y-96025000D01*
X131593000Y-95975000D01*
X131583000Y-96000000D01*
X129530000Y-96000000D01*
X129559000Y-95890000D01*
X129560385Y-95884000D01*
X131604000Y-95884000D01*
X131604000Y-95890000D01*
X131612000Y-95927000D01*
X131613000Y-95925000D01*
X131614000Y-95865000D01*
X131604000Y-95884000D01*
X129560385Y-95884000D01*
X129565000Y-95864000D01*
X129579000Y-95780000D01*
X131623000Y-95780000D01*
X131633000Y-95805000D01*
X131633000Y-95755000D01*
X131623000Y-95780000D01*
X129579000Y-95780000D01*
X129595000Y-95680000D01*
X131643000Y-95680000D01*
X131653000Y-95705000D01*
X131653000Y-95655000D01*
X131643000Y-95680000D01*
X129595000Y-95680000D01*
X129613000Y-95570000D01*
X129614000Y-95564000D01*
X131664000Y-95564000D01*
X131664000Y-95570000D01*
X131672000Y-95607000D01*
X131673000Y-95605000D01*
X131674000Y-95545000D01*
X131664000Y-95564000D01*
X129614000Y-95564000D01*
X129633000Y-95450000D01*
X129633969Y-95444000D01*
X131684000Y-95444000D01*
X131684000Y-95450000D01*
X131692000Y-95487000D01*
X131693000Y-95485000D01*
X131694000Y-95425000D01*
X131684000Y-95444000D01*
X129633969Y-95444000D01*
X129654000Y-95320000D01*
X129656262Y-95306000D01*
X131705000Y-95306000D01*
X131705000Y-95320000D01*
X131712000Y-95361000D01*
X131714000Y-95355000D01*
X131714000Y-95285000D01*
X131705000Y-95306000D01*
X129656262Y-95306000D01*
X129675000Y-95190000D01*
X129675969Y-95184000D01*
X131724000Y-95184000D01*
X131724000Y-95190000D01*
X131732000Y-95227000D01*
X131733000Y-95225000D01*
X131734000Y-95165000D01*
X131724000Y-95184000D01*
X129675969Y-95184000D01*
X129696000Y-95060000D01*
X129698300Y-95046000D01*
X131745000Y-95046000D01*
X131745000Y-95060000D01*
X131752000Y-95101000D01*
X131754000Y-95095000D01*
X131754000Y-95025000D01*
X131745000Y-95046000D01*
X129698300Y-95046000D01*
X129719000Y-94920000D01*
X129721300Y-94906000D01*
X131765000Y-94906000D01*
X131765000Y-94920000D01*
X131772000Y-94961000D01*
X131774000Y-94955000D01*
X131774000Y-94885000D01*
X131765000Y-94906000D01*
X129721300Y-94906000D01*
X129742000Y-94780000D01*
X129744240Y-94766000D01*
X131785000Y-94766000D01*
X131785000Y-94780000D01*
X131792000Y-94821000D01*
X131794000Y-94815000D01*
X131794000Y-94745000D01*
X131785000Y-94766000D01*
X129744240Y-94766000D01*
X129766000Y-94630000D01*
X131805000Y-94630000D01*
X131811000Y-94682000D01*
X131814000Y-94675000D01*
X131814000Y-94595000D01*
X131806000Y-94608000D01*
X131805000Y-94630000D01*
X129766000Y-94630000D01*
X129794000Y-94460000D01*
X131825000Y-94460000D01*
X131831000Y-94515000D01*
X131834000Y-94505000D01*
X131834000Y-94415000D01*
X131826000Y-94431000D01*
X131825000Y-94460000D01*
X129794000Y-94460000D01*
X129823000Y-94280000D01*
X131845000Y-94280000D01*
X131851000Y-94335000D01*
X131854000Y-94325000D01*
X131854000Y-94235000D01*
X131846000Y-94251000D01*
X131845000Y-94280000D01*
X129823000Y-94280000D01*
X129841000Y-94170000D01*
X129848000Y-94100000D01*
X131865000Y-94100000D01*
X131871000Y-94155000D01*
X131874000Y-94145000D01*
X131874000Y-94055000D01*
X131866000Y-94071000D01*
X131865000Y-94100000D01*
X129848000Y-94100000D01*
X129870000Y-93890000D01*
X131886000Y-93890000D01*
X131891000Y-93955000D01*
X131894000Y-93945000D01*
X131894000Y-93845000D01*
X131887000Y-93853000D01*
X131886000Y-93890000D01*
X129870000Y-93890000D01*
X129889000Y-93700000D01*
X129892000Y-93660000D01*
X131906000Y-93660000D01*
X131910000Y-93728000D01*
X131914000Y-93715000D01*
X131914000Y-93605000D01*
X131907000Y-93615000D01*
X131906000Y-93660000D01*
X129892000Y-93660000D01*
X129907000Y-93370000D01*
X131927000Y-93370000D01*
X131930000Y-93457000D01*
X131934000Y-93445000D01*
X131935000Y-93308000D01*
X131935000Y-93305000D01*
X131928000Y-93304000D01*
X131927000Y-93370000D01*
X129907000Y-93370000D01*
X129927000Y-93020000D01*
X131947000Y-93020000D01*
X131950000Y-93120000D01*
X131955000Y-93105000D01*
X131955000Y-92943000D01*
X131955000Y-92935000D01*
X131949000Y-92931000D01*
X131947000Y-93020000D01*
X129927000Y-93020000D01*
X129957000Y-92468000D01*
X129953000Y-91940000D01*
X131969000Y-91940000D01*
X131970000Y-92229000D01*
X131971000Y-92399000D01*
X131973000Y-92436000D01*
X131975000Y-92345000D01*
X131977000Y-91998000D01*
X131976000Y-91630000D01*
X131975000Y-91535000D01*
X131973000Y-91441000D01*
X131971000Y-91493000D01*
X131970000Y-91676000D01*
X131969000Y-91940000D01*
X129953000Y-91940000D01*
X129948000Y-91185000D01*
X129929000Y-90910000D01*
X131947000Y-90910000D01*
X131950000Y-90997000D01*
X131954000Y-90985000D01*
X131955000Y-90848000D01*
X131955000Y-90845000D01*
X131948000Y-90844000D01*
X131947000Y-90910000D01*
X129929000Y-90910000D01*
X129906000Y-90580000D01*
X131927000Y-90580000D01*
X131930000Y-90670000D01*
X131935000Y-90655000D01*
X131935000Y-90505000D01*
X131928000Y-90506000D01*
X131927000Y-90580000D01*
X129906000Y-90580000D01*
X129885000Y-90270000D01*
X131906000Y-90270000D01*
X131910000Y-90347000D01*
X131914000Y-90335000D01*
X131915000Y-90215000D01*
X131907000Y-90218000D01*
X131906000Y-90270000D01*
X129885000Y-90270000D01*
X129869000Y-90040000D01*
X131885000Y-90040000D01*
X131891000Y-90095000D01*
X131894000Y-90085000D01*
X131894000Y-89995000D01*
X131886000Y-90011000D01*
X131885000Y-90040000D01*
X129869000Y-90040000D01*
X129862000Y-89942000D01*
X129861000Y-89930000D01*
X129847000Y-89840000D01*
X131865000Y-89840000D01*
X131871000Y-89895000D01*
X131874000Y-89885000D01*
X131874000Y-89795000D01*
X131866000Y-89811000D01*
X131865000Y-89840000D01*
X129847000Y-89840000D01*
X129817000Y-89640000D01*
X131845000Y-89640000D01*
X131851000Y-89695000D01*
X131854000Y-89685000D01*
X131854000Y-89595000D01*
X131846000Y-89611000D01*
X131845000Y-89640000D01*
X129817000Y-89640000D01*
X129788000Y-89450000D01*
X131825000Y-89450000D01*
X131831000Y-89502000D01*
X131834000Y-89495000D01*
X131834000Y-89415000D01*
X131826000Y-89428000D01*
X131825000Y-89450000D01*
X129788000Y-89450000D01*
X129764000Y-89290000D01*
X129763100Y-89284000D01*
X131804000Y-89284000D01*
X131804000Y-89290000D01*
X131812000Y-89327000D01*
X131813000Y-89325000D01*
X131814000Y-89265000D01*
X131804000Y-89284000D01*
X129763100Y-89284000D01*
X129743000Y-89150000D01*
X129742100Y-89144000D01*
X131784000Y-89144000D01*
X131784000Y-89150000D01*
X131792000Y-89187000D01*
X131793000Y-89185000D01*
X131794000Y-89125000D01*
X131784000Y-89144000D01*
X129742100Y-89144000D01*
X129722000Y-89010000D01*
X129721080Y-89004000D01*
X131764000Y-89004000D01*
X131764000Y-89010000D01*
X131772000Y-89047000D01*
X131773000Y-89045000D01*
X131774000Y-88985000D01*
X131764000Y-89004000D01*
X129721080Y-89004000D01*
X129699000Y-88860000D01*
X129696900Y-88846000D01*
X131745000Y-88846000D01*
X131745000Y-88860000D01*
X131752000Y-88901000D01*
X131754000Y-88895000D01*
X131754000Y-88825000D01*
X131745000Y-88846000D01*
X129696900Y-88846000D01*
X129678000Y-88720000D01*
X129675846Y-88706000D01*
X131725000Y-88706000D01*
X131725000Y-88720000D01*
X131732000Y-88761000D01*
X131734000Y-88755000D01*
X131734000Y-88685000D01*
X131725000Y-88706000D01*
X129675846Y-88706000D01*
X129658000Y-88590000D01*
X129657073Y-88584000D01*
X131704000Y-88584000D01*
X131704000Y-88590000D01*
X131712000Y-88627000D01*
X131713000Y-88625000D01*
X131714000Y-88565000D01*
X131704000Y-88584000D01*
X129657073Y-88584000D01*
X129641000Y-88480000D01*
X131683000Y-88480000D01*
X131693000Y-88505000D01*
X131693000Y-88455000D01*
X131683000Y-88480000D01*
X129641000Y-88480000D01*
X129623000Y-88360000D01*
X131663000Y-88360000D01*
X131673000Y-88385000D01*
X131673000Y-88335000D01*
X131663000Y-88360000D01*
X129623000Y-88360000D01*
X129607000Y-88250000D01*
X129606000Y-88244000D01*
X131644000Y-88244000D01*
X131644000Y-88250000D01*
X131652000Y-88287000D01*
X131653000Y-88285000D01*
X131654000Y-88225000D01*
X131644000Y-88244000D01*
X129606000Y-88244000D01*
X129580000Y-88140000D01*
X131623000Y-88140000D01*
X131633000Y-88165000D01*
X131633000Y-88115000D01*
X131623000Y-88140000D01*
X129580000Y-88140000D01*
X129518000Y-87887000D01*
X131586000Y-87887000D01*
X131587000Y-87960000D01*
X131591000Y-87989000D01*
X131610000Y-88070000D01*
X131614000Y-88073000D01*
X131613000Y-88000000D01*
X131609000Y-87971000D01*
X131590000Y-87890000D01*
X131586000Y-87887000D01*
X129518000Y-87887000D01*
X129468000Y-87686000D01*
X131547000Y-87686000D01*
X131549000Y-87757000D01*
X131552000Y-87778000D01*
X131572000Y-87851000D01*
X131575000Y-87852000D01*
X131573000Y-87780000D01*
X131570000Y-87760000D01*
X131550000Y-87687000D01*
X131547000Y-87686000D01*
X129468000Y-87686000D01*
X129454000Y-87628000D01*
X131522000Y-87628000D01*
X131532000Y-87655000D01*
X131534000Y-87616000D01*
X131522000Y-87628000D01*
X129454000Y-87628000D01*
X129432000Y-87540000D01*
X131503000Y-87540000D01*
X131513000Y-87565000D01*
X131513000Y-87515000D01*
X131503000Y-87540000D01*
X129432000Y-87540000D01*
X129409000Y-87448000D01*
X131482000Y-87448000D01*
X131492000Y-87475000D01*
X131494000Y-87436000D01*
X131482000Y-87448000D01*
X129409000Y-87448000D01*
X129387000Y-87360000D01*
X131463000Y-87360000D01*
X131473000Y-87385000D01*
X131473000Y-87335000D01*
X131463000Y-87360000D01*
X129387000Y-87360000D01*
X129365000Y-87268000D01*
X131442000Y-87268000D01*
X131452000Y-87295000D01*
X131454000Y-87256000D01*
X131442000Y-87268000D01*
X129365000Y-87268000D01*
X129315000Y-87067000D01*
X131406000Y-87067000D01*
X131409000Y-87137000D01*
X131411000Y-87149000D01*
X131432000Y-87213000D01*
X131434000Y-87213000D01*
X131431000Y-87143000D01*
X131429000Y-87131000D01*
X131408000Y-87067000D01*
X131406000Y-87067000D01*
X129315000Y-87067000D01*
X129256000Y-86826000D01*
X131347000Y-86826000D01*
X131355000Y-86897000D01*
X131363000Y-86937000D01*
X131390000Y-87026000D01*
X131396000Y-87031000D01*
X131389000Y-86959000D01*
X131380000Y-86920000D01*
X131353000Y-86831000D01*
X131347000Y-86826000D01*
X129256000Y-86826000D01*
X129241000Y-86768000D01*
X131322000Y-86768000D01*
X131332000Y-86795000D01*
X131334000Y-86756000D01*
X131322000Y-86768000D01*
X129241000Y-86768000D01*
X129222000Y-86688000D01*
X131302000Y-86688000D01*
X131312000Y-86715000D01*
X131314000Y-86676000D01*
X131302000Y-86688000D01*
X129222000Y-86688000D01*
X129196000Y-86585000D01*
X129176000Y-86527000D01*
X131267000Y-86527000D01*
X131271000Y-86589000D01*
X131293000Y-86633000D01*
X131289000Y-86571000D01*
X131267000Y-86527000D01*
X129176000Y-86527000D01*
X129156000Y-86468000D01*
X131242000Y-86468000D01*
X131252000Y-86495000D01*
X131254000Y-86456000D01*
X131242000Y-86468000D01*
X129156000Y-86468000D01*
X129072000Y-86227000D01*
X131187000Y-86227000D01*
X131194000Y-86297000D01*
X131202000Y-86328000D01*
X131229000Y-86410000D01*
X131233000Y-86413000D01*
X131226000Y-86343000D01*
X131218000Y-86312000D01*
X131191000Y-86230000D01*
X131187000Y-86227000D01*
X129072000Y-86227000D01*
X129052000Y-86168000D01*
X131162000Y-86168000D01*
X131172000Y-86195000D01*
X131174000Y-86156000D01*
X131162000Y-86168000D01*
X129052000Y-86168000D01*
X128955000Y-85887000D01*
X131087000Y-85887000D01*
X131091000Y-85949000D01*
X131113000Y-85993000D01*
X131109000Y-85931000D01*
X131087000Y-85887000D01*
X128955000Y-85887000D01*
X128845000Y-85568000D01*
X130985000Y-85568000D01*
X130996000Y-85637000D01*
X131002000Y-85658000D01*
X131031000Y-85731000D01*
X131035000Y-85732000D01*
X131024000Y-85663000D01*
X131018000Y-85642000D01*
X130989000Y-85569000D01*
X130985000Y-85568000D01*
X128845000Y-85568000D01*
X128719000Y-85205000D01*
X130869000Y-85205000D01*
X130883000Y-85275000D01*
X130904000Y-85346000D01*
X130945000Y-85455000D01*
X130956000Y-85471000D01*
X130942000Y-85400000D01*
X130920000Y-85330000D01*
X130879000Y-85221000D01*
X130869000Y-85205000D01*
X128719000Y-85205000D01*
X128637000Y-84967000D01*
X128564000Y-84805000D01*
X130728000Y-84805000D01*
X130743000Y-84875000D01*
X130762000Y-84938000D01*
X130803000Y-85042000D01*
X130812000Y-85055000D01*
X130797000Y-84985000D01*
X130778000Y-84922000D01*
X130737000Y-84818000D01*
X130728000Y-84805000D01*
X128564000Y-84805000D01*
X128438000Y-84525000D01*
X130628000Y-84525000D01*
X130643000Y-84595000D01*
X130662000Y-84658000D01*
X130703000Y-84762000D01*
X130712000Y-84775000D01*
X130697000Y-84705000D01*
X130678000Y-84642000D01*
X130637000Y-84538000D01*
X130628000Y-84525000D01*
X128438000Y-84525000D01*
X128397000Y-84434000D01*
X130581000Y-84434000D01*
X130592000Y-84469000D01*
X130614000Y-84492000D01*
X130602000Y-84447000D01*
X130581000Y-84434000D01*
X128397000Y-84434000D01*
X128352000Y-84334000D01*
X130541000Y-84334000D01*
X130552000Y-84369000D01*
X130574000Y-84392000D01*
X130562000Y-84347000D01*
X130541000Y-84334000D01*
X128352000Y-84334000D01*
X128307000Y-84234000D01*
X130501000Y-84234000D01*
X130512000Y-84269000D01*
X130534000Y-84292000D01*
X130522000Y-84247000D01*
X130501000Y-84234000D01*
X128307000Y-84234000D01*
X128262000Y-84134000D01*
X130461000Y-84134000D01*
X130472000Y-84169000D01*
X130494000Y-84192000D01*
X130482000Y-84147000D01*
X130461000Y-84134000D01*
X128262000Y-84134000D01*
X128045000Y-83651000D01*
X130264000Y-83651000D01*
X130301000Y-83751000D01*
X130365000Y-83903000D01*
X130425000Y-84040000D01*
X130453000Y-84094000D01*
X130432000Y-84025000D01*
X130382000Y-83896000D01*
X130317000Y-83743000D01*
X130270000Y-83647000D01*
X130264000Y-83651000D01*
X128045000Y-83651000D01*
X127961000Y-83464000D01*
X130181000Y-83464000D01*
X130206000Y-83532000D01*
X130247000Y-83605000D01*
X130255000Y-83612000D01*
X130233000Y-83548000D01*
X130222000Y-83527000D01*
X130183000Y-83464000D01*
X130181000Y-83464000D01*
X127961000Y-83464000D01*
X127934000Y-83404000D01*
X127092000Y-81911000D01*
X126912000Y-81630000D01*
X125891000Y-80206000D01*
X125254000Y-79470000D01*
X127856000Y-79470000D01*
X127904000Y-79540000D01*
X127979000Y-79646000D01*
X128104000Y-79823000D01*
X128144000Y-79880000D01*
X128665000Y-80658000D01*
X129173000Y-81495000D01*
X129637000Y-82335000D01*
X130025000Y-83125000D01*
X130070000Y-83226000D01*
X130140000Y-83376000D01*
X130173000Y-83434000D01*
X130149000Y-83365000D01*
X130081000Y-83206000D01*
X130073000Y-83188000D01*
X129722000Y-82463000D01*
X129302000Y-81683000D01*
X128849000Y-80915000D01*
X128638000Y-80580000D01*
X128479000Y-80340000D01*
X128298000Y-80074000D01*
X128123000Y-79822000D01*
X127983000Y-79626000D01*
X127909000Y-79530000D01*
X127856000Y-79470000D01*
X125254000Y-79470000D01*
X124751000Y-78889000D01*
X124749000Y-78887000D01*
X127416000Y-78887000D01*
X127438000Y-78929000D01*
X127521000Y-79041000D01*
X127660000Y-79221000D01*
X127747000Y-79335000D01*
X127829000Y-79438000D01*
X127852000Y-79460000D01*
X127815000Y-79403000D01*
X127710000Y-79260000D01*
X127651000Y-79182000D01*
X127518000Y-79009000D01*
X127430000Y-78902000D01*
X127416000Y-78887000D01*
X124749000Y-78887000D01*
X123500000Y-77684000D01*
X122223000Y-76662000D01*
X125372000Y-76662000D01*
X125410000Y-76706000D01*
X125544000Y-76843000D01*
X125701000Y-77000000D01*
X126230000Y-77542000D01*
X126685000Y-78036000D01*
X127105000Y-78525000D01*
X127259000Y-78710000D01*
X127365000Y-78831000D01*
X127393000Y-78860000D01*
X127355000Y-78806000D01*
X127249000Y-78672000D01*
X127227000Y-78645000D01*
X126828000Y-78175000D01*
X126373000Y-77671000D01*
X125911000Y-77185000D01*
X125490000Y-76769000D01*
X125438000Y-76720000D01*
X125372000Y-76662000D01*
X122223000Y-76662000D01*
X122142000Y-76597000D01*
X121127000Y-75926000D01*
X124540000Y-75926000D01*
X124615000Y-75997000D01*
X124758000Y-76126000D01*
X124924000Y-76275000D01*
X125071000Y-76403000D01*
X125154000Y-76474000D01*
X125160000Y-76478000D01*
X125118000Y-76431000D01*
X125020000Y-76337000D01*
X124899000Y-76227000D01*
X124752000Y-76098000D01*
X124621000Y-75986000D01*
X124542000Y-75923000D01*
X124540000Y-75926000D01*
X121127000Y-75926000D01*
X120685000Y-75634000D01*
X120560000Y-75560000D01*
X119451000Y-74961000D01*
X123317000Y-74961000D01*
X123353000Y-74994000D01*
X123477000Y-75094000D01*
X123650000Y-75228000D01*
X123835000Y-75370000D01*
X123926000Y-75438000D01*
X123957000Y-75456000D01*
X123971000Y-75456000D01*
X124025000Y-75508000D01*
X124146000Y-75613000D01*
X124261000Y-75709000D01*
X124416000Y-75836000D01*
X124483000Y-75889000D01*
X124500000Y-75895000D01*
X124500000Y-75892000D01*
X124446000Y-75843000D01*
X124318000Y-75734000D01*
X124166000Y-75607000D01*
X124038000Y-75504000D01*
X124010000Y-75482000D01*
X123971000Y-75456000D01*
X123957000Y-75456000D01*
X123960000Y-75451000D01*
X123904000Y-75403000D01*
X123767000Y-75295000D01*
X123596000Y-75163000D01*
X123437000Y-75044000D01*
X123390000Y-75010000D01*
X123317000Y-74961000D01*
X119451000Y-74961000D01*
X119368000Y-74915000D01*
X118379000Y-74473000D01*
X122612000Y-74473000D01*
X122637000Y-74497000D01*
X122777000Y-74599000D01*
X122960000Y-74728000D01*
X123159000Y-74866000D01*
X123259000Y-74935000D01*
X123295000Y-74956000D01*
X123300000Y-74952000D01*
X123242000Y-74905000D01*
X123101000Y-74802000D01*
X122925000Y-74678000D01*
X122764000Y-74568000D01*
X122710000Y-74533000D01*
X122612000Y-74473000D01*
X118379000Y-74473000D01*
X118129000Y-74361000D01*
X117164000Y-73999000D01*
X116855000Y-73886000D01*
X116655000Y-73795000D01*
X116519000Y-73703000D01*
X116469000Y-73655000D01*
X121270000Y-73655000D01*
X121345000Y-73702000D01*
X121512000Y-73803000D01*
X121620000Y-73866000D01*
X121905000Y-74037000D01*
X122199000Y-74220000D01*
X122260000Y-74259000D01*
X122471000Y-74394000D01*
X122569000Y-74453000D01*
X122576000Y-74449000D01*
X122569000Y-74443000D01*
X122474000Y-74374000D01*
X122297000Y-74258000D01*
X122069000Y-74115000D01*
X121821000Y-73964000D01*
X121586000Y-73823000D01*
X121396000Y-73713000D01*
X121283000Y-73653000D01*
X121270000Y-73655000D01*
X116469000Y-73655000D01*
X116421000Y-73607000D01*
X116386000Y-73549000D01*
X121080000Y-73549000D01*
X121136000Y-73588000D01*
X121155000Y-73599000D01*
X121231000Y-73637000D01*
X121240000Y-73630000D01*
X121183000Y-73592000D01*
X121160000Y-73580000D01*
X121084000Y-73548000D01*
X121080000Y-73549000D01*
X116386000Y-73549000D01*
X116223000Y-73282000D01*
X116215000Y-73231000D01*
X120486000Y-73231000D01*
X120556000Y-73273000D01*
X120707000Y-73356000D01*
X120881000Y-73449000D01*
X121017000Y-73520000D01*
X121059000Y-73539000D01*
X121049000Y-73522000D01*
X120978000Y-73479000D01*
X120831000Y-73401000D01*
X120664000Y-73314000D01*
X120531000Y-73248000D01*
X120486000Y-73231000D01*
X116215000Y-73231000D01*
X116164000Y-72922000D01*
X119870000Y-72922000D01*
X119920000Y-72954000D01*
X120070000Y-73034000D01*
X120140000Y-73070000D01*
X120326000Y-73162000D01*
X120438000Y-73214000D01*
X120450000Y-73218000D01*
X120400000Y-73186000D01*
X120250000Y-73106000D01*
X120180000Y-73070000D01*
X119994000Y-72978000D01*
X119882000Y-72926000D01*
X119870000Y-72922000D01*
X116164000Y-72922000D01*
X116163000Y-72917000D01*
X116183000Y-72822000D01*
X119650000Y-72822000D01*
X119686000Y-72851000D01*
X119720000Y-72870000D01*
X119817000Y-72915000D01*
X119830000Y-72918000D01*
X119794000Y-72889000D01*
X119760000Y-72870000D01*
X119663000Y-72825000D01*
X119650000Y-72822000D01*
X116183000Y-72822000D01*
X116238000Y-72566000D01*
X119048000Y-72566000D01*
X119106000Y-72598000D01*
X119252000Y-72666000D01*
X119424000Y-72742000D01*
X119564000Y-72801000D01*
X119610000Y-72817000D01*
X119579000Y-72791000D01*
X119570000Y-72786000D01*
X119454000Y-72731000D01*
X119287000Y-72658000D01*
X119130000Y-72594000D01*
X119049000Y-72565000D01*
X119048000Y-72566000D01*
X116238000Y-72566000D01*
X116240000Y-72554000D01*
X116261000Y-72521000D01*
X118950000Y-72521000D01*
X118960000Y-72540000D01*
X119010000Y-72559000D01*
X119000000Y-72540000D01*
X118950000Y-72521000D01*
X116261000Y-72521000D01*
X116415000Y-72279000D01*
X116432000Y-72266000D01*
X118288000Y-72266000D01*
X118348000Y-72295000D01*
X118499000Y-72359000D01*
X118681000Y-72434000D01*
X118837000Y-72494000D01*
X118905000Y-72518000D01*
X118920000Y-72511000D01*
X118855000Y-72480000D01*
X118699000Y-72417000D01*
X118513000Y-72344000D01*
X118356000Y-72286000D01*
X118288000Y-72266000D01*
X116432000Y-72266000D01*
X116729000Y-72043000D01*
X117121000Y-71947000D01*
X117130000Y-71947000D01*
X117310000Y-71937000D01*
X117749000Y-72087000D01*
X117986000Y-72167000D01*
X118148000Y-72219000D01*
X118195000Y-72232000D01*
X118135000Y-72204000D01*
X118015000Y-72160000D01*
X117705000Y-72029000D01*
X117509000Y-71884000D01*
X117382000Y-71692000D01*
X117381000Y-71690000D01*
X117309000Y-71368000D01*
X117381000Y-71058000D01*
X117584000Y-70802000D01*
X117686000Y-70731000D01*
X117917000Y-70649000D01*
X118155000Y-70636000D01*
X118167000Y-70638000D01*
X118303000Y-70671000D01*
X118325000Y-70678000D01*
X118339000Y-70667000D01*
X118250000Y-70577000D01*
X118027000Y-70271000D01*
X117936000Y-69922000D01*
X117973000Y-69570000D01*
X118131000Y-69250000D01*
X118407000Y-69000000D01*
X118476000Y-68962000D01*
X118755000Y-68869000D01*
X118935000Y-68857000D01*
X119044000Y-68862000D01*
G37*
%TD*%
D11*
%TO.C,D1*%
X134000000Y-92500000D03*
D12*
X131460000Y-92500000D03*
%TD*%
D13*
%TO.C,REF\u002A\u002A*%
X110986000Y-72099000D03*
D14*
X134500000Y-92000000D03*
D15*
X131000000Y-92229000D03*
%TD*%
D11*
%TO.C,D2*%
X88000000Y-92500000D03*
D12*
X90540000Y-92500000D03*
%TD*%
D11*
%TO.C,D3*%
X111000000Y-115000000D03*
D12*
X111000000Y-112460000D03*
%TD*%
M02*
