%TF.GenerationSoftware,KiCad,Pcbnew,9.0.5*%
%TF.CreationDate,2025-11-23T13:21:57+01:00*%
%TF.ProjectId,unicorn,756e6963-6f72-46e2-9e6b-696361645f70,rev?*%
%TF.SameCoordinates,Original*%
%TF.FileFunction,Legend,Bot*%
%TF.FilePolarity,Positive*%
%FSLAX46Y46*%
G04 Gerber Fmt 4.6, Leading zero omitted, Abs format (unit mm)*
G04 Created by KiCad (PCBNEW 9.0.5) date 2025-11-23 13:21:57*
%MOMM*%
%LPD*%
G01*
G04 APERTURE LIST*
%ADD10C,0.300000*%
%ADD11C,0.150000*%
%ADD12C,0.187500*%
%ADD13C,0.120000*%
%ADD14C,0.000000*%
G04 APERTURE END LIST*
D10*
X125326441Y-85800828D02*
X125326441Y-84300828D01*
X125326441Y-84300828D02*
X124850251Y-84300828D01*
X124850251Y-84300828D02*
X124564536Y-84372257D01*
X124564536Y-84372257D02*
X124374060Y-84515114D01*
X124374060Y-84515114D02*
X124278822Y-84657971D01*
X124278822Y-84657971D02*
X124183584Y-84943685D01*
X124183584Y-84943685D02*
X124183584Y-85157971D01*
X124183584Y-85157971D02*
X124278822Y-85443685D01*
X124278822Y-85443685D02*
X124374060Y-85586542D01*
X124374060Y-85586542D02*
X124564536Y-85729400D01*
X124564536Y-85729400D02*
X124850251Y-85800828D01*
X124850251Y-85800828D02*
X125326441Y-85800828D01*
X122564536Y-85729400D02*
X122755012Y-85800828D01*
X122755012Y-85800828D02*
X123135965Y-85800828D01*
X123135965Y-85800828D02*
X123326441Y-85729400D01*
X123326441Y-85729400D02*
X123421679Y-85586542D01*
X123421679Y-85586542D02*
X123421679Y-85015114D01*
X123421679Y-85015114D02*
X123326441Y-84872257D01*
X123326441Y-84872257D02*
X123135965Y-84800828D01*
X123135965Y-84800828D02*
X122755012Y-84800828D01*
X122755012Y-84800828D02*
X122564536Y-84872257D01*
X122564536Y-84872257D02*
X122469298Y-85015114D01*
X122469298Y-85015114D02*
X122469298Y-85157971D01*
X122469298Y-85157971D02*
X123421679Y-85300828D01*
X120755012Y-85729400D02*
X120945488Y-85800828D01*
X120945488Y-85800828D02*
X121326441Y-85800828D01*
X121326441Y-85800828D02*
X121516917Y-85729400D01*
X121516917Y-85729400D02*
X121612155Y-85657971D01*
X121612155Y-85657971D02*
X121707393Y-85515114D01*
X121707393Y-85515114D02*
X121707393Y-85086542D01*
X121707393Y-85086542D02*
X121612155Y-84943685D01*
X121612155Y-84943685D02*
X121516917Y-84872257D01*
X121516917Y-84872257D02*
X121326441Y-84800828D01*
X121326441Y-84800828D02*
X120945488Y-84800828D01*
X120945488Y-84800828D02*
X120755012Y-84872257D01*
X119612155Y-85800828D02*
X119802631Y-85729400D01*
X119802631Y-85729400D02*
X119897869Y-85657971D01*
X119897869Y-85657971D02*
X119993107Y-85515114D01*
X119993107Y-85515114D02*
X119993107Y-85086542D01*
X119993107Y-85086542D02*
X119897869Y-84943685D01*
X119897869Y-84943685D02*
X119802631Y-84872257D01*
X119802631Y-84872257D02*
X119612155Y-84800828D01*
X119612155Y-84800828D02*
X119326440Y-84800828D01*
X119326440Y-84800828D02*
X119135964Y-84872257D01*
X119135964Y-84872257D02*
X119040726Y-84943685D01*
X119040726Y-84943685D02*
X118945488Y-85086542D01*
X118945488Y-85086542D02*
X118945488Y-85515114D01*
X118945488Y-85515114D02*
X119040726Y-85657971D01*
X119040726Y-85657971D02*
X119135964Y-85729400D01*
X119135964Y-85729400D02*
X119326440Y-85800828D01*
X119326440Y-85800828D02*
X119612155Y-85800828D01*
X118088345Y-85800828D02*
X118088345Y-84800828D01*
X118088345Y-85086542D02*
X117993107Y-84943685D01*
X117993107Y-84943685D02*
X117897869Y-84872257D01*
X117897869Y-84872257D02*
X117707393Y-84800828D01*
X117707393Y-84800828D02*
X117516916Y-84800828D01*
X115993107Y-85800828D02*
X115993107Y-85015114D01*
X115993107Y-85015114D02*
X116088345Y-84872257D01*
X116088345Y-84872257D02*
X116278821Y-84800828D01*
X116278821Y-84800828D02*
X116659774Y-84800828D01*
X116659774Y-84800828D02*
X116850250Y-84872257D01*
X115993107Y-85729400D02*
X116183583Y-85800828D01*
X116183583Y-85800828D02*
X116659774Y-85800828D01*
X116659774Y-85800828D02*
X116850250Y-85729400D01*
X116850250Y-85729400D02*
X116945488Y-85586542D01*
X116945488Y-85586542D02*
X116945488Y-85443685D01*
X116945488Y-85443685D02*
X116850250Y-85300828D01*
X116850250Y-85300828D02*
X116659774Y-85229400D01*
X116659774Y-85229400D02*
X116183583Y-85229400D01*
X116183583Y-85229400D02*
X115993107Y-85157971D01*
X115326440Y-84800828D02*
X114564536Y-84800828D01*
X115040726Y-84300828D02*
X115040726Y-85586542D01*
X115040726Y-85586542D02*
X114945488Y-85729400D01*
X114945488Y-85729400D02*
X114755012Y-85800828D01*
X114755012Y-85800828D02*
X114564536Y-85800828D01*
X113135964Y-85729400D02*
X113326440Y-85800828D01*
X113326440Y-85800828D02*
X113707393Y-85800828D01*
X113707393Y-85800828D02*
X113897869Y-85729400D01*
X113897869Y-85729400D02*
X113993107Y-85586542D01*
X113993107Y-85586542D02*
X113993107Y-85015114D01*
X113993107Y-85015114D02*
X113897869Y-84872257D01*
X113897869Y-84872257D02*
X113707393Y-84800828D01*
X113707393Y-84800828D02*
X113326440Y-84800828D01*
X113326440Y-84800828D02*
X113135964Y-84872257D01*
X113135964Y-84872257D02*
X113040726Y-85015114D01*
X113040726Y-85015114D02*
X113040726Y-85157971D01*
X113040726Y-85157971D02*
X113993107Y-85300828D01*
X110945487Y-84800828D02*
X110183583Y-84800828D01*
X110659773Y-85800828D02*
X110659773Y-84515114D01*
X110659773Y-84515114D02*
X110564535Y-84372257D01*
X110564535Y-84372257D02*
X110374059Y-84300828D01*
X110374059Y-84300828D02*
X110183583Y-84300828D01*
X109516916Y-85800828D02*
X109516916Y-84800828D01*
X109516916Y-85086542D02*
X109421678Y-84943685D01*
X109421678Y-84943685D02*
X109326440Y-84872257D01*
X109326440Y-84872257D02*
X109135964Y-84800828D01*
X109135964Y-84800828D02*
X108945487Y-84800828D01*
X107993107Y-85800828D02*
X108183583Y-85729400D01*
X108183583Y-85729400D02*
X108278821Y-85657971D01*
X108278821Y-85657971D02*
X108374059Y-85515114D01*
X108374059Y-85515114D02*
X108374059Y-85086542D01*
X108374059Y-85086542D02*
X108278821Y-84943685D01*
X108278821Y-84943685D02*
X108183583Y-84872257D01*
X108183583Y-84872257D02*
X107993107Y-84800828D01*
X107993107Y-84800828D02*
X107707392Y-84800828D01*
X107707392Y-84800828D02*
X107516916Y-84872257D01*
X107516916Y-84872257D02*
X107421678Y-84943685D01*
X107421678Y-84943685D02*
X107326440Y-85086542D01*
X107326440Y-85086542D02*
X107326440Y-85515114D01*
X107326440Y-85515114D02*
X107421678Y-85657971D01*
X107421678Y-85657971D02*
X107516916Y-85729400D01*
X107516916Y-85729400D02*
X107707392Y-85800828D01*
X107707392Y-85800828D02*
X107993107Y-85800828D01*
X106469297Y-84800828D02*
X106469297Y-85800828D01*
X106469297Y-84943685D02*
X106374059Y-84872257D01*
X106374059Y-84872257D02*
X106183583Y-84800828D01*
X106183583Y-84800828D02*
X105897868Y-84800828D01*
X105897868Y-84800828D02*
X105707392Y-84872257D01*
X105707392Y-84872257D02*
X105612154Y-85015114D01*
X105612154Y-85015114D02*
X105612154Y-85800828D01*
X104945487Y-84800828D02*
X104183583Y-84800828D01*
X104659773Y-84300828D02*
X104659773Y-85586542D01*
X104659773Y-85586542D02*
X104564535Y-85729400D01*
X104564535Y-85729400D02*
X104374059Y-85800828D01*
X104374059Y-85800828D02*
X104183583Y-85800828D01*
X102088344Y-85729400D02*
X101897868Y-85800828D01*
X101897868Y-85800828D02*
X101516916Y-85800828D01*
X101516916Y-85800828D02*
X101326439Y-85729400D01*
X101326439Y-85729400D02*
X101231201Y-85586542D01*
X101231201Y-85586542D02*
X101231201Y-85515114D01*
X101231201Y-85515114D02*
X101326439Y-85372257D01*
X101326439Y-85372257D02*
X101516916Y-85300828D01*
X101516916Y-85300828D02*
X101802630Y-85300828D01*
X101802630Y-85300828D02*
X101993106Y-85229400D01*
X101993106Y-85229400D02*
X102088344Y-85086542D01*
X102088344Y-85086542D02*
X102088344Y-85015114D01*
X102088344Y-85015114D02*
X101993106Y-84872257D01*
X101993106Y-84872257D02*
X101802630Y-84800828D01*
X101802630Y-84800828D02*
X101516916Y-84800828D01*
X101516916Y-84800828D02*
X101326439Y-84872257D01*
X100374058Y-85800828D02*
X100374058Y-84800828D01*
X100374058Y-84300828D02*
X100469296Y-84372257D01*
X100469296Y-84372257D02*
X100374058Y-84443685D01*
X100374058Y-84443685D02*
X100278820Y-84372257D01*
X100278820Y-84372257D02*
X100374058Y-84300828D01*
X100374058Y-84300828D02*
X100374058Y-84443685D01*
X98564534Y-85800828D02*
X98564534Y-84300828D01*
X98564534Y-85729400D02*
X98755010Y-85800828D01*
X98755010Y-85800828D02*
X99135963Y-85800828D01*
X99135963Y-85800828D02*
X99326439Y-85729400D01*
X99326439Y-85729400D02*
X99421677Y-85657971D01*
X99421677Y-85657971D02*
X99516915Y-85515114D01*
X99516915Y-85515114D02*
X99516915Y-85086542D01*
X99516915Y-85086542D02*
X99421677Y-84943685D01*
X99421677Y-84943685D02*
X99326439Y-84872257D01*
X99326439Y-84872257D02*
X99135963Y-84800828D01*
X99135963Y-84800828D02*
X98755010Y-84800828D01*
X98755010Y-84800828D02*
X98564534Y-84872257D01*
X96850248Y-85729400D02*
X97040724Y-85800828D01*
X97040724Y-85800828D02*
X97421677Y-85800828D01*
X97421677Y-85800828D02*
X97612153Y-85729400D01*
X97612153Y-85729400D02*
X97707391Y-85586542D01*
X97707391Y-85586542D02*
X97707391Y-85015114D01*
X97707391Y-85015114D02*
X97612153Y-84872257D01*
X97612153Y-84872257D02*
X97421677Y-84800828D01*
X97421677Y-84800828D02*
X97040724Y-84800828D01*
X97040724Y-84800828D02*
X96850248Y-84872257D01*
X96850248Y-84872257D02*
X96755010Y-85015114D01*
X96755010Y-85015114D02*
X96755010Y-85157971D01*
X96755010Y-85157971D02*
X97707391Y-85300828D01*
D11*
X127163220Y-93988866D02*
X126401316Y-93988866D01*
X122163220Y-81988866D02*
X121401316Y-81988866D01*
X121782268Y-82369819D02*
X121782268Y-81607914D01*
X106163220Y-75988866D02*
X105401316Y-75988866D01*
X120663220Y-94339987D02*
X120663220Y-93339987D01*
X120663220Y-93720939D02*
X120567982Y-93673320D01*
X120567982Y-93673320D02*
X120377506Y-93673320D01*
X120377506Y-93673320D02*
X120282268Y-93720939D01*
X120282268Y-93720939D02*
X120234649Y-93768558D01*
X120234649Y-93768558D02*
X120187030Y-93863796D01*
X120187030Y-93863796D02*
X120187030Y-94149510D01*
X120187030Y-94149510D02*
X120234649Y-94244748D01*
X120234649Y-94244748D02*
X120282268Y-94292368D01*
X120282268Y-94292368D02*
X120377506Y-94339987D01*
X120377506Y-94339987D02*
X120567982Y-94339987D01*
X120567982Y-94339987D02*
X120663220Y-94292368D01*
X119329887Y-94339987D02*
X119329887Y-93816177D01*
X119329887Y-93816177D02*
X119377506Y-93720939D01*
X119377506Y-93720939D02*
X119472744Y-93673320D01*
X119472744Y-93673320D02*
X119663220Y-93673320D01*
X119663220Y-93673320D02*
X119758458Y-93720939D01*
X119329887Y-94292368D02*
X119425125Y-94339987D01*
X119425125Y-94339987D02*
X119663220Y-94339987D01*
X119663220Y-94339987D02*
X119758458Y-94292368D01*
X119758458Y-94292368D02*
X119806077Y-94197129D01*
X119806077Y-94197129D02*
X119806077Y-94101891D01*
X119806077Y-94101891D02*
X119758458Y-94006653D01*
X119758458Y-94006653D02*
X119663220Y-93959034D01*
X119663220Y-93959034D02*
X119425125Y-93959034D01*
X119425125Y-93959034D02*
X119329887Y-93911415D01*
X118996553Y-93673320D02*
X118615601Y-93673320D01*
X118853696Y-93339987D02*
X118853696Y-94197129D01*
X118853696Y-94197129D02*
X118806077Y-94292368D01*
X118806077Y-94292368D02*
X118710839Y-94339987D01*
X118710839Y-94339987D02*
X118615601Y-94339987D01*
X118425124Y-93673320D02*
X118044172Y-93673320D01*
X118282267Y-93339987D02*
X118282267Y-94197129D01*
X118282267Y-94197129D02*
X118234648Y-94292368D01*
X118234648Y-94292368D02*
X118139410Y-94339987D01*
X118139410Y-94339987D02*
X118044172Y-94339987D01*
X117329886Y-94292368D02*
X117425124Y-94339987D01*
X117425124Y-94339987D02*
X117615600Y-94339987D01*
X117615600Y-94339987D02*
X117710838Y-94292368D01*
X117710838Y-94292368D02*
X117758457Y-94197129D01*
X117758457Y-94197129D02*
X117758457Y-93816177D01*
X117758457Y-93816177D02*
X117710838Y-93720939D01*
X117710838Y-93720939D02*
X117615600Y-93673320D01*
X117615600Y-93673320D02*
X117425124Y-93673320D01*
X117425124Y-93673320D02*
X117329886Y-93720939D01*
X117329886Y-93720939D02*
X117282267Y-93816177D01*
X117282267Y-93816177D02*
X117282267Y-93911415D01*
X117282267Y-93911415D02*
X117758457Y-94006653D01*
X116853695Y-94339987D02*
X116853695Y-93673320D01*
X116853695Y-93863796D02*
X116806076Y-93768558D01*
X116806076Y-93768558D02*
X116758457Y-93720939D01*
X116758457Y-93720939D02*
X116663219Y-93673320D01*
X116663219Y-93673320D02*
X116567981Y-93673320D01*
X116329885Y-93673320D02*
X116091790Y-94339987D01*
X115853695Y-93673320D02*
X116091790Y-94339987D01*
X116091790Y-94339987D02*
X116187028Y-94578082D01*
X116187028Y-94578082D02*
X116234647Y-94625701D01*
X116234647Y-94625701D02*
X116329885Y-94673320D01*
X114710837Y-94339987D02*
X114710837Y-93339987D01*
X114282266Y-94339987D02*
X114282266Y-93816177D01*
X114282266Y-93816177D02*
X114329885Y-93720939D01*
X114329885Y-93720939D02*
X114425123Y-93673320D01*
X114425123Y-93673320D02*
X114567980Y-93673320D01*
X114567980Y-93673320D02*
X114663218Y-93720939D01*
X114663218Y-93720939D02*
X114710837Y-93768558D01*
X113663218Y-94339987D02*
X113758456Y-94292368D01*
X113758456Y-94292368D02*
X113806075Y-94244748D01*
X113806075Y-94244748D02*
X113853694Y-94149510D01*
X113853694Y-94149510D02*
X113853694Y-93863796D01*
X113853694Y-93863796D02*
X113806075Y-93768558D01*
X113806075Y-93768558D02*
X113758456Y-93720939D01*
X113758456Y-93720939D02*
X113663218Y-93673320D01*
X113663218Y-93673320D02*
X113520361Y-93673320D01*
X113520361Y-93673320D02*
X113425123Y-93720939D01*
X113425123Y-93720939D02*
X113377504Y-93768558D01*
X113377504Y-93768558D02*
X113329885Y-93863796D01*
X113329885Y-93863796D02*
X113329885Y-94149510D01*
X113329885Y-94149510D02*
X113377504Y-94244748D01*
X113377504Y-94244748D02*
X113425123Y-94292368D01*
X113425123Y-94292368D02*
X113520361Y-94339987D01*
X113520361Y-94339987D02*
X113663218Y-94339987D01*
X112758456Y-94339987D02*
X112853694Y-94292368D01*
X112853694Y-94292368D02*
X112901313Y-94197129D01*
X112901313Y-94197129D02*
X112901313Y-93339987D01*
X111948932Y-94339987D02*
X111948932Y-93339987D01*
X111948932Y-94292368D02*
X112044170Y-94339987D01*
X112044170Y-94339987D02*
X112234646Y-94339987D01*
X112234646Y-94339987D02*
X112329884Y-94292368D01*
X112329884Y-94292368D02*
X112377503Y-94244748D01*
X112377503Y-94244748D02*
X112425122Y-94149510D01*
X112425122Y-94149510D02*
X112425122Y-93863796D01*
X112425122Y-93863796D02*
X112377503Y-93768558D01*
X112377503Y-93768558D02*
X112329884Y-93720939D01*
X112329884Y-93720939D02*
X112234646Y-93673320D01*
X112234646Y-93673320D02*
X112044170Y-93673320D01*
X112044170Y-93673320D02*
X111948932Y-93720939D01*
X111091789Y-94292368D02*
X111187027Y-94339987D01*
X111187027Y-94339987D02*
X111377503Y-94339987D01*
X111377503Y-94339987D02*
X111472741Y-94292368D01*
X111472741Y-94292368D02*
X111520360Y-94197129D01*
X111520360Y-94197129D02*
X111520360Y-93816177D01*
X111520360Y-93816177D02*
X111472741Y-93720939D01*
X111472741Y-93720939D02*
X111377503Y-93673320D01*
X111377503Y-93673320D02*
X111187027Y-93673320D01*
X111187027Y-93673320D02*
X111091789Y-93720939D01*
X111091789Y-93720939D02*
X111044170Y-93816177D01*
X111044170Y-93816177D02*
X111044170Y-93911415D01*
X111044170Y-93911415D02*
X111520360Y-94006653D01*
X110615598Y-94339987D02*
X110615598Y-93673320D01*
X110615598Y-93863796D02*
X110567979Y-93768558D01*
X110567979Y-93768558D02*
X110520360Y-93720939D01*
X110520360Y-93720939D02*
X110425122Y-93673320D01*
X110425122Y-93673320D02*
X110329884Y-93673320D01*
X120663220Y-95949931D02*
X120663220Y-94949931D01*
X120663220Y-95330883D02*
X120567982Y-95283264D01*
X120567982Y-95283264D02*
X120377506Y-95283264D01*
X120377506Y-95283264D02*
X120282268Y-95330883D01*
X120282268Y-95330883D02*
X120234649Y-95378502D01*
X120234649Y-95378502D02*
X120187030Y-95473740D01*
X120187030Y-95473740D02*
X120187030Y-95759454D01*
X120187030Y-95759454D02*
X120234649Y-95854692D01*
X120234649Y-95854692D02*
X120282268Y-95902312D01*
X120282268Y-95902312D02*
X120377506Y-95949931D01*
X120377506Y-95949931D02*
X120567982Y-95949931D01*
X120567982Y-95949931D02*
X120663220Y-95902312D01*
X119329887Y-95949931D02*
X119329887Y-95426121D01*
X119329887Y-95426121D02*
X119377506Y-95330883D01*
X119377506Y-95330883D02*
X119472744Y-95283264D01*
X119472744Y-95283264D02*
X119663220Y-95283264D01*
X119663220Y-95283264D02*
X119758458Y-95330883D01*
X119329887Y-95902312D02*
X119425125Y-95949931D01*
X119425125Y-95949931D02*
X119663220Y-95949931D01*
X119663220Y-95949931D02*
X119758458Y-95902312D01*
X119758458Y-95902312D02*
X119806077Y-95807073D01*
X119806077Y-95807073D02*
X119806077Y-95711835D01*
X119806077Y-95711835D02*
X119758458Y-95616597D01*
X119758458Y-95616597D02*
X119663220Y-95568978D01*
X119663220Y-95568978D02*
X119425125Y-95568978D01*
X119425125Y-95568978D02*
X119329887Y-95521359D01*
X118996553Y-95283264D02*
X118615601Y-95283264D01*
X118853696Y-94949931D02*
X118853696Y-95807073D01*
X118853696Y-95807073D02*
X118806077Y-95902312D01*
X118806077Y-95902312D02*
X118710839Y-95949931D01*
X118710839Y-95949931D02*
X118615601Y-95949931D01*
X118425124Y-95283264D02*
X118044172Y-95283264D01*
X118282267Y-94949931D02*
X118282267Y-95807073D01*
X118282267Y-95807073D02*
X118234648Y-95902312D01*
X118234648Y-95902312D02*
X118139410Y-95949931D01*
X118139410Y-95949931D02*
X118044172Y-95949931D01*
X117329886Y-95902312D02*
X117425124Y-95949931D01*
X117425124Y-95949931D02*
X117615600Y-95949931D01*
X117615600Y-95949931D02*
X117710838Y-95902312D01*
X117710838Y-95902312D02*
X117758457Y-95807073D01*
X117758457Y-95807073D02*
X117758457Y-95426121D01*
X117758457Y-95426121D02*
X117710838Y-95330883D01*
X117710838Y-95330883D02*
X117615600Y-95283264D01*
X117615600Y-95283264D02*
X117425124Y-95283264D01*
X117425124Y-95283264D02*
X117329886Y-95330883D01*
X117329886Y-95330883D02*
X117282267Y-95426121D01*
X117282267Y-95426121D02*
X117282267Y-95521359D01*
X117282267Y-95521359D02*
X117758457Y-95616597D01*
X116853695Y-95949931D02*
X116853695Y-95283264D01*
X116853695Y-95473740D02*
X116806076Y-95378502D01*
X116806076Y-95378502D02*
X116758457Y-95330883D01*
X116758457Y-95330883D02*
X116663219Y-95283264D01*
X116663219Y-95283264D02*
X116567981Y-95283264D01*
X116329885Y-95283264D02*
X116091790Y-95949931D01*
X115853695Y-95283264D02*
X116091790Y-95949931D01*
X116091790Y-95949931D02*
X116187028Y-96188026D01*
X116187028Y-96188026D02*
X116234647Y-96235645D01*
X116234647Y-96235645D02*
X116329885Y-96283264D01*
X115425123Y-94949931D02*
X115520361Y-95140407D01*
X115044171Y-95902312D02*
X114948933Y-95949931D01*
X114948933Y-95949931D02*
X114758457Y-95949931D01*
X114758457Y-95949931D02*
X114663219Y-95902312D01*
X114663219Y-95902312D02*
X114615600Y-95807073D01*
X114615600Y-95807073D02*
X114615600Y-95759454D01*
X114615600Y-95759454D02*
X114663219Y-95664216D01*
X114663219Y-95664216D02*
X114758457Y-95616597D01*
X114758457Y-95616597D02*
X114901314Y-95616597D01*
X114901314Y-95616597D02*
X114996552Y-95568978D01*
X114996552Y-95568978D02*
X115044171Y-95473740D01*
X115044171Y-95473740D02*
X115044171Y-95426121D01*
X115044171Y-95426121D02*
X114996552Y-95330883D01*
X114996552Y-95330883D02*
X114901314Y-95283264D01*
X114901314Y-95283264D02*
X114758457Y-95283264D01*
X114758457Y-95283264D02*
X114663219Y-95330883D01*
X113139409Y-96330883D02*
X113187028Y-96283264D01*
X113187028Y-96283264D02*
X113282266Y-96140407D01*
X113282266Y-96140407D02*
X113329885Y-96045169D01*
X113329885Y-96045169D02*
X113377504Y-95902312D01*
X113377504Y-95902312D02*
X113425123Y-95664216D01*
X113425123Y-95664216D02*
X113425123Y-95473740D01*
X113425123Y-95473740D02*
X113377504Y-95235645D01*
X113377504Y-95235645D02*
X113329885Y-95092788D01*
X113329885Y-95092788D02*
X113282266Y-94997550D01*
X113282266Y-94997550D02*
X113187028Y-94854692D01*
X113187028Y-94854692D02*
X113139409Y-94807073D01*
X112758456Y-95568978D02*
X111996552Y-95568978D01*
X112377504Y-95949931D02*
X112377504Y-95188026D01*
X111615599Y-96330883D02*
X111567980Y-96283264D01*
X111567980Y-96283264D02*
X111472742Y-96140407D01*
X111472742Y-96140407D02*
X111425123Y-96045169D01*
X111425123Y-96045169D02*
X111377504Y-95902312D01*
X111377504Y-95902312D02*
X111329885Y-95664216D01*
X111329885Y-95664216D02*
X111329885Y-95473740D01*
X111329885Y-95473740D02*
X111377504Y-95235645D01*
X111377504Y-95235645D02*
X111425123Y-95092788D01*
X111425123Y-95092788D02*
X111472742Y-94997550D01*
X111472742Y-94997550D02*
X111567980Y-94854692D01*
X111567980Y-94854692D02*
X111615599Y-94807073D01*
X110234646Y-95283264D02*
X109853694Y-95283264D01*
X110091789Y-94949931D02*
X110091789Y-95807073D01*
X110091789Y-95807073D02*
X110044170Y-95902312D01*
X110044170Y-95902312D02*
X109948932Y-95949931D01*
X109948932Y-95949931D02*
X109853694Y-95949931D01*
X109377503Y-95949931D02*
X109472741Y-95902312D01*
X109472741Y-95902312D02*
X109520360Y-95854692D01*
X109520360Y-95854692D02*
X109567979Y-95759454D01*
X109567979Y-95759454D02*
X109567979Y-95473740D01*
X109567979Y-95473740D02*
X109520360Y-95378502D01*
X109520360Y-95378502D02*
X109472741Y-95330883D01*
X109472741Y-95330883D02*
X109377503Y-95283264D01*
X109377503Y-95283264D02*
X109234646Y-95283264D01*
X109234646Y-95283264D02*
X109139408Y-95330883D01*
X109139408Y-95330883D02*
X109091789Y-95378502D01*
X109091789Y-95378502D02*
X109044170Y-95473740D01*
X109044170Y-95473740D02*
X109044170Y-95759454D01*
X109044170Y-95759454D02*
X109091789Y-95854692D01*
X109091789Y-95854692D02*
X109139408Y-95902312D01*
X109139408Y-95902312D02*
X109234646Y-95949931D01*
X109234646Y-95949931D02*
X109377503Y-95949931D01*
X108710836Y-95283264D02*
X108520360Y-95949931D01*
X108520360Y-95949931D02*
X108329884Y-95473740D01*
X108329884Y-95473740D02*
X108139408Y-95949931D01*
X108139408Y-95949931D02*
X107948932Y-95283264D01*
X107139408Y-95949931D02*
X107139408Y-95426121D01*
X107139408Y-95426121D02*
X107187027Y-95330883D01*
X107187027Y-95330883D02*
X107282265Y-95283264D01*
X107282265Y-95283264D02*
X107472741Y-95283264D01*
X107472741Y-95283264D02*
X107567979Y-95330883D01*
X107139408Y-95902312D02*
X107234646Y-95949931D01*
X107234646Y-95949931D02*
X107472741Y-95949931D01*
X107472741Y-95949931D02*
X107567979Y-95902312D01*
X107567979Y-95902312D02*
X107615598Y-95807073D01*
X107615598Y-95807073D02*
X107615598Y-95711835D01*
X107615598Y-95711835D02*
X107567979Y-95616597D01*
X107567979Y-95616597D02*
X107472741Y-95568978D01*
X107472741Y-95568978D02*
X107234646Y-95568978D01*
X107234646Y-95568978D02*
X107139408Y-95521359D01*
X106663217Y-95949931D02*
X106663217Y-95283264D01*
X106663217Y-95473740D02*
X106615598Y-95378502D01*
X106615598Y-95378502D02*
X106567979Y-95330883D01*
X106567979Y-95330883D02*
X106472741Y-95283264D01*
X106472741Y-95283264D02*
X106377503Y-95283264D01*
X105615598Y-95949931D02*
X105615598Y-94949931D01*
X105615598Y-95902312D02*
X105710836Y-95949931D01*
X105710836Y-95949931D02*
X105901312Y-95949931D01*
X105901312Y-95949931D02*
X105996550Y-95902312D01*
X105996550Y-95902312D02*
X106044169Y-95854692D01*
X106044169Y-95854692D02*
X106091788Y-95759454D01*
X106091788Y-95759454D02*
X106091788Y-95473740D01*
X106091788Y-95473740D02*
X106044169Y-95378502D01*
X106044169Y-95378502D02*
X105996550Y-95330883D01*
X105996550Y-95330883D02*
X105901312Y-95283264D01*
X105901312Y-95283264D02*
X105710836Y-95283264D01*
X105710836Y-95283264D02*
X105615598Y-95330883D01*
X105187026Y-95902312D02*
X105091788Y-95949931D01*
X105091788Y-95949931D02*
X104901312Y-95949931D01*
X104901312Y-95949931D02*
X104806074Y-95902312D01*
X104806074Y-95902312D02*
X104758455Y-95807073D01*
X104758455Y-95807073D02*
X104758455Y-95759454D01*
X104758455Y-95759454D02*
X104806074Y-95664216D01*
X104806074Y-95664216D02*
X104901312Y-95616597D01*
X104901312Y-95616597D02*
X105044169Y-95616597D01*
X105044169Y-95616597D02*
X105139407Y-95568978D01*
X105139407Y-95568978D02*
X105187026Y-95473740D01*
X105187026Y-95473740D02*
X105187026Y-95426121D01*
X105187026Y-95426121D02*
X105139407Y-95330883D01*
X105139407Y-95330883D02*
X105044169Y-95283264D01*
X105044169Y-95283264D02*
X104901312Y-95283264D01*
X104901312Y-95283264D02*
X104806074Y-95330883D01*
X103663216Y-95283264D02*
X103425121Y-95949931D01*
X103187026Y-95283264D02*
X103425121Y-95949931D01*
X103425121Y-95949931D02*
X103520359Y-96188026D01*
X103520359Y-96188026D02*
X103567978Y-96235645D01*
X103567978Y-96235645D02*
X103663216Y-96283264D01*
X102663216Y-95949931D02*
X102758454Y-95902312D01*
X102758454Y-95902312D02*
X102806073Y-95854692D01*
X102806073Y-95854692D02*
X102853692Y-95759454D01*
X102853692Y-95759454D02*
X102853692Y-95473740D01*
X102853692Y-95473740D02*
X102806073Y-95378502D01*
X102806073Y-95378502D02*
X102758454Y-95330883D01*
X102758454Y-95330883D02*
X102663216Y-95283264D01*
X102663216Y-95283264D02*
X102520359Y-95283264D01*
X102520359Y-95283264D02*
X102425121Y-95330883D01*
X102425121Y-95330883D02*
X102377502Y-95378502D01*
X102377502Y-95378502D02*
X102329883Y-95473740D01*
X102329883Y-95473740D02*
X102329883Y-95759454D01*
X102329883Y-95759454D02*
X102377502Y-95854692D01*
X102377502Y-95854692D02*
X102425121Y-95902312D01*
X102425121Y-95902312D02*
X102520359Y-95949931D01*
X102520359Y-95949931D02*
X102663216Y-95949931D01*
X101472740Y-95283264D02*
X101472740Y-95949931D01*
X101901311Y-95283264D02*
X101901311Y-95807073D01*
X101901311Y-95807073D02*
X101853692Y-95902312D01*
X101853692Y-95902312D02*
X101758454Y-95949931D01*
X101758454Y-95949931D02*
X101615597Y-95949931D01*
X101615597Y-95949931D02*
X101520359Y-95902312D01*
X101520359Y-95902312D02*
X101472740Y-95854692D01*
X120663220Y-97559875D02*
X120663220Y-96893208D01*
X120663220Y-97083684D02*
X120615601Y-96988446D01*
X120615601Y-96988446D02*
X120567982Y-96940827D01*
X120567982Y-96940827D02*
X120472744Y-96893208D01*
X120472744Y-96893208D02*
X120377506Y-96893208D01*
X120044172Y-97559875D02*
X120044172Y-96893208D01*
X120044172Y-96559875D02*
X120091791Y-96607494D01*
X120091791Y-96607494D02*
X120044172Y-96655113D01*
X120044172Y-96655113D02*
X119996553Y-96607494D01*
X119996553Y-96607494D02*
X120044172Y-96559875D01*
X120044172Y-96559875D02*
X120044172Y-96655113D01*
X119139411Y-96893208D02*
X119139411Y-97702732D01*
X119139411Y-97702732D02*
X119187030Y-97797970D01*
X119187030Y-97797970D02*
X119234649Y-97845589D01*
X119234649Y-97845589D02*
X119329887Y-97893208D01*
X119329887Y-97893208D02*
X119472744Y-97893208D01*
X119472744Y-97893208D02*
X119567982Y-97845589D01*
X119139411Y-97512256D02*
X119234649Y-97559875D01*
X119234649Y-97559875D02*
X119425125Y-97559875D01*
X119425125Y-97559875D02*
X119520363Y-97512256D01*
X119520363Y-97512256D02*
X119567982Y-97464636D01*
X119567982Y-97464636D02*
X119615601Y-97369398D01*
X119615601Y-97369398D02*
X119615601Y-97083684D01*
X119615601Y-97083684D02*
X119567982Y-96988446D01*
X119567982Y-96988446D02*
X119520363Y-96940827D01*
X119520363Y-96940827D02*
X119425125Y-96893208D01*
X119425125Y-96893208D02*
X119234649Y-96893208D01*
X119234649Y-96893208D02*
X119139411Y-96940827D01*
X118663220Y-97559875D02*
X118663220Y-96559875D01*
X118234649Y-97559875D02*
X118234649Y-97036065D01*
X118234649Y-97036065D02*
X118282268Y-96940827D01*
X118282268Y-96940827D02*
X118377506Y-96893208D01*
X118377506Y-96893208D02*
X118520363Y-96893208D01*
X118520363Y-96893208D02*
X118615601Y-96940827D01*
X118615601Y-96940827D02*
X118663220Y-96988446D01*
X117901315Y-96893208D02*
X117520363Y-96893208D01*
X117758458Y-96559875D02*
X117758458Y-97417017D01*
X117758458Y-97417017D02*
X117710839Y-97512256D01*
X117710839Y-97512256D02*
X117615601Y-97559875D01*
X117615601Y-97559875D02*
X117520363Y-97559875D01*
X117234648Y-97512256D02*
X117139410Y-97559875D01*
X117139410Y-97559875D02*
X116948934Y-97559875D01*
X116948934Y-97559875D02*
X116853696Y-97512256D01*
X116853696Y-97512256D02*
X116806077Y-97417017D01*
X116806077Y-97417017D02*
X116806077Y-97369398D01*
X116806077Y-97369398D02*
X116853696Y-97274160D01*
X116853696Y-97274160D02*
X116948934Y-97226541D01*
X116948934Y-97226541D02*
X117091791Y-97226541D01*
X117091791Y-97226541D02*
X117187029Y-97178922D01*
X117187029Y-97178922D02*
X117234648Y-97083684D01*
X117234648Y-97083684D02*
X117234648Y-97036065D01*
X117234648Y-97036065D02*
X117187029Y-96940827D01*
X117187029Y-96940827D02*
X117091791Y-96893208D01*
X117091791Y-96893208D02*
X116948934Y-96893208D01*
X116948934Y-96893208D02*
X116853696Y-96940827D01*
X115187029Y-97559875D02*
X115187029Y-97036065D01*
X115187029Y-97036065D02*
X115234648Y-96940827D01*
X115234648Y-96940827D02*
X115329886Y-96893208D01*
X115329886Y-96893208D02*
X115520362Y-96893208D01*
X115520362Y-96893208D02*
X115615600Y-96940827D01*
X115187029Y-97512256D02*
X115282267Y-97559875D01*
X115282267Y-97559875D02*
X115520362Y-97559875D01*
X115520362Y-97559875D02*
X115615600Y-97512256D01*
X115615600Y-97512256D02*
X115663219Y-97417017D01*
X115663219Y-97417017D02*
X115663219Y-97321779D01*
X115663219Y-97321779D02*
X115615600Y-97226541D01*
X115615600Y-97226541D02*
X115520362Y-97178922D01*
X115520362Y-97178922D02*
X115282267Y-97178922D01*
X115282267Y-97178922D02*
X115187029Y-97131303D01*
X114710838Y-97559875D02*
X114710838Y-96893208D01*
X114710838Y-97083684D02*
X114663219Y-96988446D01*
X114663219Y-96988446D02*
X114615600Y-96940827D01*
X114615600Y-96940827D02*
X114520362Y-96893208D01*
X114520362Y-96893208D02*
X114425124Y-96893208D01*
X114091790Y-97559875D02*
X114091790Y-96893208D01*
X114091790Y-96988446D02*
X114044171Y-96940827D01*
X114044171Y-96940827D02*
X113948933Y-96893208D01*
X113948933Y-96893208D02*
X113806076Y-96893208D01*
X113806076Y-96893208D02*
X113710838Y-96940827D01*
X113710838Y-96940827D02*
X113663219Y-97036065D01*
X113663219Y-97036065D02*
X113663219Y-97559875D01*
X113663219Y-97036065D02*
X113615600Y-96940827D01*
X113615600Y-96940827D02*
X113520362Y-96893208D01*
X113520362Y-96893208D02*
X113377505Y-96893208D01*
X113377505Y-96893208D02*
X113282266Y-96940827D01*
X113282266Y-96940827D02*
X113234647Y-97036065D01*
X113234647Y-97036065D02*
X113234647Y-97559875D01*
X112806076Y-97512256D02*
X112710838Y-97559875D01*
X112710838Y-97559875D02*
X112520362Y-97559875D01*
X112520362Y-97559875D02*
X112425124Y-97512256D01*
X112425124Y-97512256D02*
X112377505Y-97417017D01*
X112377505Y-97417017D02*
X112377505Y-97369398D01*
X112377505Y-97369398D02*
X112425124Y-97274160D01*
X112425124Y-97274160D02*
X112520362Y-97226541D01*
X112520362Y-97226541D02*
X112663219Y-97226541D01*
X112663219Y-97226541D02*
X112758457Y-97178922D01*
X112758457Y-97178922D02*
X112806076Y-97083684D01*
X112806076Y-97083684D02*
X112806076Y-97036065D01*
X112806076Y-97036065D02*
X112758457Y-96940827D01*
X112758457Y-96940827D02*
X112663219Y-96893208D01*
X112663219Y-96893208D02*
X112520362Y-96893208D01*
X112520362Y-96893208D02*
X112425124Y-96940827D01*
X111044171Y-97559875D02*
X111139409Y-97512256D01*
X111139409Y-97512256D02*
X111187028Y-97464636D01*
X111187028Y-97464636D02*
X111234647Y-97369398D01*
X111234647Y-97369398D02*
X111234647Y-97083684D01*
X111234647Y-97083684D02*
X111187028Y-96988446D01*
X111187028Y-96988446D02*
X111139409Y-96940827D01*
X111139409Y-96940827D02*
X111044171Y-96893208D01*
X111044171Y-96893208D02*
X110901314Y-96893208D01*
X110901314Y-96893208D02*
X110806076Y-96940827D01*
X110806076Y-96940827D02*
X110758457Y-96988446D01*
X110758457Y-96988446D02*
X110710838Y-97083684D01*
X110710838Y-97083684D02*
X110710838Y-97369398D01*
X110710838Y-97369398D02*
X110758457Y-97464636D01*
X110758457Y-97464636D02*
X110806076Y-97512256D01*
X110806076Y-97512256D02*
X110901314Y-97559875D01*
X110901314Y-97559875D02*
X111044171Y-97559875D01*
X110377504Y-96893208D02*
X110139409Y-97559875D01*
X110139409Y-97559875D02*
X109901314Y-96893208D01*
X109139409Y-97512256D02*
X109234647Y-97559875D01*
X109234647Y-97559875D02*
X109425123Y-97559875D01*
X109425123Y-97559875D02*
X109520361Y-97512256D01*
X109520361Y-97512256D02*
X109567980Y-97417017D01*
X109567980Y-97417017D02*
X109567980Y-97036065D01*
X109567980Y-97036065D02*
X109520361Y-96940827D01*
X109520361Y-96940827D02*
X109425123Y-96893208D01*
X109425123Y-96893208D02*
X109234647Y-96893208D01*
X109234647Y-96893208D02*
X109139409Y-96940827D01*
X109139409Y-96940827D02*
X109091790Y-97036065D01*
X109091790Y-97036065D02*
X109091790Y-97131303D01*
X109091790Y-97131303D02*
X109567980Y-97226541D01*
X108663218Y-97559875D02*
X108663218Y-96893208D01*
X108663218Y-97083684D02*
X108615599Y-96988446D01*
X108615599Y-96988446D02*
X108567980Y-96940827D01*
X108567980Y-96940827D02*
X108472742Y-96893208D01*
X108472742Y-96893208D02*
X108377504Y-96893208D01*
X107282265Y-97559875D02*
X107282265Y-96559875D01*
X107282265Y-96940827D02*
X107187027Y-96893208D01*
X107187027Y-96893208D02*
X106996551Y-96893208D01*
X106996551Y-96893208D02*
X106901313Y-96940827D01*
X106901313Y-96940827D02*
X106853694Y-96988446D01*
X106853694Y-96988446D02*
X106806075Y-97083684D01*
X106806075Y-97083684D02*
X106806075Y-97369398D01*
X106806075Y-97369398D02*
X106853694Y-97464636D01*
X106853694Y-97464636D02*
X106901313Y-97512256D01*
X106901313Y-97512256D02*
X106996551Y-97559875D01*
X106996551Y-97559875D02*
X107187027Y-97559875D01*
X107187027Y-97559875D02*
X107282265Y-97512256D01*
X105948932Y-97559875D02*
X105948932Y-97036065D01*
X105948932Y-97036065D02*
X105996551Y-96940827D01*
X105996551Y-96940827D02*
X106091789Y-96893208D01*
X106091789Y-96893208D02*
X106282265Y-96893208D01*
X106282265Y-96893208D02*
X106377503Y-96940827D01*
X105948932Y-97512256D02*
X106044170Y-97559875D01*
X106044170Y-97559875D02*
X106282265Y-97559875D01*
X106282265Y-97559875D02*
X106377503Y-97512256D01*
X106377503Y-97512256D02*
X106425122Y-97417017D01*
X106425122Y-97417017D02*
X106425122Y-97321779D01*
X106425122Y-97321779D02*
X106377503Y-97226541D01*
X106377503Y-97226541D02*
X106282265Y-97178922D01*
X106282265Y-97178922D02*
X106044170Y-97178922D01*
X106044170Y-97178922D02*
X105948932Y-97131303D01*
X105615598Y-96893208D02*
X105234646Y-96893208D01*
X105472741Y-96559875D02*
X105472741Y-97417017D01*
X105472741Y-97417017D02*
X105425122Y-97512256D01*
X105425122Y-97512256D02*
X105329884Y-97559875D01*
X105329884Y-97559875D02*
X105234646Y-97559875D01*
X105044169Y-96893208D02*
X104663217Y-96893208D01*
X104901312Y-96559875D02*
X104901312Y-97417017D01*
X104901312Y-97417017D02*
X104853693Y-97512256D01*
X104853693Y-97512256D02*
X104758455Y-97559875D01*
X104758455Y-97559875D02*
X104663217Y-97559875D01*
X103948931Y-97512256D02*
X104044169Y-97559875D01*
X104044169Y-97559875D02*
X104234645Y-97559875D01*
X104234645Y-97559875D02*
X104329883Y-97512256D01*
X104329883Y-97512256D02*
X104377502Y-97417017D01*
X104377502Y-97417017D02*
X104377502Y-97036065D01*
X104377502Y-97036065D02*
X104329883Y-96940827D01*
X104329883Y-96940827D02*
X104234645Y-96893208D01*
X104234645Y-96893208D02*
X104044169Y-96893208D01*
X104044169Y-96893208D02*
X103948931Y-96940827D01*
X103948931Y-96940827D02*
X103901312Y-97036065D01*
X103901312Y-97036065D02*
X103901312Y-97131303D01*
X103901312Y-97131303D02*
X104377502Y-97226541D01*
X103472740Y-97559875D02*
X103472740Y-96893208D01*
X103472740Y-97083684D02*
X103425121Y-96988446D01*
X103425121Y-96988446D02*
X103377502Y-96940827D01*
X103377502Y-96940827D02*
X103282264Y-96893208D01*
X103282264Y-96893208D02*
X103187026Y-96893208D01*
X102948930Y-96893208D02*
X102710835Y-97559875D01*
X102472740Y-96893208D02*
X102710835Y-97559875D01*
X102710835Y-97559875D02*
X102806073Y-97797970D01*
X102806073Y-97797970D02*
X102853692Y-97845589D01*
X102853692Y-97845589D02*
X102948930Y-97893208D01*
X101329882Y-96893208D02*
X100567978Y-97178922D01*
X100567978Y-97178922D02*
X101329882Y-97464636D01*
X119901316Y-98503152D02*
X120663220Y-98788866D01*
X120663220Y-98788866D02*
X119901316Y-99074580D01*
X118520363Y-99169819D02*
X118615601Y-99122200D01*
X118615601Y-99122200D02*
X118663220Y-99026961D01*
X118663220Y-99026961D02*
X118663220Y-98169819D01*
X117758458Y-99122200D02*
X117853696Y-99169819D01*
X117853696Y-99169819D02*
X118044172Y-99169819D01*
X118044172Y-99169819D02*
X118139410Y-99122200D01*
X118139410Y-99122200D02*
X118187029Y-99026961D01*
X118187029Y-99026961D02*
X118187029Y-98646009D01*
X118187029Y-98646009D02*
X118139410Y-98550771D01*
X118139410Y-98550771D02*
X118044172Y-98503152D01*
X118044172Y-98503152D02*
X117853696Y-98503152D01*
X117853696Y-98503152D02*
X117758458Y-98550771D01*
X117758458Y-98550771D02*
X117710839Y-98646009D01*
X117710839Y-98646009D02*
X117710839Y-98741247D01*
X117710839Y-98741247D02*
X118187029Y-98836485D01*
X117425124Y-98503152D02*
X117044172Y-98503152D01*
X117282267Y-99169819D02*
X117282267Y-98312676D01*
X117282267Y-98312676D02*
X117234648Y-98217438D01*
X117234648Y-98217438D02*
X117139410Y-98169819D01*
X117139410Y-98169819D02*
X117044172Y-98169819D01*
X116853695Y-98503152D02*
X116472743Y-98503152D01*
X116710838Y-98169819D02*
X116710838Y-99026961D01*
X116710838Y-99026961D02*
X116663219Y-99122200D01*
X116663219Y-99122200D02*
X116567981Y-99169819D01*
X116567981Y-99169819D02*
X116472743Y-99169819D01*
X114948933Y-99169819D02*
X114948933Y-98646009D01*
X114948933Y-98646009D02*
X114996552Y-98550771D01*
X114996552Y-98550771D02*
X115091790Y-98503152D01*
X115091790Y-98503152D02*
X115282266Y-98503152D01*
X115282266Y-98503152D02*
X115377504Y-98550771D01*
X114948933Y-99122200D02*
X115044171Y-99169819D01*
X115044171Y-99169819D02*
X115282266Y-99169819D01*
X115282266Y-99169819D02*
X115377504Y-99122200D01*
X115377504Y-99122200D02*
X115425123Y-99026961D01*
X115425123Y-99026961D02*
X115425123Y-98931723D01*
X115425123Y-98931723D02*
X115377504Y-98836485D01*
X115377504Y-98836485D02*
X115282266Y-98788866D01*
X115282266Y-98788866D02*
X115044171Y-98788866D01*
X115044171Y-98788866D02*
X114948933Y-98741247D01*
X114472742Y-99169819D02*
X114472742Y-98503152D01*
X114472742Y-98693628D02*
X114425123Y-98598390D01*
X114425123Y-98598390D02*
X114377504Y-98550771D01*
X114377504Y-98550771D02*
X114282266Y-98503152D01*
X114282266Y-98503152D02*
X114187028Y-98503152D01*
X113853694Y-99169819D02*
X113853694Y-98503152D01*
X113853694Y-98598390D02*
X113806075Y-98550771D01*
X113806075Y-98550771D02*
X113710837Y-98503152D01*
X113710837Y-98503152D02*
X113567980Y-98503152D01*
X113567980Y-98503152D02*
X113472742Y-98550771D01*
X113472742Y-98550771D02*
X113425123Y-98646009D01*
X113425123Y-98646009D02*
X113425123Y-99169819D01*
X113425123Y-98646009D02*
X113377504Y-98550771D01*
X113377504Y-98550771D02*
X113282266Y-98503152D01*
X113282266Y-98503152D02*
X113139409Y-98503152D01*
X113139409Y-98503152D02*
X113044170Y-98550771D01*
X113044170Y-98550771D02*
X112996551Y-98646009D01*
X112996551Y-98646009D02*
X112996551Y-99169819D01*
X112567980Y-99122200D02*
X112472742Y-99169819D01*
X112472742Y-99169819D02*
X112282266Y-99169819D01*
X112282266Y-99169819D02*
X112187028Y-99122200D01*
X112187028Y-99122200D02*
X112139409Y-99026961D01*
X112139409Y-99026961D02*
X112139409Y-98979342D01*
X112139409Y-98979342D02*
X112187028Y-98884104D01*
X112187028Y-98884104D02*
X112282266Y-98836485D01*
X112282266Y-98836485D02*
X112425123Y-98836485D01*
X112425123Y-98836485D02*
X112520361Y-98788866D01*
X112520361Y-98788866D02*
X112567980Y-98693628D01*
X112567980Y-98693628D02*
X112567980Y-98646009D01*
X112567980Y-98646009D02*
X112520361Y-98550771D01*
X112520361Y-98550771D02*
X112425123Y-98503152D01*
X112425123Y-98503152D02*
X112282266Y-98503152D01*
X112282266Y-98503152D02*
X112187028Y-98550771D01*
X110948932Y-99169819D02*
X110948932Y-98169819D01*
X110948932Y-98550771D02*
X110853694Y-98503152D01*
X110853694Y-98503152D02*
X110663218Y-98503152D01*
X110663218Y-98503152D02*
X110567980Y-98550771D01*
X110567980Y-98550771D02*
X110520361Y-98598390D01*
X110520361Y-98598390D02*
X110472742Y-98693628D01*
X110472742Y-98693628D02*
X110472742Y-98979342D01*
X110472742Y-98979342D02*
X110520361Y-99074580D01*
X110520361Y-99074580D02*
X110567980Y-99122200D01*
X110567980Y-99122200D02*
X110663218Y-99169819D01*
X110663218Y-99169819D02*
X110853694Y-99169819D01*
X110853694Y-99169819D02*
X110948932Y-99122200D01*
X109663218Y-99122200D02*
X109758456Y-99169819D01*
X109758456Y-99169819D02*
X109948932Y-99169819D01*
X109948932Y-99169819D02*
X110044170Y-99122200D01*
X110044170Y-99122200D02*
X110091789Y-99026961D01*
X110091789Y-99026961D02*
X110091789Y-98646009D01*
X110091789Y-98646009D02*
X110044170Y-98550771D01*
X110044170Y-98550771D02*
X109948932Y-98503152D01*
X109948932Y-98503152D02*
X109758456Y-98503152D01*
X109758456Y-98503152D02*
X109663218Y-98550771D01*
X109663218Y-98550771D02*
X109615599Y-98646009D01*
X109615599Y-98646009D02*
X109615599Y-98741247D01*
X109615599Y-98741247D02*
X110091789Y-98836485D01*
X109044170Y-99169819D02*
X109139408Y-99122200D01*
X109139408Y-99122200D02*
X109187027Y-99026961D01*
X109187027Y-99026961D02*
X109187027Y-98169819D01*
X108520360Y-99169819D02*
X108615598Y-99122200D01*
X108615598Y-99122200D02*
X108663217Y-99074580D01*
X108663217Y-99074580D02*
X108710836Y-98979342D01*
X108710836Y-98979342D02*
X108710836Y-98693628D01*
X108710836Y-98693628D02*
X108663217Y-98598390D01*
X108663217Y-98598390D02*
X108615598Y-98550771D01*
X108615598Y-98550771D02*
X108520360Y-98503152D01*
X108520360Y-98503152D02*
X108377503Y-98503152D01*
X108377503Y-98503152D02*
X108282265Y-98550771D01*
X108282265Y-98550771D02*
X108234646Y-98598390D01*
X108234646Y-98598390D02*
X108187027Y-98693628D01*
X108187027Y-98693628D02*
X108187027Y-98979342D01*
X108187027Y-98979342D02*
X108234646Y-99074580D01*
X108234646Y-99074580D02*
X108282265Y-99122200D01*
X108282265Y-99122200D02*
X108377503Y-99169819D01*
X108377503Y-99169819D02*
X108520360Y-99169819D01*
X107853693Y-98503152D02*
X107663217Y-99169819D01*
X107663217Y-99169819D02*
X107472741Y-98693628D01*
X107472741Y-98693628D02*
X107282265Y-99169819D01*
X107282265Y-99169819D02*
X107091789Y-98503152D01*
X105948931Y-99169819D02*
X105948931Y-98169819D01*
X105948931Y-98550771D02*
X105853693Y-98503152D01*
X105853693Y-98503152D02*
X105663217Y-98503152D01*
X105663217Y-98503152D02*
X105567979Y-98550771D01*
X105567979Y-98550771D02*
X105520360Y-98598390D01*
X105520360Y-98598390D02*
X105472741Y-98693628D01*
X105472741Y-98693628D02*
X105472741Y-98979342D01*
X105472741Y-98979342D02*
X105520360Y-99074580D01*
X105520360Y-99074580D02*
X105567979Y-99122200D01*
X105567979Y-99122200D02*
X105663217Y-99169819D01*
X105663217Y-99169819D02*
X105853693Y-99169819D01*
X105853693Y-99169819D02*
X105948931Y-99122200D01*
X104615598Y-99169819D02*
X104615598Y-98646009D01*
X104615598Y-98646009D02*
X104663217Y-98550771D01*
X104663217Y-98550771D02*
X104758455Y-98503152D01*
X104758455Y-98503152D02*
X104948931Y-98503152D01*
X104948931Y-98503152D02*
X105044169Y-98550771D01*
X104615598Y-99122200D02*
X104710836Y-99169819D01*
X104710836Y-99169819D02*
X104948931Y-99169819D01*
X104948931Y-99169819D02*
X105044169Y-99122200D01*
X105044169Y-99122200D02*
X105091788Y-99026961D01*
X105091788Y-99026961D02*
X105091788Y-98931723D01*
X105091788Y-98931723D02*
X105044169Y-98836485D01*
X105044169Y-98836485D02*
X104948931Y-98788866D01*
X104948931Y-98788866D02*
X104710836Y-98788866D01*
X104710836Y-98788866D02*
X104615598Y-98741247D01*
X104282264Y-98503152D02*
X103901312Y-98503152D01*
X104139407Y-98169819D02*
X104139407Y-99026961D01*
X104139407Y-99026961D02*
X104091788Y-99122200D01*
X104091788Y-99122200D02*
X103996550Y-99169819D01*
X103996550Y-99169819D02*
X103901312Y-99169819D01*
X103710835Y-98503152D02*
X103329883Y-98503152D01*
X103567978Y-98169819D02*
X103567978Y-99026961D01*
X103567978Y-99026961D02*
X103520359Y-99122200D01*
X103520359Y-99122200D02*
X103425121Y-99169819D01*
X103425121Y-99169819D02*
X103329883Y-99169819D01*
X102615597Y-99122200D02*
X102710835Y-99169819D01*
X102710835Y-99169819D02*
X102901311Y-99169819D01*
X102901311Y-99169819D02*
X102996549Y-99122200D01*
X102996549Y-99122200D02*
X103044168Y-99026961D01*
X103044168Y-99026961D02*
X103044168Y-98646009D01*
X103044168Y-98646009D02*
X102996549Y-98550771D01*
X102996549Y-98550771D02*
X102901311Y-98503152D01*
X102901311Y-98503152D02*
X102710835Y-98503152D01*
X102710835Y-98503152D02*
X102615597Y-98550771D01*
X102615597Y-98550771D02*
X102567978Y-98646009D01*
X102567978Y-98646009D02*
X102567978Y-98741247D01*
X102567978Y-98741247D02*
X103044168Y-98836485D01*
X102139406Y-99169819D02*
X102139406Y-98503152D01*
X102139406Y-98693628D02*
X102091787Y-98598390D01*
X102091787Y-98598390D02*
X102044168Y-98550771D01*
X102044168Y-98550771D02*
X101948930Y-98503152D01*
X101948930Y-98503152D02*
X101853692Y-98503152D01*
X101615596Y-98503152D02*
X101377501Y-99169819D01*
X101139406Y-98503152D02*
X101377501Y-99169819D01*
X101377501Y-99169819D02*
X101472739Y-99407914D01*
X101472739Y-99407914D02*
X101520358Y-99455533D01*
X101520358Y-99455533D02*
X101615596Y-99503152D01*
X117663220Y-80369819D02*
X117663220Y-79369819D01*
X117663220Y-79750771D02*
X117567982Y-79703152D01*
X117567982Y-79703152D02*
X117377506Y-79703152D01*
X117377506Y-79703152D02*
X117282268Y-79750771D01*
X117282268Y-79750771D02*
X117234649Y-79798390D01*
X117234649Y-79798390D02*
X117187030Y-79893628D01*
X117187030Y-79893628D02*
X117187030Y-80179342D01*
X117187030Y-80179342D02*
X117234649Y-80274580D01*
X117234649Y-80274580D02*
X117282268Y-80322200D01*
X117282268Y-80322200D02*
X117377506Y-80369819D01*
X117377506Y-80369819D02*
X117567982Y-80369819D01*
X117567982Y-80369819D02*
X117663220Y-80322200D01*
X116329887Y-79703152D02*
X116329887Y-80369819D01*
X116758458Y-79703152D02*
X116758458Y-80226961D01*
X116758458Y-80226961D02*
X116710839Y-80322200D01*
X116710839Y-80322200D02*
X116615601Y-80369819D01*
X116615601Y-80369819D02*
X116472744Y-80369819D01*
X116472744Y-80369819D02*
X116377506Y-80322200D01*
X116377506Y-80322200D02*
X116329887Y-80274580D01*
X115996553Y-79703152D02*
X115615601Y-79703152D01*
X115853696Y-79369819D02*
X115853696Y-80226961D01*
X115853696Y-80226961D02*
X115806077Y-80322200D01*
X115806077Y-80322200D02*
X115710839Y-80369819D01*
X115710839Y-80369819D02*
X115615601Y-80369819D01*
X115425124Y-79703152D02*
X115044172Y-79703152D01*
X115282267Y-79369819D02*
X115282267Y-80226961D01*
X115282267Y-80226961D02*
X115234648Y-80322200D01*
X115234648Y-80322200D02*
X115139410Y-80369819D01*
X115139410Y-80369819D02*
X115044172Y-80369819D01*
X114567981Y-80369819D02*
X114663219Y-80322200D01*
X114663219Y-80322200D02*
X114710838Y-80274580D01*
X114710838Y-80274580D02*
X114758457Y-80179342D01*
X114758457Y-80179342D02*
X114758457Y-79893628D01*
X114758457Y-79893628D02*
X114710838Y-79798390D01*
X114710838Y-79798390D02*
X114663219Y-79750771D01*
X114663219Y-79750771D02*
X114567981Y-79703152D01*
X114567981Y-79703152D02*
X114425124Y-79703152D01*
X114425124Y-79703152D02*
X114329886Y-79750771D01*
X114329886Y-79750771D02*
X114282267Y-79798390D01*
X114282267Y-79798390D02*
X114234648Y-79893628D01*
X114234648Y-79893628D02*
X114234648Y-80179342D01*
X114234648Y-80179342D02*
X114282267Y-80274580D01*
X114282267Y-80274580D02*
X114329886Y-80322200D01*
X114329886Y-80322200D02*
X114425124Y-80369819D01*
X114425124Y-80369819D02*
X114567981Y-80369819D01*
X113806076Y-79703152D02*
X113806076Y-80369819D01*
X113806076Y-79798390D02*
X113758457Y-79750771D01*
X113758457Y-79750771D02*
X113663219Y-79703152D01*
X113663219Y-79703152D02*
X113520362Y-79703152D01*
X113520362Y-79703152D02*
X113425124Y-79750771D01*
X113425124Y-79750771D02*
X113377505Y-79846009D01*
X113377505Y-79846009D02*
X113377505Y-80369819D01*
X111853695Y-80750771D02*
X111901314Y-80703152D01*
X111901314Y-80703152D02*
X111996552Y-80560295D01*
X111996552Y-80560295D02*
X112044171Y-80465057D01*
X112044171Y-80465057D02*
X112091790Y-80322200D01*
X112091790Y-80322200D02*
X112139409Y-80084104D01*
X112139409Y-80084104D02*
X112139409Y-79893628D01*
X112139409Y-79893628D02*
X112091790Y-79655533D01*
X112091790Y-79655533D02*
X112044171Y-79512676D01*
X112044171Y-79512676D02*
X111996552Y-79417438D01*
X111996552Y-79417438D02*
X111901314Y-79274580D01*
X111901314Y-79274580D02*
X111853695Y-79226961D01*
X111472742Y-80369819D02*
X111472742Y-79369819D01*
X111472742Y-79750771D02*
X111377504Y-79703152D01*
X111377504Y-79703152D02*
X111187028Y-79703152D01*
X111187028Y-79703152D02*
X111091790Y-79750771D01*
X111091790Y-79750771D02*
X111044171Y-79798390D01*
X111044171Y-79798390D02*
X110996552Y-79893628D01*
X110996552Y-79893628D02*
X110996552Y-80179342D01*
X110996552Y-80179342D02*
X111044171Y-80274580D01*
X111044171Y-80274580D02*
X111091790Y-80322200D01*
X111091790Y-80322200D02*
X111187028Y-80369819D01*
X111187028Y-80369819D02*
X111377504Y-80369819D01*
X111377504Y-80369819D02*
X111472742Y-80322200D01*
X110187028Y-80322200D02*
X110282266Y-80369819D01*
X110282266Y-80369819D02*
X110472742Y-80369819D01*
X110472742Y-80369819D02*
X110567980Y-80322200D01*
X110567980Y-80322200D02*
X110615599Y-80226961D01*
X110615599Y-80226961D02*
X110615599Y-79846009D01*
X110615599Y-79846009D02*
X110567980Y-79750771D01*
X110567980Y-79750771D02*
X110472742Y-79703152D01*
X110472742Y-79703152D02*
X110282266Y-79703152D01*
X110282266Y-79703152D02*
X110187028Y-79750771D01*
X110187028Y-79750771D02*
X110139409Y-79846009D01*
X110139409Y-79846009D02*
X110139409Y-79941247D01*
X110139409Y-79941247D02*
X110615599Y-80036485D01*
X109710837Y-79703152D02*
X109710837Y-80369819D01*
X109710837Y-79798390D02*
X109663218Y-79750771D01*
X109663218Y-79750771D02*
X109567980Y-79703152D01*
X109567980Y-79703152D02*
X109425123Y-79703152D01*
X109425123Y-79703152D02*
X109329885Y-79750771D01*
X109329885Y-79750771D02*
X109282266Y-79846009D01*
X109282266Y-79846009D02*
X109282266Y-80369819D01*
X108377504Y-80369819D02*
X108377504Y-79369819D01*
X108377504Y-80322200D02*
X108472742Y-80369819D01*
X108472742Y-80369819D02*
X108663218Y-80369819D01*
X108663218Y-80369819D02*
X108758456Y-80322200D01*
X108758456Y-80322200D02*
X108806075Y-80274580D01*
X108806075Y-80274580D02*
X108853694Y-80179342D01*
X108853694Y-80179342D02*
X108853694Y-79893628D01*
X108853694Y-79893628D02*
X108806075Y-79798390D01*
X108806075Y-79798390D02*
X108758456Y-79750771D01*
X108758456Y-79750771D02*
X108663218Y-79703152D01*
X108663218Y-79703152D02*
X108472742Y-79703152D01*
X108472742Y-79703152D02*
X108377504Y-79750771D01*
X106996551Y-80369819D02*
X107091789Y-80322200D01*
X107091789Y-80322200D02*
X107139408Y-80226961D01*
X107139408Y-80226961D02*
X107139408Y-79369819D01*
X106234646Y-80322200D02*
X106329884Y-80369819D01*
X106329884Y-80369819D02*
X106520360Y-80369819D01*
X106520360Y-80369819D02*
X106615598Y-80322200D01*
X106615598Y-80322200D02*
X106663217Y-80226961D01*
X106663217Y-80226961D02*
X106663217Y-79846009D01*
X106663217Y-79846009D02*
X106615598Y-79750771D01*
X106615598Y-79750771D02*
X106520360Y-79703152D01*
X106520360Y-79703152D02*
X106329884Y-79703152D01*
X106329884Y-79703152D02*
X106234646Y-79750771D01*
X106234646Y-79750771D02*
X106187027Y-79846009D01*
X106187027Y-79846009D02*
X106187027Y-79941247D01*
X106187027Y-79941247D02*
X106663217Y-80036485D01*
X105329884Y-79703152D02*
X105329884Y-80512676D01*
X105329884Y-80512676D02*
X105377503Y-80607914D01*
X105377503Y-80607914D02*
X105425122Y-80655533D01*
X105425122Y-80655533D02*
X105520360Y-80703152D01*
X105520360Y-80703152D02*
X105663217Y-80703152D01*
X105663217Y-80703152D02*
X105758455Y-80655533D01*
X105329884Y-80322200D02*
X105425122Y-80369819D01*
X105425122Y-80369819D02*
X105615598Y-80369819D01*
X105615598Y-80369819D02*
X105710836Y-80322200D01*
X105710836Y-80322200D02*
X105758455Y-80274580D01*
X105758455Y-80274580D02*
X105806074Y-80179342D01*
X105806074Y-80179342D02*
X105806074Y-79893628D01*
X105806074Y-79893628D02*
X105758455Y-79798390D01*
X105758455Y-79798390D02*
X105710836Y-79750771D01*
X105710836Y-79750771D02*
X105615598Y-79703152D01*
X105615598Y-79703152D02*
X105425122Y-79703152D01*
X105425122Y-79703152D02*
X105329884Y-79750771D01*
X104901312Y-80322200D02*
X104806074Y-80369819D01*
X104806074Y-80369819D02*
X104615598Y-80369819D01*
X104615598Y-80369819D02*
X104520360Y-80322200D01*
X104520360Y-80322200D02*
X104472741Y-80226961D01*
X104472741Y-80226961D02*
X104472741Y-80179342D01*
X104472741Y-80179342D02*
X104520360Y-80084104D01*
X104520360Y-80084104D02*
X104615598Y-80036485D01*
X104615598Y-80036485D02*
X104758455Y-80036485D01*
X104758455Y-80036485D02*
X104853693Y-79988866D01*
X104853693Y-79988866D02*
X104901312Y-79893628D01*
X104901312Y-79893628D02*
X104901312Y-79846009D01*
X104901312Y-79846009D02*
X104853693Y-79750771D01*
X104853693Y-79750771D02*
X104758455Y-79703152D01*
X104758455Y-79703152D02*
X104615598Y-79703152D01*
X104615598Y-79703152D02*
X104520360Y-79750771D01*
X104139407Y-80750771D02*
X104091788Y-80703152D01*
X104091788Y-80703152D02*
X103996550Y-80560295D01*
X103996550Y-80560295D02*
X103948931Y-80465057D01*
X103948931Y-80465057D02*
X103901312Y-80322200D01*
X103901312Y-80322200D02*
X103853693Y-80084104D01*
X103853693Y-80084104D02*
X103853693Y-79893628D01*
X103853693Y-79893628D02*
X103901312Y-79655533D01*
X103901312Y-79655533D02*
X103948931Y-79512676D01*
X103948931Y-79512676D02*
X103996550Y-79417438D01*
X103996550Y-79417438D02*
X104091788Y-79274580D01*
X104091788Y-79274580D02*
X104139407Y-79226961D01*
X117187030Y-108869819D02*
X117663220Y-108869819D01*
X117663220Y-108869819D02*
X117663220Y-107869819D01*
X116853696Y-108346009D02*
X116520363Y-108346009D01*
X116377506Y-108869819D02*
X116853696Y-108869819D01*
X116853696Y-108869819D02*
X116853696Y-107869819D01*
X116853696Y-107869819D02*
X116377506Y-107869819D01*
X115948934Y-108869819D02*
X115948934Y-107869819D01*
X115948934Y-107869819D02*
X115710839Y-107869819D01*
X115710839Y-107869819D02*
X115567982Y-107917438D01*
X115567982Y-107917438D02*
X115472744Y-108012676D01*
X115472744Y-108012676D02*
X115425125Y-108107914D01*
X115425125Y-108107914D02*
X115377506Y-108298390D01*
X115377506Y-108298390D02*
X115377506Y-108441247D01*
X115377506Y-108441247D02*
X115425125Y-108631723D01*
X115425125Y-108631723D02*
X115472744Y-108726961D01*
X115472744Y-108726961D02*
X115567982Y-108822200D01*
X115567982Y-108822200D02*
X115710839Y-108869819D01*
X115710839Y-108869819D02*
X115948934Y-108869819D01*
X114901315Y-107869819D02*
X114996553Y-108060295D01*
X114520363Y-108822200D02*
X114425125Y-108869819D01*
X114425125Y-108869819D02*
X114234649Y-108869819D01*
X114234649Y-108869819D02*
X114139411Y-108822200D01*
X114139411Y-108822200D02*
X114091792Y-108726961D01*
X114091792Y-108726961D02*
X114091792Y-108679342D01*
X114091792Y-108679342D02*
X114139411Y-108584104D01*
X114139411Y-108584104D02*
X114234649Y-108536485D01*
X114234649Y-108536485D02*
X114377506Y-108536485D01*
X114377506Y-108536485D02*
X114472744Y-108488866D01*
X114472744Y-108488866D02*
X114520363Y-108393628D01*
X114520363Y-108393628D02*
X114520363Y-108346009D01*
X114520363Y-108346009D02*
X114472744Y-108250771D01*
X114472744Y-108250771D02*
X114377506Y-108203152D01*
X114377506Y-108203152D02*
X114234649Y-108203152D01*
X114234649Y-108203152D02*
X114139411Y-108250771D01*
X112758458Y-108869819D02*
X112853696Y-108822200D01*
X112853696Y-108822200D02*
X112901315Y-108726961D01*
X112901315Y-108726961D02*
X112901315Y-107869819D01*
X112234648Y-108869819D02*
X112329886Y-108822200D01*
X112329886Y-108822200D02*
X112377505Y-108774580D01*
X112377505Y-108774580D02*
X112425124Y-108679342D01*
X112425124Y-108679342D02*
X112425124Y-108393628D01*
X112425124Y-108393628D02*
X112377505Y-108298390D01*
X112377505Y-108298390D02*
X112329886Y-108250771D01*
X112329886Y-108250771D02*
X112234648Y-108203152D01*
X112234648Y-108203152D02*
X112091791Y-108203152D01*
X112091791Y-108203152D02*
X111996553Y-108250771D01*
X111996553Y-108250771D02*
X111948934Y-108298390D01*
X111948934Y-108298390D02*
X111901315Y-108393628D01*
X111901315Y-108393628D02*
X111901315Y-108679342D01*
X111901315Y-108679342D02*
X111948934Y-108774580D01*
X111948934Y-108774580D02*
X111996553Y-108822200D01*
X111996553Y-108822200D02*
X112091791Y-108869819D01*
X112091791Y-108869819D02*
X112234648Y-108869819D01*
X111472743Y-108203152D02*
X111472743Y-108869819D01*
X111472743Y-108298390D02*
X111425124Y-108250771D01*
X111425124Y-108250771D02*
X111329886Y-108203152D01*
X111329886Y-108203152D02*
X111187029Y-108203152D01*
X111187029Y-108203152D02*
X111091791Y-108250771D01*
X111091791Y-108250771D02*
X111044172Y-108346009D01*
X111044172Y-108346009D02*
X111044172Y-108869819D01*
X110139410Y-108203152D02*
X110139410Y-109012676D01*
X110139410Y-109012676D02*
X110187029Y-109107914D01*
X110187029Y-109107914D02*
X110234648Y-109155533D01*
X110234648Y-109155533D02*
X110329886Y-109203152D01*
X110329886Y-109203152D02*
X110472743Y-109203152D01*
X110472743Y-109203152D02*
X110567981Y-109155533D01*
X110139410Y-108822200D02*
X110234648Y-108869819D01*
X110234648Y-108869819D02*
X110425124Y-108869819D01*
X110425124Y-108869819D02*
X110520362Y-108822200D01*
X110520362Y-108822200D02*
X110567981Y-108774580D01*
X110567981Y-108774580D02*
X110615600Y-108679342D01*
X110615600Y-108679342D02*
X110615600Y-108393628D01*
X110615600Y-108393628D02*
X110567981Y-108298390D01*
X110567981Y-108298390D02*
X110520362Y-108250771D01*
X110520362Y-108250771D02*
X110425124Y-108203152D01*
X110425124Y-108203152D02*
X110234648Y-108203152D01*
X110234648Y-108203152D02*
X110139410Y-108250771D01*
X108758457Y-108869819D02*
X108853695Y-108822200D01*
X108853695Y-108822200D02*
X108901314Y-108726961D01*
X108901314Y-108726961D02*
X108901314Y-107869819D01*
X107996552Y-108822200D02*
X108091790Y-108869819D01*
X108091790Y-108869819D02*
X108282266Y-108869819D01*
X108282266Y-108869819D02*
X108377504Y-108822200D01*
X108377504Y-108822200D02*
X108425123Y-108726961D01*
X108425123Y-108726961D02*
X108425123Y-108346009D01*
X108425123Y-108346009D02*
X108377504Y-108250771D01*
X108377504Y-108250771D02*
X108282266Y-108203152D01*
X108282266Y-108203152D02*
X108091790Y-108203152D01*
X108091790Y-108203152D02*
X107996552Y-108250771D01*
X107996552Y-108250771D02*
X107948933Y-108346009D01*
X107948933Y-108346009D02*
X107948933Y-108441247D01*
X107948933Y-108441247D02*
X108425123Y-108536485D01*
X107091790Y-108203152D02*
X107091790Y-109012676D01*
X107091790Y-109012676D02*
X107139409Y-109107914D01*
X107139409Y-109107914D02*
X107187028Y-109155533D01*
X107187028Y-109155533D02*
X107282266Y-109203152D01*
X107282266Y-109203152D02*
X107425123Y-109203152D01*
X107425123Y-109203152D02*
X107520361Y-109155533D01*
X107091790Y-108822200D02*
X107187028Y-108869819D01*
X107187028Y-108869819D02*
X107377504Y-108869819D01*
X107377504Y-108869819D02*
X107472742Y-108822200D01*
X107472742Y-108822200D02*
X107520361Y-108774580D01*
X107520361Y-108774580D02*
X107567980Y-108679342D01*
X107567980Y-108679342D02*
X107567980Y-108393628D01*
X107567980Y-108393628D02*
X107520361Y-108298390D01*
X107520361Y-108298390D02*
X107472742Y-108250771D01*
X107472742Y-108250771D02*
X107377504Y-108203152D01*
X107377504Y-108203152D02*
X107187028Y-108203152D01*
X107187028Y-108203152D02*
X107091790Y-108250771D01*
X105853694Y-108346009D02*
X105091790Y-108346009D01*
X105091790Y-108631723D02*
X105853694Y-108631723D01*
X103853694Y-108488866D02*
X103091790Y-108488866D01*
X103472742Y-108869819D02*
X103472742Y-108107914D01*
X134663220Y-88488866D02*
X133901316Y-88488866D01*
X131163220Y-89488866D02*
X130401316Y-89488866D01*
X130782268Y-89869819D02*
X130782268Y-89107914D01*
D10*
X88445489Y-88729400D02*
X87302632Y-88729400D01*
D12*
X92019502Y-89235250D02*
X90876645Y-89235250D01*
X91448073Y-89806678D02*
X91448073Y-88663821D01*
D11*
X97660714Y-102231009D02*
X97517857Y-102278628D01*
X97517857Y-102278628D02*
X97470238Y-102326247D01*
X97470238Y-102326247D02*
X97422619Y-102421485D01*
X97422619Y-102421485D02*
X97422619Y-102564342D01*
X97422619Y-102564342D02*
X97470238Y-102659580D01*
X97470238Y-102659580D02*
X97517857Y-102707200D01*
X97517857Y-102707200D02*
X97613095Y-102754819D01*
X97613095Y-102754819D02*
X97994047Y-102754819D01*
X97994047Y-102754819D02*
X97994047Y-101754819D01*
X97994047Y-101754819D02*
X97660714Y-101754819D01*
X97660714Y-101754819D02*
X97565476Y-101802438D01*
X97565476Y-101802438D02*
X97517857Y-101850057D01*
X97517857Y-101850057D02*
X97470238Y-101945295D01*
X97470238Y-101945295D02*
X97470238Y-102040533D01*
X97470238Y-102040533D02*
X97517857Y-102135771D01*
X97517857Y-102135771D02*
X97565476Y-102183390D01*
X97565476Y-102183390D02*
X97660714Y-102231009D01*
X97660714Y-102231009D02*
X97994047Y-102231009D01*
X97136904Y-101754819D02*
X96565476Y-101754819D01*
X96851190Y-102754819D02*
X96851190Y-101754819D01*
X95708333Y-102754819D02*
X96279761Y-102754819D01*
X95994047Y-102754819D02*
X95994047Y-101754819D01*
X95994047Y-101754819D02*
X96089285Y-101897676D01*
X96089285Y-101897676D02*
X96184523Y-101992914D01*
X96184523Y-101992914D02*
X96279761Y-102040533D01*
D13*
%TO.C,D1*%
X135290000Y-90955000D02*
X135290000Y-94045000D01*
X129740000Y-92500000D02*
G75*
G02*
X135290000Y-90955170I2990000J0D01*
G01*
X135290000Y-94044830D02*
G75*
G02*
X129740000Y-92500000I-2560000J1544830D01*
G01*
X135230000Y-92500000D02*
G75*
G02*
X130230000Y-92500000I-2500000J0D01*
G01*
X130230000Y-92500000D02*
G75*
G02*
X135230000Y-92500000I2500000J0D01*
G01*
D14*
%TO.C,G\u002A\u002A\u002A*%
G36*
X130840520Y-87504157D02*
G01*
X130840520Y-87633911D01*
X130968752Y-87635720D01*
X131096985Y-87637529D01*
X131098942Y-87685824D01*
X131100899Y-87734120D01*
X130970709Y-87734120D01*
X130840520Y-87734120D01*
X130840520Y-87867348D01*
X130840520Y-88000576D01*
X130783898Y-88000576D01*
X130727276Y-88000576D01*
X130727276Y-87867348D01*
X130727276Y-87734120D01*
X130600709Y-87734120D01*
X130474142Y-87734120D01*
X130474142Y-87684159D01*
X130474142Y-87634198D01*
X130600709Y-87634198D01*
X130727276Y-87634198D01*
X130727276Y-87504301D01*
X130727276Y-87374403D01*
X130783898Y-87374403D01*
X130840520Y-87374403D01*
X130840520Y-87504157D01*
G37*
G36*
X132346001Y-87800633D02*
G01*
X132346001Y-87854025D01*
X132149209Y-87854025D01*
X131952417Y-87854025D01*
X131954362Y-87802399D01*
X131956308Y-87750773D01*
X132151154Y-87749007D01*
X132346001Y-87747241D01*
X132346001Y-87800633D01*
G37*
G36*
X132792760Y-84182779D02*
G01*
X132917980Y-84184846D01*
X132940428Y-84185222D01*
X132978536Y-84185989D01*
X133006448Y-84186969D01*
X133026277Y-84188449D01*
X133040137Y-84190717D01*
X133050143Y-84194059D01*
X133058408Y-84198763D01*
X133067046Y-84205117D01*
X133077738Y-84214394D01*
X133098510Y-84243004D01*
X133108654Y-84275449D01*
X133108439Y-84309060D01*
X133098136Y-84341166D01*
X133078014Y-84369098D01*
X133048343Y-84390185D01*
X133042770Y-84392734D01*
X133036134Y-84395099D01*
X133027838Y-84397088D01*
X133016823Y-84398731D01*
X133002027Y-84400062D01*
X132982392Y-84401114D01*
X132956855Y-84401919D01*
X132924358Y-84402511D01*
X132883840Y-84402922D01*
X132834240Y-84403184D01*
X132774498Y-84403331D01*
X132703554Y-84403395D01*
X132620347Y-84403409D01*
X132219434Y-84403409D01*
X132219434Y-85221779D01*
X132219434Y-86040148D01*
X132204446Y-86062171D01*
X132183915Y-86086724D01*
X132155695Y-86105391D01*
X132121184Y-86113728D01*
X132111377Y-86114257D01*
X132074813Y-86108566D01*
X132043062Y-86091406D01*
X132018597Y-86063975D01*
X132002938Y-86038788D01*
X132001169Y-85221098D01*
X131999401Y-84403409D01*
X131449937Y-84403409D01*
X130900473Y-84403409D01*
X130900435Y-85754012D01*
X130900430Y-85816436D01*
X130900369Y-85991691D01*
X130900241Y-86154752D01*
X130900048Y-86305533D01*
X130899788Y-86443946D01*
X130899464Y-86569905D01*
X130899076Y-86683324D01*
X130898622Y-86784114D01*
X130898106Y-86872190D01*
X130897525Y-86947465D01*
X130896882Y-87009851D01*
X130896176Y-87059261D01*
X130895408Y-87095610D01*
X130894579Y-87118809D01*
X130893688Y-87128773D01*
X130881421Y-87154736D01*
X130858834Y-87180282D01*
X130830528Y-87198538D01*
X130823837Y-87201159D01*
X130790399Y-87206302D01*
X130756165Y-87200500D01*
X130724801Y-87184825D01*
X130699971Y-87160348D01*
X130683976Y-87137922D01*
X130682264Y-85770832D01*
X130680551Y-84403741D01*
X130319216Y-84401910D01*
X129957881Y-84400078D01*
X129936081Y-84384529D01*
X129931703Y-84381237D01*
X129906816Y-84353514D01*
X129892310Y-84319337D01*
X129889602Y-84281832D01*
X129895865Y-84252596D01*
X129912691Y-84223500D01*
X129941160Y-84198570D01*
X129948539Y-84193885D01*
X129957489Y-84189765D01*
X129968826Y-84186918D01*
X129984737Y-84185109D01*
X130007409Y-84184105D01*
X130039029Y-84183674D01*
X130081785Y-84183582D01*
X130200388Y-84183582D01*
X130200404Y-84176921D01*
X130420028Y-84176921D01*
X131151530Y-84176928D01*
X131206525Y-84176940D01*
X131314244Y-84177029D01*
X131423421Y-84177199D01*
X131532579Y-84177443D01*
X131640239Y-84177756D01*
X131744924Y-84178130D01*
X131845154Y-84178561D01*
X131939452Y-84179043D01*
X132026340Y-84179568D01*
X132104340Y-84180131D01*
X132171973Y-84180726D01*
X132227761Y-84181347D01*
X132572489Y-84185760D01*
X132572489Y-83222801D01*
X132572489Y-83199850D01*
X132572482Y-83060766D01*
X132572442Y-82934206D01*
X132572340Y-82819479D01*
X132572149Y-82715893D01*
X132571841Y-82622758D01*
X132571386Y-82539383D01*
X132570758Y-82465077D01*
X132569927Y-82399148D01*
X132568865Y-82340906D01*
X132567545Y-82289660D01*
X132565937Y-82244718D01*
X132564014Y-82205391D01*
X132561747Y-82170986D01*
X132559109Y-82140813D01*
X132556070Y-82114180D01*
X132552603Y-82090398D01*
X132548679Y-82068774D01*
X132544270Y-82048618D01*
X132539348Y-82029239D01*
X132533884Y-82009946D01*
X132527851Y-81990048D01*
X132521220Y-81968853D01*
X132507608Y-81928437D01*
X132462211Y-81821243D01*
X132405837Y-81720698D01*
X132339236Y-81627439D01*
X132263163Y-81542101D01*
X132178367Y-81465320D01*
X132085602Y-81397733D01*
X131985619Y-81339974D01*
X131879170Y-81292680D01*
X131767007Y-81256486D01*
X131649882Y-81232029D01*
X131623252Y-81228874D01*
X131579498Y-81225940D01*
X131529379Y-81224383D01*
X131476805Y-81224203D01*
X131425686Y-81225401D01*
X131379934Y-81227979D01*
X131343457Y-81231937D01*
X131321175Y-81235611D01*
X131229765Y-81256051D01*
X131137854Y-81284566D01*
X131049895Y-81319630D01*
X130970339Y-81359721D01*
X130929454Y-81384245D01*
X130834023Y-81451916D01*
X130746725Y-81529097D01*
X130668355Y-81614756D01*
X130599709Y-81707865D01*
X130541580Y-81807392D01*
X130494762Y-81912307D01*
X130460051Y-82021580D01*
X130457670Y-82030840D01*
X130453272Y-82047836D01*
X130449289Y-82063570D01*
X130445701Y-82078736D01*
X130442485Y-82094028D01*
X130439618Y-82110142D01*
X130437078Y-82127771D01*
X130434842Y-82147610D01*
X130432889Y-82170354D01*
X130431195Y-82196697D01*
X130429739Y-82227334D01*
X130428498Y-82262960D01*
X130427449Y-82304268D01*
X130426571Y-82351953D01*
X130425841Y-82406711D01*
X130425237Y-82469235D01*
X130424735Y-82540220D01*
X130424314Y-82620360D01*
X130423952Y-82710350D01*
X130423626Y-82810885D01*
X130423313Y-82922660D01*
X130422992Y-83046367D01*
X130422640Y-83182703D01*
X130420028Y-84176921D01*
X130200404Y-84176921D01*
X130202806Y-83176042D01*
X130203075Y-83064957D01*
X130203389Y-82939777D01*
X130203693Y-82826697D01*
X130203998Y-82725043D01*
X130204313Y-82634140D01*
X130204649Y-82553314D01*
X130205017Y-82481890D01*
X130205425Y-82419193D01*
X130205884Y-82364550D01*
X130206405Y-82317285D01*
X130206997Y-82276724D01*
X130207671Y-82242192D01*
X130208436Y-82213015D01*
X130209303Y-82188519D01*
X130210282Y-82168028D01*
X130211383Y-82150869D01*
X130212616Y-82136367D01*
X130213991Y-82123847D01*
X130215519Y-82112634D01*
X130217209Y-82102055D01*
X130219072Y-82091434D01*
X130225110Y-82059760D01*
X130257796Y-81928853D01*
X130301642Y-81804238D01*
X130356335Y-81686458D01*
X130421562Y-81576059D01*
X130497010Y-81473584D01*
X130582365Y-81379579D01*
X130677315Y-81294586D01*
X130768616Y-81226533D01*
X130879480Y-81158049D01*
X130994013Y-81102302D01*
X131112607Y-81059152D01*
X131235653Y-81028461D01*
X131363544Y-81010090D01*
X131496670Y-81003899D01*
X131602352Y-81007388D01*
X131726733Y-81021834D01*
X131845969Y-81047860D01*
X131961491Y-81085872D01*
X132074728Y-81136276D01*
X132187110Y-81199475D01*
X132253331Y-81243612D01*
X132352604Y-81322504D01*
X132443581Y-81411072D01*
X132525556Y-81508353D01*
X132597820Y-81613383D01*
X132659666Y-81725199D01*
X132710387Y-81842835D01*
X132749274Y-81965329D01*
X132749627Y-81966670D01*
X132754715Y-81985775D01*
X132759337Y-82003066D01*
X132763516Y-82019231D01*
X132767276Y-82034958D01*
X132770640Y-82050935D01*
X132773633Y-82067850D01*
X132776277Y-82086392D01*
X132778597Y-82107247D01*
X132780616Y-82131105D01*
X132782358Y-82158653D01*
X132783847Y-82190580D01*
X132785105Y-82227572D01*
X132786158Y-82270320D01*
X132787028Y-82319509D01*
X132787739Y-82375829D01*
X132788314Y-82439967D01*
X132788779Y-82512612D01*
X132789155Y-82594452D01*
X132789467Y-82686174D01*
X132789739Y-82788466D01*
X132789994Y-82902018D01*
X132790255Y-83027516D01*
X132790547Y-83165648D01*
X132790621Y-83199850D01*
X132792760Y-84182779D01*
G37*
G36*
X131173591Y-86934749D02*
G01*
X131173591Y-86974718D01*
X131346788Y-86974718D01*
X131519985Y-86974718D01*
X131519985Y-87038001D01*
X131519985Y-87101285D01*
X131500001Y-87101285D01*
X131480016Y-87101285D01*
X131480016Y-87061316D01*
X131480016Y-87021347D01*
X131326804Y-87021347D01*
X131173591Y-87021347D01*
X131173591Y-87064647D01*
X131173591Y-87107946D01*
X131153607Y-87107946D01*
X131133622Y-87107946D01*
X131133622Y-87001363D01*
X131133622Y-86894780D01*
X131153607Y-86894780D01*
X131173591Y-86894780D01*
X131173591Y-86934749D01*
G37*
G36*
X131412415Y-86701462D02*
G01*
X131405543Y-86737125D01*
X131387606Y-86768894D01*
X131359457Y-86794852D01*
X131321951Y-86813081D01*
X131309407Y-86816081D01*
X131280305Y-86818605D01*
X131247995Y-86817516D01*
X131217896Y-86813127D01*
X131195428Y-86805752D01*
X131183546Y-86798557D01*
X131157721Y-86774675D01*
X131140727Y-86746130D01*
X131138135Y-86736583D01*
X131134995Y-86711811D01*
X131133839Y-86681045D01*
X131134773Y-86648902D01*
X131137898Y-86619997D01*
X131141717Y-86603822D01*
X131148451Y-86596575D01*
X131161669Y-86595017D01*
X131173889Y-86595814D01*
X131178833Y-86601123D01*
X131176903Y-86615085D01*
X131176415Y-86617410D01*
X131172936Y-86645988D01*
X131172534Y-86677588D01*
X131175048Y-86706845D01*
X131180316Y-86728398D01*
X131193652Y-86747530D01*
X131216461Y-86762552D01*
X131243205Y-86768213D01*
X131260189Y-86768213D01*
X131260189Y-86698269D01*
X131293496Y-86698269D01*
X131293513Y-86714327D01*
X131293847Y-86740044D01*
X131295002Y-86755907D01*
X131297489Y-86764280D01*
X131301813Y-86767526D01*
X131308485Y-86768011D01*
X131329157Y-86764182D01*
X131351961Y-86749670D01*
X131367436Y-86726821D01*
X131373137Y-86698269D01*
X131369314Y-86674953D01*
X131355472Y-86650851D01*
X131333937Y-86634406D01*
X131307257Y-86628324D01*
X131305113Y-86628372D01*
X131299692Y-86629877D01*
X131296285Y-86635257D01*
X131294426Y-86646875D01*
X131293651Y-86667092D01*
X131293496Y-86698269D01*
X131260189Y-86698269D01*
X131260189Y-86674954D01*
X131260189Y-86581694D01*
X131292085Y-86581694D01*
X131309373Y-86582734D01*
X131346456Y-86592900D01*
X131376888Y-86612875D01*
X131398414Y-86641393D01*
X131407366Y-86663824D01*
X131411987Y-86698269D01*
X131412415Y-86701462D01*
G37*
G36*
X131182432Y-86400749D02*
G01*
X131183618Y-86416841D01*
X131187977Y-86443893D01*
X131195377Y-86459603D01*
X131206660Y-86465253D01*
X131222666Y-86462125D01*
X131230204Y-86458909D01*
X131236815Y-86452351D01*
X131233812Y-86442305D01*
X131229103Y-86428062D01*
X131227343Y-86401349D01*
X131228593Y-86391248D01*
X131262555Y-86391248D01*
X131265271Y-86418285D01*
X131280343Y-86441973D01*
X131292548Y-86450254D01*
X131315538Y-86455392D01*
X131339270Y-86451977D01*
X131358184Y-86440138D01*
X131368153Y-86427375D01*
X131377085Y-86403381D01*
X131373341Y-86378278D01*
X131365438Y-86362804D01*
X131347388Y-86347243D01*
X131321370Y-86342094D01*
X131299313Y-86344255D01*
X131279971Y-86354543D01*
X131267010Y-86374806D01*
X131262555Y-86391248D01*
X131228593Y-86391248D01*
X131231024Y-86371595D01*
X131239828Y-86343990D01*
X131250167Y-86325807D01*
X131270593Y-86306801D01*
X131298197Y-86297529D01*
X131334706Y-86297139D01*
X131373434Y-86300651D01*
X131373434Y-86281298D01*
X131373691Y-86274472D01*
X131377707Y-86264427D01*
X131389063Y-86261945D01*
X131395199Y-86262355D01*
X131399900Y-86265079D01*
X131403095Y-86272317D01*
X131405325Y-86286266D01*
X131407132Y-86309125D01*
X131409056Y-86343092D01*
X131409609Y-86353600D01*
X131410952Y-86385877D01*
X131410940Y-86403381D01*
X131410936Y-86408743D01*
X131409309Y-86425259D01*
X131405824Y-86438487D01*
X131400229Y-86451485D01*
X131396979Y-86457543D01*
X131382815Y-86476843D01*
X131367551Y-86490245D01*
X131361680Y-86493254D01*
X131334325Y-86500407D01*
X131303805Y-86500699D01*
X131276806Y-86493866D01*
X131270521Y-86491310D01*
X131256586Y-86490027D01*
X131240492Y-86497197D01*
X131233816Y-86500666D01*
X131208945Y-86507450D01*
X131184656Y-86506445D01*
X131166041Y-86497622D01*
X131163808Y-86495649D01*
X131155777Y-86491021D01*
X131147158Y-86493587D01*
X131133363Y-86504283D01*
X131111260Y-86517571D01*
X131085829Y-86520836D01*
X131061791Y-86511344D01*
X131059578Y-86509728D01*
X131042705Y-86490853D01*
X131031269Y-86463180D01*
X131024406Y-86424709D01*
X131023124Y-86408946D01*
X131023932Y-86390998D01*
X131060734Y-86390998D01*
X131061586Y-86420336D01*
X131066689Y-86444296D01*
X131073057Y-86456550D01*
X131088398Y-86468840D01*
X131107503Y-86468957D01*
X131128626Y-86456556D01*
X131135574Y-86443857D01*
X131139872Y-86421963D01*
X131141255Y-86395287D01*
X131139740Y-86368000D01*
X131135344Y-86344278D01*
X131128085Y-86328293D01*
X131119245Y-86320519D01*
X131102044Y-86316758D01*
X131084710Y-86324050D01*
X131070460Y-86341648D01*
X131063907Y-86362450D01*
X131060734Y-86390998D01*
X131023932Y-86390998D01*
X131025229Y-86362173D01*
X131036553Y-86322604D01*
X131056720Y-86291778D01*
X131072790Y-86276950D01*
X131087964Y-86270204D01*
X131108836Y-86268607D01*
X131127825Y-86269791D01*
X131142602Y-86275615D01*
X131156080Y-86288787D01*
X131157607Y-86290630D01*
X131166363Y-86303200D01*
X131172550Y-86317631D01*
X131176840Y-86336790D01*
X131179910Y-86363541D01*
X131182062Y-86395287D01*
X131182432Y-86400749D01*
G37*
G36*
X131381263Y-86050886D02*
G01*
X131400079Y-86062103D01*
X131409014Y-86073693D01*
X131412489Y-86092737D01*
X131403032Y-86113912D01*
X131388771Y-86125606D01*
X131370416Y-86128261D01*
X131352484Y-86122300D01*
X131338869Y-86109067D01*
X131333465Y-86089906D01*
X131334993Y-86077998D01*
X131345137Y-86060329D01*
X131361755Y-86050794D01*
X131381263Y-86050886D01*
G37*
G36*
X131181420Y-86050886D02*
G01*
X131200237Y-86062103D01*
X131209171Y-86073693D01*
X131212647Y-86092737D01*
X131203190Y-86113912D01*
X131188929Y-86125606D01*
X131170573Y-86128261D01*
X131152641Y-86122300D01*
X131139026Y-86109067D01*
X131133622Y-86089906D01*
X131135150Y-86077998D01*
X131145295Y-86060329D01*
X131161912Y-86050794D01*
X131181420Y-86050886D01*
G37*
G36*
X132496451Y-85798524D02*
G01*
X132505384Y-85801605D01*
X132525396Y-85816358D01*
X132542808Y-85842107D01*
X132558494Y-85880003D01*
X132568427Y-85904685D01*
X132580060Y-85926763D01*
X132590649Y-85940851D01*
X132601130Y-85949545D01*
X132610537Y-85952137D01*
X132621404Y-85946782D01*
X132625646Y-85943344D01*
X132637033Y-85924323D01*
X132642540Y-85896715D01*
X132641861Y-85863291D01*
X132634689Y-85826821D01*
X132633777Y-85820474D01*
X132638647Y-85816470D01*
X132653495Y-85816829D01*
X132675741Y-85818961D01*
X132677527Y-85875583D01*
X132677767Y-85888339D01*
X132675503Y-85926693D01*
X132667736Y-85955146D01*
X132653653Y-85975773D01*
X132632442Y-85990646D01*
X132611802Y-85997941D01*
X132592474Y-85998497D01*
X132586720Y-85996713D01*
X132564417Y-85982952D01*
X132544781Y-85961357D01*
X132531867Y-85936102D01*
X132531771Y-85935801D01*
X132519857Y-85902173D01*
X132507769Y-85874421D01*
X132496656Y-85854892D01*
X132487668Y-85845932D01*
X132472714Y-85843495D01*
X132457150Y-85850887D01*
X132446331Y-85869175D01*
X132440818Y-85897297D01*
X132441170Y-85934188D01*
X132443563Y-85957055D01*
X132446693Y-85978267D01*
X132449672Y-85990982D01*
X132451330Y-85997875D01*
X132446677Y-86001469D01*
X132431835Y-86000974D01*
X132425028Y-86000256D01*
X132415719Y-85997743D01*
X132410222Y-85991208D01*
X132406679Y-85977590D01*
X132403235Y-85953827D01*
X132401492Y-85937325D01*
X132401893Y-85894157D01*
X132409537Y-85857216D01*
X132423619Y-85827842D01*
X132443335Y-85807375D01*
X132467880Y-85797156D01*
X132496451Y-85798524D01*
G37*
G36*
X132523090Y-85490457D02*
G01*
X132640227Y-85492551D01*
X132660383Y-85515127D01*
X132669633Y-85526159D01*
X132676505Y-85538670D01*
X132678700Y-85553762D01*
X132677715Y-85576752D01*
X132674677Y-85601386D01*
X132668349Y-85619511D01*
X132656997Y-85634478D01*
X132653596Y-85638084D01*
X132643264Y-85649920D01*
X132639104Y-85656226D01*
X132643693Y-85657137D01*
X132659155Y-85657646D01*
X132682946Y-85657538D01*
X132712379Y-85656790D01*
X132785655Y-85654282D01*
X132785655Y-85678334D01*
X132785655Y-85702386D01*
X132595804Y-85702386D01*
X132405954Y-85702386D01*
X132405954Y-85679071D01*
X132405954Y-85655756D01*
X132498439Y-85655756D01*
X132590923Y-85655756D01*
X132615013Y-85629091D01*
X132623911Y-85618574D01*
X132635663Y-85598869D01*
X132639104Y-85579508D01*
X132638337Y-85566884D01*
X132634397Y-85555069D01*
X132625572Y-85546657D01*
X132610177Y-85541090D01*
X132586527Y-85537806D01*
X132552938Y-85536246D01*
X132507724Y-85535851D01*
X132405954Y-85535851D01*
X132405954Y-85512106D01*
X132405954Y-85488362D01*
X132523090Y-85490457D01*
G37*
G36*
X131173591Y-85409284D02*
G01*
X131173591Y-85449252D01*
X131346788Y-85449252D01*
X131519985Y-85449252D01*
X131519985Y-85512536D01*
X131519985Y-85575819D01*
X131500001Y-85575819D01*
X131480016Y-85575819D01*
X131480016Y-85535851D01*
X131480016Y-85495882D01*
X131326804Y-85495882D01*
X131173591Y-85495882D01*
X131173591Y-85539181D01*
X131173591Y-85582480D01*
X131153607Y-85582480D01*
X131133622Y-85582480D01*
X131133622Y-85475898D01*
X131133622Y-85369315D01*
X131153607Y-85369315D01*
X131173591Y-85369315D01*
X131173591Y-85409284D01*
G37*
G36*
X132674946Y-85324725D02*
G01*
X132660563Y-85360454D01*
X132636010Y-85387698D01*
X132601432Y-85406228D01*
X132580202Y-85412051D01*
X132540669Y-85415774D01*
X132500897Y-85411982D01*
X132464951Y-85401224D01*
X132436899Y-85384049D01*
X132427616Y-85373464D01*
X132413884Y-85349823D01*
X132403590Y-85323057D01*
X132399476Y-85299370D01*
X132400112Y-85294582D01*
X132440058Y-85294582D01*
X132447051Y-85320749D01*
X132463037Y-85343343D01*
X132487347Y-85359128D01*
X132518868Y-85367362D01*
X132556671Y-85368074D01*
X132592270Y-85359992D01*
X132621366Y-85343614D01*
X132625895Y-85339017D01*
X132636520Y-85318353D01*
X132640986Y-85292165D01*
X132638158Y-85265716D01*
X132630462Y-85249325D01*
X132611025Y-85230650D01*
X132584290Y-85218081D01*
X132553153Y-85212074D01*
X132520508Y-85213086D01*
X132489249Y-85221573D01*
X132462270Y-85237990D01*
X132455731Y-85244477D01*
X132442728Y-85268080D01*
X132440058Y-85294582D01*
X132400112Y-85294582D01*
X132404720Y-85259862D01*
X132420969Y-85224347D01*
X132446776Y-85195923D01*
X132480667Y-85175773D01*
X132521171Y-85165077D01*
X132566817Y-85165017D01*
X132594579Y-85170466D01*
X132630742Y-85186673D01*
X132657235Y-85211707D01*
X132673524Y-85244990D01*
X132679072Y-85285947D01*
X132678410Y-85292165D01*
X132674946Y-85324725D01*
G37*
G36*
X131412011Y-85186213D02*
G01*
X131408409Y-85207186D01*
X131398897Y-85229035D01*
X131396772Y-85232993D01*
X131376791Y-85260809D01*
X131350947Y-85280014D01*
X131315696Y-85293347D01*
X131290522Y-85298104D01*
X131249699Y-85297844D01*
X131210697Y-85288831D01*
X131176878Y-85271989D01*
X131151601Y-85248240D01*
X131142900Y-85230469D01*
X131136265Y-85202245D01*
X131134313Y-85176370D01*
X131173591Y-85176370D01*
X131174413Y-85192638D01*
X131179748Y-85209754D01*
X131192220Y-85224796D01*
X131209259Y-85236583D01*
X131239496Y-85246916D01*
X131274157Y-85250532D01*
X131308991Y-85247100D01*
X131339747Y-85236289D01*
X131342213Y-85234874D01*
X131360063Y-85216856D01*
X131370151Y-85191732D01*
X131371548Y-85163447D01*
X131363329Y-85135947D01*
X131359868Y-85129976D01*
X131340599Y-85110890D01*
X131312174Y-85099790D01*
X131273512Y-85096197D01*
X131253949Y-85096998D01*
X131218429Y-85104522D01*
X131193357Y-85120129D01*
X131178492Y-85144014D01*
X131173591Y-85176370D01*
X131134313Y-85176370D01*
X131133865Y-85170435D01*
X131136407Y-85140066D01*
X131145165Y-85114715D01*
X131166166Y-85087232D01*
X131196516Y-85066224D01*
X131234404Y-85052864D01*
X131278017Y-85048327D01*
X131318979Y-85052306D01*
X131356329Y-85065667D01*
X131384219Y-85088347D01*
X131402545Y-85120259D01*
X131411202Y-85161313D01*
X131411271Y-85163447D01*
X131412011Y-85186213D01*
G37*
G36*
X132606577Y-84864627D02*
G01*
X132632188Y-84869921D01*
X132657973Y-84884844D01*
X132673732Y-84908369D01*
X132679072Y-84940089D01*
X132678148Y-84956189D01*
X132667918Y-84991044D01*
X132646290Y-85019116D01*
X132643143Y-85022214D01*
X132637929Y-85033091D01*
X132645078Y-85040179D01*
X132664084Y-85042803D01*
X132669447Y-85043195D01*
X132677142Y-85048454D01*
X132679072Y-85062890D01*
X132679072Y-85082874D01*
X132542513Y-85082874D01*
X132405954Y-85082874D01*
X132405954Y-85059559D01*
X132405954Y-85036244D01*
X132495035Y-85036244D01*
X132584115Y-85036244D01*
X132611609Y-85006416D01*
X132630773Y-84980975D01*
X132639932Y-84956368D01*
X132637324Y-84935684D01*
X132623106Y-84919967D01*
X132597429Y-84910257D01*
X132586405Y-84907298D01*
X132577157Y-84899551D01*
X132573666Y-84883567D01*
X132571512Y-84861258D01*
X132606577Y-84864627D01*
G37*
G36*
X131247557Y-84760055D02*
G01*
X131279639Y-84760230D01*
X131313763Y-84760869D01*
X131338278Y-84762146D01*
X131355332Y-84764258D01*
X131367073Y-84767403D01*
X131375651Y-84771775D01*
X131394615Y-84789089D01*
X131408591Y-84816153D01*
X131412166Y-84847140D01*
X131405115Y-84879355D01*
X131387212Y-84910106D01*
X131366144Y-84936323D01*
X131386442Y-84936323D01*
X131397472Y-84936976D01*
X131405129Y-84942226D01*
X131406741Y-84956307D01*
X131406741Y-84976291D01*
X131270181Y-84976291D01*
X131133622Y-84976291D01*
X131133622Y-84952976D01*
X131133622Y-84929661D01*
X131224189Y-84929661D01*
X131240503Y-84929631D01*
X131273489Y-84929190D01*
X131296684Y-84927986D01*
X131312615Y-84925722D01*
X131323810Y-84922098D01*
X131332797Y-84916814D01*
X131343225Y-84908051D01*
X131360310Y-84886071D01*
X131370242Y-84862024D01*
X131370840Y-84840297D01*
X131365370Y-84827709D01*
X131354503Y-84817741D01*
X131336808Y-84810710D01*
X131310678Y-84806202D01*
X131274502Y-84803802D01*
X131226674Y-84803094D01*
X131132778Y-84803094D01*
X131134866Y-84781445D01*
X131136953Y-84759795D01*
X131247557Y-84760055D01*
G37*
G36*
X132679072Y-84629897D02*
G01*
X132679072Y-84689850D01*
X132722371Y-84689850D01*
X132743690Y-84690155D01*
X132759593Y-84690997D01*
X132765671Y-84692187D01*
X132765649Y-84692427D01*
X132763333Y-84700602D01*
X132758358Y-84715502D01*
X132754175Y-84725967D01*
X132747744Y-84733108D01*
X132736047Y-84735962D01*
X132715058Y-84736480D01*
X132679072Y-84736480D01*
X132679072Y-84776448D01*
X132679072Y-84816417D01*
X132659088Y-84816417D01*
X132656240Y-84816412D01*
X132646343Y-84815469D01*
X132641255Y-84810683D01*
X132639375Y-84798893D01*
X132639104Y-84776940D01*
X132639104Y-84737463D01*
X132542645Y-84735306D01*
X132525793Y-84734920D01*
X132492767Y-84733960D01*
X132469679Y-84732649D01*
X132454126Y-84730573D01*
X132443705Y-84727314D01*
X132436013Y-84722458D01*
X132428646Y-84715588D01*
X132424262Y-84710700D01*
X132409935Y-84683473D01*
X132402985Y-84647481D01*
X132403902Y-84604917D01*
X132406090Y-84587703D01*
X132409569Y-84575618D01*
X132415990Y-84570808D01*
X132427612Y-84569944D01*
X132436755Y-84570155D01*
X132443813Y-84572900D01*
X132445264Y-84581713D01*
X132442906Y-84600147D01*
X132441526Y-84618933D01*
X132444605Y-84646835D01*
X132453122Y-84669560D01*
X132466002Y-84683240D01*
X132476724Y-84685747D01*
X132497914Y-84687878D01*
X132526289Y-84689320D01*
X132558729Y-84689850D01*
X132639104Y-84689850D01*
X132639104Y-84629897D01*
X132639104Y-84569944D01*
X132659088Y-84569944D01*
X132679072Y-84569944D01*
X132679072Y-84629897D01*
G37*
G36*
X131183260Y-84583286D02*
G01*
X131186600Y-84606004D01*
X131190935Y-84619891D01*
X131196772Y-84627293D01*
X131206579Y-84631269D01*
X131220640Y-84630619D01*
X131231571Y-84624856D01*
X131234349Y-84615549D01*
X131229584Y-84592278D01*
X131229304Y-84560497D01*
X131262345Y-84560497D01*
X131265621Y-84586818D01*
X131281510Y-84609729D01*
X131292334Y-84617201D01*
X131315426Y-84623273D01*
X131339041Y-84620255D01*
X131357957Y-84608248D01*
X131370734Y-84591155D01*
X131377174Y-84569863D01*
X131373081Y-84545562D01*
X131363680Y-84526767D01*
X131346331Y-84513933D01*
X131320142Y-84509992D01*
X131300098Y-84512047D01*
X131280263Y-84522393D01*
X131267010Y-84542915D01*
X131262345Y-84560497D01*
X131229304Y-84560497D01*
X131229224Y-84551448D01*
X131238869Y-84514790D01*
X131251333Y-84492729D01*
X131271572Y-84474261D01*
X131298675Y-84465456D01*
X131334706Y-84465248D01*
X131373434Y-84468760D01*
X131373434Y-84449407D01*
X131373691Y-84442581D01*
X131377707Y-84432536D01*
X131389063Y-84430055D01*
X131395018Y-84430427D01*
X131399798Y-84433051D01*
X131403037Y-84440140D01*
X131405286Y-84453905D01*
X131407093Y-84476554D01*
X131409008Y-84510300D01*
X131410279Y-84539397D01*
X131410233Y-84569863D01*
X131410226Y-84574391D01*
X131407204Y-84600523D01*
X131400562Y-84620405D01*
X131389653Y-84636647D01*
X131373828Y-84651858D01*
X131355090Y-84662925D01*
X131327044Y-84669826D01*
X131298574Y-84668801D01*
X131274923Y-84659446D01*
X131264739Y-84653453D01*
X131255464Y-84653951D01*
X131242566Y-84662777D01*
X131242549Y-84662790D01*
X131218656Y-84674129D01*
X131192121Y-84675297D01*
X131168273Y-84666060D01*
X131165633Y-84664245D01*
X131155908Y-84659624D01*
X131146741Y-84662125D01*
X131132972Y-84672721D01*
X131111267Y-84685723D01*
X131085843Y-84688942D01*
X131061791Y-84679453D01*
X131059578Y-84677837D01*
X131042705Y-84658962D01*
X131031269Y-84631289D01*
X131024406Y-84592818D01*
X131023006Y-84566476D01*
X131060751Y-84566476D01*
X131062773Y-84594866D01*
X131068924Y-84616574D01*
X131075421Y-84625342D01*
X131092566Y-84634583D01*
X131112159Y-84634605D01*
X131128967Y-84624700D01*
X131134441Y-84614661D01*
X131139335Y-84592709D01*
X131141116Y-84565463D01*
X131139814Y-84537367D01*
X131135460Y-84512865D01*
X131128085Y-84496403D01*
X131119245Y-84488628D01*
X131102044Y-84484867D01*
X131084710Y-84492159D01*
X131070460Y-84509757D01*
X131068751Y-84513472D01*
X131062773Y-84537359D01*
X131060751Y-84566476D01*
X131023006Y-84566476D01*
X131022834Y-84563246D01*
X131026871Y-84521946D01*
X131037990Y-84487049D01*
X131055362Y-84460149D01*
X131078160Y-84442840D01*
X131105553Y-84436716D01*
X131110250Y-84436775D01*
X131129878Y-84438175D01*
X131143316Y-84440854D01*
X131155124Y-84449655D01*
X131166835Y-84471548D01*
X131175310Y-84505836D01*
X131180645Y-84552807D01*
X131181731Y-84565463D01*
X131183260Y-84583286D01*
G37*
G36*
X132286048Y-82698085D02*
G01*
X132286048Y-83051140D01*
X132082875Y-83051140D01*
X131879702Y-83051140D01*
X131879702Y-83011172D01*
X131879702Y-82971203D01*
X132032914Y-82971203D01*
X132186127Y-82971203D01*
X132186127Y-82658116D01*
X132186127Y-82345030D01*
X132236088Y-82345030D01*
X132286048Y-82345030D01*
X132286048Y-82698085D01*
G37*
G36*
X131693182Y-82698085D02*
G01*
X131693182Y-83051140D01*
X131490008Y-83051140D01*
X131286835Y-83051140D01*
X131286835Y-83011172D01*
X131286835Y-82971203D01*
X131440048Y-82971203D01*
X131593260Y-82971203D01*
X131593260Y-82847967D01*
X131593260Y-82724731D01*
X131446709Y-82724731D01*
X131300158Y-82724731D01*
X131300158Y-82684762D01*
X131300158Y-82644794D01*
X131446709Y-82644794D01*
X131593260Y-82644794D01*
X131593260Y-82534880D01*
X131593260Y-82424967D01*
X131440048Y-82424967D01*
X131286835Y-82424967D01*
X131286835Y-82384998D01*
X131286835Y-82345030D01*
X131490008Y-82345030D01*
X131693182Y-82345030D01*
X131693182Y-82698085D01*
G37*
G36*
X131126961Y-82698970D02*
G01*
X131126961Y-83052911D01*
X131005390Y-83049321D01*
X130983006Y-83048574D01*
X130928568Y-83045686D01*
X130884093Y-83041211D01*
X130847126Y-83034635D01*
X130815215Y-83025442D01*
X130785906Y-83013117D01*
X130756746Y-82997147D01*
X130718936Y-82969815D01*
X130683091Y-82930561D01*
X130654350Y-82881274D01*
X130644853Y-82859843D01*
X130631744Y-82822546D01*
X130623431Y-82784151D01*
X130619168Y-82740663D01*
X130618208Y-82688093D01*
X130618417Y-82675088D01*
X130717672Y-82675088D01*
X130718605Y-82732763D01*
X130725793Y-82787313D01*
X130739361Y-82834869D01*
X130744068Y-82845746D01*
X130768926Y-82885524D01*
X130801990Y-82919350D01*
X130839891Y-82943578D01*
X130854421Y-82949871D01*
X130872443Y-82955718D01*
X130892856Y-82959508D01*
X130919303Y-82961867D01*
X130955429Y-82963421D01*
X131033701Y-82965945D01*
X131033701Y-82695456D01*
X131033701Y-82424967D01*
X130967415Y-82424967D01*
X130916684Y-82426639D01*
X130867389Y-82433303D01*
X130827648Y-82445758D01*
X130795827Y-82464757D01*
X130770293Y-82491051D01*
X130749415Y-82525394D01*
X130734064Y-82565837D01*
X130722866Y-82618156D01*
X130717672Y-82675088D01*
X130618417Y-82675088D01*
X130618440Y-82673648D01*
X130624267Y-82599048D01*
X130637995Y-82534891D01*
X130659918Y-82480731D01*
X130690327Y-82436117D01*
X130729514Y-82400602D01*
X130777773Y-82373737D01*
X130835396Y-82355073D01*
X130835539Y-82355039D01*
X130861626Y-82350630D01*
X130897242Y-82347558D01*
X130943637Y-82345749D01*
X131002059Y-82345128D01*
X131126961Y-82345030D01*
X131126961Y-82695456D01*
X131126961Y-82698970D01*
G37*
D13*
%TO.C,D2*%
X86710000Y-94045000D02*
X86710000Y-90955000D01*
X86710000Y-90955170D02*
G75*
G02*
X92260000Y-92500000I2560000J-1544830D01*
G01*
X92260000Y-92500000D02*
G75*
G02*
X86710000Y-94044830I-2990000J0D01*
G01*
X91770000Y-92500000D02*
G75*
G02*
X86770000Y-92500000I-2500000J0D01*
G01*
X86770000Y-92500000D02*
G75*
G02*
X91770000Y-92500000I2500000J0D01*
G01*
%TO.C,D3*%
X112545000Y-116290000D02*
X109455000Y-116290000D01*
X109455170Y-116290000D02*
G75*
G02*
X111000000Y-110740000I1544830J2560000D01*
G01*
X111000000Y-110740000D02*
G75*
G02*
X112544830Y-116290000I0J-2990000D01*
G01*
X113500000Y-113730000D02*
G75*
G02*
X108500000Y-113730000I-2500000J0D01*
G01*
X108500000Y-113730000D02*
G75*
G02*
X113500000Y-113730000I2500000J0D01*
G01*
%TO.C,BT1*%
X96450000Y-93150000D02*
X96450000Y-94700000D01*
X96450000Y-100850000D02*
X96450000Y-99300000D01*
X98000000Y-92000000D02*
X98000000Y-90000000D01*
X99000000Y-91000000D02*
X97000000Y-91000000D01*
X99650000Y-90450000D02*
X99650000Y-93150000D01*
X99650000Y-93150000D02*
X96450000Y-93150000D01*
X99650000Y-100850000D02*
X96450000Y-100850000D01*
X99650000Y-105350000D02*
X99650000Y-100850000D01*
X99650000Y-105350000D02*
X122350000Y-105350000D01*
X101450000Y-88650000D02*
X99650000Y-90450000D01*
X122350000Y-88650000D02*
X101450000Y-88650000D01*
X122350000Y-88650000D02*
X122350000Y-93150000D01*
X122350000Y-93150000D02*
X125550000Y-93150000D01*
X122350000Y-100850000D02*
X125550000Y-100850000D01*
X122350000Y-105350000D02*
X122350000Y-100850000D01*
X125550000Y-93150000D02*
X125550000Y-94700000D01*
X125550000Y-100850000D02*
X125550000Y-99300000D01*
%TO.C,SW1*%
X114500000Y-80000000D02*
G75*
G02*
X107500000Y-80000000I-3500000J0D01*
G01*
X107500000Y-80000000D02*
G75*
G02*
X114500000Y-80000000I3500000J0D01*
G01*
X113000000Y-80000000D02*
G75*
G02*
X109000000Y-80000000I-2000000J0D01*
G01*
X109000000Y-80000000D02*
G75*
G02*
X113000000Y-80000000I2000000J0D01*
G01*
D14*
%TO.C,G\u002A\u002A\u002A*%
G36*
X91658790Y-87504479D02*
G01*
X91658790Y-87634241D01*
X91785225Y-87634241D01*
X91911659Y-87634241D01*
X91911659Y-87684149D01*
X91911659Y-87734057D01*
X91785225Y-87734057D01*
X91658790Y-87734057D01*
X91658790Y-87867146D01*
X91658790Y-88000235D01*
X91602228Y-88000235D01*
X91545665Y-88000235D01*
X91545665Y-87867146D01*
X91545665Y-87734057D01*
X91419231Y-87734057D01*
X91292796Y-87734057D01*
X91292796Y-87684149D01*
X91292796Y-87634241D01*
X91419231Y-87634241D01*
X91545665Y-87634241D01*
X91545665Y-87504479D01*
X91545665Y-87374718D01*
X91602228Y-87374718D01*
X91658790Y-87374718D01*
X91658790Y-87504479D01*
G37*
G36*
X90500918Y-87687577D02*
G01*
X90500918Y-87740913D01*
X90306275Y-87739149D01*
X90111633Y-87737385D01*
X90109690Y-87685813D01*
X90107746Y-87634241D01*
X90304332Y-87634241D01*
X90500918Y-87634241D01*
X90500918Y-87687577D01*
G37*
G36*
X92394709Y-84180586D02*
G01*
X92428186Y-84180774D01*
X92471490Y-84182034D01*
X92504854Y-84184864D01*
X92530327Y-84189708D01*
X92549955Y-84197010D01*
X92565786Y-84207214D01*
X92579867Y-84220765D01*
X92582815Y-84224164D01*
X92601003Y-84255396D01*
X92607808Y-84289558D01*
X92603535Y-84323772D01*
X92588487Y-84355157D01*
X92562970Y-84380833D01*
X92561109Y-84382152D01*
X92554428Y-84386485D01*
X92547077Y-84389920D01*
X92537478Y-84392602D01*
X92524050Y-84394678D01*
X92505214Y-84396294D01*
X92479391Y-84397596D01*
X92445000Y-84398731D01*
X92400462Y-84399843D01*
X92344198Y-84401081D01*
X92290502Y-84402123D01*
X92221266Y-84403236D01*
X92146703Y-84404239D01*
X92071036Y-84405080D01*
X91998489Y-84405708D01*
X91933286Y-84406072D01*
X91718680Y-84406837D01*
X91718391Y-85746043D01*
X91718372Y-85805334D01*
X91718292Y-85936873D01*
X91718161Y-86064796D01*
X91717982Y-86188459D01*
X91717756Y-86307214D01*
X91717488Y-86420415D01*
X91717179Y-86527416D01*
X91716833Y-86627571D01*
X91716453Y-86720233D01*
X91716041Y-86804757D01*
X91715599Y-86880496D01*
X91715132Y-86946803D01*
X91714641Y-87003033D01*
X91714129Y-87048538D01*
X91713600Y-87082674D01*
X91713055Y-87104794D01*
X91712498Y-87114251D01*
X91702061Y-87146533D01*
X91682375Y-87172863D01*
X91651746Y-87193812D01*
X91627902Y-87202778D01*
X91593122Y-87205101D01*
X91559712Y-87195920D01*
X91530271Y-87176089D01*
X91507395Y-87146459D01*
X91507047Y-87145793D01*
X91505715Y-87142528D01*
X91504491Y-87137910D01*
X91503367Y-87131396D01*
X91502339Y-87122442D01*
X91501402Y-87110506D01*
X91500550Y-87095043D01*
X91499778Y-87075510D01*
X91499081Y-87051364D01*
X91498454Y-87022061D01*
X91497890Y-86987058D01*
X91497386Y-86945810D01*
X91496935Y-86897776D01*
X91496533Y-86842411D01*
X91496174Y-86779172D01*
X91495853Y-86707515D01*
X91495564Y-86626896D01*
X91495303Y-86536774D01*
X91495064Y-86436603D01*
X91494841Y-86325841D01*
X91494630Y-86203943D01*
X91494426Y-86070368D01*
X91494222Y-85924570D01*
X91494014Y-85766007D01*
X91492272Y-84406837D01*
X90933378Y-84406837D01*
X90374483Y-84406837D01*
X90374483Y-85164459D01*
X90374483Y-85922081D01*
X90359353Y-85944534D01*
X90352706Y-85953797D01*
X90326676Y-85979568D01*
X90296649Y-85993286D01*
X90260923Y-85995838D01*
X90223369Y-85988176D01*
X90192310Y-85970089D01*
X90169759Y-85941825D01*
X90169555Y-85941445D01*
X90167792Y-85937401D01*
X90166216Y-85931825D01*
X90164815Y-85923980D01*
X90163575Y-85913130D01*
X90162484Y-85898540D01*
X90161530Y-85879473D01*
X90160699Y-85855194D01*
X90159980Y-85824966D01*
X90159360Y-85788053D01*
X90158826Y-85743719D01*
X90158365Y-85691229D01*
X90157965Y-85629846D01*
X90157614Y-85558835D01*
X90157298Y-85477458D01*
X90157006Y-85384981D01*
X90156724Y-85280667D01*
X90156440Y-85163780D01*
X90154666Y-84406837D01*
X89827045Y-84406800D01*
X89806087Y-84406788D01*
X89727789Y-84406563D01*
X89658659Y-84406062D01*
X89599386Y-84405299D01*
X89550662Y-84404286D01*
X89513176Y-84403038D01*
X89487618Y-84401568D01*
X89474677Y-84399890D01*
X89449566Y-84389893D01*
X89420702Y-84368079D01*
X89400945Y-84339507D01*
X89391280Y-84306525D01*
X89392693Y-84271477D01*
X89406168Y-84236709D01*
X89417484Y-84219609D01*
X89431323Y-84205189D01*
X89448565Y-84194734D01*
X89471184Y-84187645D01*
X89501154Y-84183324D01*
X89540449Y-84181171D01*
X89591043Y-84180586D01*
X89701750Y-84180586D01*
X89921163Y-84180586D01*
X90996264Y-84180586D01*
X92071366Y-84180586D01*
X92071360Y-83224010D01*
X92071360Y-83212253D01*
X92071300Y-83065920D01*
X92071140Y-82929844D01*
X92070881Y-82804302D01*
X92070525Y-82689572D01*
X92070074Y-82585930D01*
X92069530Y-82493655D01*
X92068895Y-82413023D01*
X92068171Y-82344313D01*
X92067359Y-82287802D01*
X92066461Y-82243767D01*
X92065480Y-82212486D01*
X92064417Y-82194236D01*
X92056966Y-82129678D01*
X92046651Y-82069852D01*
X92032592Y-82012279D01*
X92013616Y-81951349D01*
X92009169Y-81938473D01*
X91963715Y-81828911D01*
X91907398Y-81726446D01*
X91840917Y-81631660D01*
X91764972Y-81545135D01*
X91680262Y-81467455D01*
X91587487Y-81399202D01*
X91487346Y-81340957D01*
X91380540Y-81293304D01*
X91267766Y-81256824D01*
X91149726Y-81232101D01*
X91126402Y-81229206D01*
X91080465Y-81225991D01*
X91027656Y-81224534D01*
X90971870Y-81224794D01*
X90917002Y-81226730D01*
X90866948Y-81230303D01*
X90825603Y-81235472D01*
X90738689Y-81253716D01*
X90627859Y-81288327D01*
X90522232Y-81334242D01*
X90422614Y-81390730D01*
X90329807Y-81457061D01*
X90244617Y-81532504D01*
X90167846Y-81616330D01*
X90100300Y-81707808D01*
X90042781Y-81806207D01*
X89996094Y-81910798D01*
X89961043Y-82020849D01*
X89959172Y-82028088D01*
X89954839Y-82044781D01*
X89950914Y-82060287D01*
X89947373Y-82075296D01*
X89944196Y-82090497D01*
X89941359Y-82106582D01*
X89938842Y-82124241D01*
X89936622Y-82144164D01*
X89934677Y-82167041D01*
X89932986Y-82193562D01*
X89931526Y-82224418D01*
X89930276Y-82260300D01*
X89929213Y-82301897D01*
X89928315Y-82349900D01*
X89927561Y-82404998D01*
X89926929Y-82467884D01*
X89926397Y-82539246D01*
X89925942Y-82619774D01*
X89925544Y-82710160D01*
X89925179Y-82811094D01*
X89924826Y-82923266D01*
X89924464Y-83047365D01*
X89924069Y-83184084D01*
X89921163Y-84180586D01*
X89701750Y-84180586D01*
X89704166Y-83174102D01*
X89704430Y-83065002D01*
X89704744Y-82939770D01*
X89705048Y-82826636D01*
X89705353Y-82724925D01*
X89705668Y-82633965D01*
X89706004Y-82553080D01*
X89706370Y-82481598D01*
X89706778Y-82418844D01*
X89707237Y-82364145D01*
X89707756Y-82316828D01*
X89708347Y-82276217D01*
X89709019Y-82241641D01*
X89709782Y-82212424D01*
X89710647Y-82187893D01*
X89711623Y-82167375D01*
X89712721Y-82150196D01*
X89713951Y-82135682D01*
X89715322Y-82123159D01*
X89716845Y-82111953D01*
X89718530Y-82101391D01*
X89720387Y-82090799D01*
X89728570Y-82048406D01*
X89761072Y-81919557D01*
X89803796Y-81798816D01*
X89857129Y-81685438D01*
X89921454Y-81578674D01*
X89997155Y-81477776D01*
X90084617Y-81381995D01*
X90121004Y-81346820D01*
X90219567Y-81263042D01*
X90323301Y-81191166D01*
X90432894Y-81130841D01*
X90549033Y-81081718D01*
X90672404Y-81043446D01*
X90803695Y-81015676D01*
X90805970Y-81015303D01*
X90852084Y-81009741D01*
X90907448Y-81006044D01*
X90968347Y-81004213D01*
X91031065Y-81004250D01*
X91091887Y-81006154D01*
X91147097Y-81009928D01*
X91192980Y-81015571D01*
X91225179Y-81021239D01*
X91355709Y-81052191D01*
X91480107Y-81094876D01*
X91598155Y-81149183D01*
X91709636Y-81215001D01*
X91814330Y-81292219D01*
X91912021Y-81380726D01*
X91938911Y-81408403D01*
X92023780Y-81507748D01*
X92097538Y-81614014D01*
X92159819Y-81726565D01*
X92210261Y-81844767D01*
X92248499Y-81967985D01*
X92248934Y-81969687D01*
X92253953Y-81989075D01*
X92258510Y-82006591D01*
X92262629Y-82022926D01*
X92266334Y-82038769D01*
X92269648Y-82054811D01*
X92272594Y-82071741D01*
X92275196Y-82090250D01*
X92277477Y-82111027D01*
X92279462Y-82134763D01*
X92281173Y-82162147D01*
X92282633Y-82193870D01*
X92283867Y-82230622D01*
X92284898Y-82273092D01*
X92285749Y-82321971D01*
X92286444Y-82377948D01*
X92287006Y-82441714D01*
X92287459Y-82513959D01*
X92287826Y-82595373D01*
X92288130Y-82686645D01*
X92288396Y-82788465D01*
X92288646Y-82901525D01*
X92288905Y-83026513D01*
X92289195Y-83164120D01*
X92291406Y-84180586D01*
X92394709Y-84180586D01*
G37*
G36*
X91991513Y-86935525D02*
G01*
X91991513Y-86975451D01*
X92164528Y-86975451D01*
X92337543Y-86975451D01*
X92337543Y-87038668D01*
X92337543Y-87101886D01*
X92317580Y-87101886D01*
X92297617Y-87101886D01*
X92297617Y-87061959D01*
X92297617Y-87022032D01*
X92144565Y-87022032D01*
X91991513Y-87022032D01*
X91991513Y-87065286D01*
X91991513Y-87108540D01*
X91971549Y-87108540D01*
X91951586Y-87108540D01*
X91951586Y-87002069D01*
X91951586Y-86895598D01*
X91971549Y-86895598D01*
X91991513Y-86895598D01*
X91991513Y-86935525D01*
G37*
G36*
X92226474Y-86700887D02*
G01*
X92219079Y-86740529D01*
X92200741Y-86772619D01*
X92171567Y-86797022D01*
X92131663Y-86813598D01*
X92127084Y-86814759D01*
X92096620Y-86818815D01*
X92064711Y-86818296D01*
X92028463Y-86811127D01*
X91994002Y-86794353D01*
X91969372Y-86768612D01*
X91954523Y-86733849D01*
X91949403Y-86690009D01*
X91949784Y-86668334D01*
X91951441Y-86641391D01*
X91954000Y-86621102D01*
X91958031Y-86605699D01*
X91964854Y-86597902D01*
X91977646Y-86596148D01*
X91996449Y-86596148D01*
X91990278Y-86627757D01*
X91990111Y-86628632D01*
X91987299Y-86656982D01*
X91988073Y-86687990D01*
X91992024Y-86716405D01*
X91998746Y-86736974D01*
X92001834Y-86741475D01*
X92017497Y-86754630D01*
X92038169Y-86764973D01*
X92057726Y-86769164D01*
X92059066Y-86769146D01*
X92064073Y-86768120D01*
X92067498Y-86764025D01*
X92069640Y-86754814D01*
X92070799Y-86738439D01*
X92071274Y-86712850D01*
X92071308Y-86699292D01*
X92111292Y-86699292D01*
X92111613Y-86727931D01*
X92113501Y-86752684D01*
X92118054Y-86766410D01*
X92126357Y-86770361D01*
X92139495Y-86765796D01*
X92158553Y-86753967D01*
X92171742Y-86742603D01*
X92185225Y-86720008D01*
X92189159Y-86695070D01*
X92184319Y-86670664D01*
X92171484Y-86649669D01*
X92151429Y-86634962D01*
X92124932Y-86629420D01*
X92122905Y-86629466D01*
X92117497Y-86630962D01*
X92114092Y-86636335D01*
X92112230Y-86647942D01*
X92111450Y-86668142D01*
X92111292Y-86699292D01*
X92071308Y-86699292D01*
X92071366Y-86676001D01*
X92071366Y-86582839D01*
X92109629Y-86582949D01*
X92142709Y-86586320D01*
X92177716Y-86599587D01*
X92203987Y-86622113D01*
X92220598Y-86653041D01*
X92226626Y-86691514D01*
X92226568Y-86695070D01*
X92226474Y-86700887D01*
G37*
G36*
X92225474Y-86407074D02*
G01*
X92223267Y-86428237D01*
X92219486Y-86444204D01*
X92213911Y-86457420D01*
X92205927Y-86469593D01*
X92182712Y-86489230D01*
X92153538Y-86500481D01*
X92122118Y-86502250D01*
X92092165Y-86493437D01*
X92080168Y-86488227D01*
X92068834Y-86488573D01*
X92054233Y-86496720D01*
X92036803Y-86505528D01*
X92010376Y-86508658D01*
X91985931Y-86498996D01*
X91978207Y-86493993D01*
X91968953Y-86492051D01*
X91959360Y-86498646D01*
X91948894Y-86506351D01*
X91931486Y-86515523D01*
X91910132Y-86521637D01*
X91891982Y-86519007D01*
X91872666Y-86506077D01*
X91859475Y-86490684D01*
X91846991Y-86462326D01*
X91840479Y-86428106D01*
X91839997Y-86404849D01*
X91876737Y-86404849D01*
X91879996Y-86432475D01*
X91887857Y-86453230D01*
X91902387Y-86466376D01*
X91922035Y-86468676D01*
X91944237Y-86458804D01*
X91949647Y-86454680D01*
X91955073Y-86447810D01*
X91957680Y-86437350D01*
X91958088Y-86420071D01*
X91956917Y-86392746D01*
X91956808Y-86390745D01*
X91954111Y-86361528D01*
X91949999Y-86339129D01*
X91945056Y-86326793D01*
X91940546Y-86322607D01*
X91924373Y-86318014D01*
X91906156Y-86323225D01*
X91890025Y-86337440D01*
X91883626Y-86350115D01*
X91877980Y-86375635D01*
X91876737Y-86404849D01*
X91839997Y-86404849D01*
X91839712Y-86391081D01*
X91844466Y-86354308D01*
X91854516Y-86320844D01*
X91869637Y-86293747D01*
X91889603Y-86276074D01*
X91907432Y-86270021D01*
X91928499Y-86267419D01*
X91948490Y-86270789D01*
X91970004Y-86285602D01*
X91985553Y-86311956D01*
X91994989Y-86349577D01*
X91998167Y-86398190D01*
X91999246Y-86420071D01*
X91999489Y-86424994D01*
X92005160Y-86447987D01*
X92015766Y-86460013D01*
X92031812Y-86462028D01*
X92037297Y-86461074D01*
X92043289Y-86457940D01*
X92046217Y-86450308D01*
X92046884Y-86435246D01*
X92046091Y-86409824D01*
X92045678Y-86394859D01*
X92077769Y-86394859D01*
X92080694Y-86418507D01*
X92094354Y-86440071D01*
X92109195Y-86450974D01*
X92134583Y-86456405D01*
X92146524Y-86455315D01*
X92170000Y-86444899D01*
X92185531Y-86425108D01*
X92191146Y-86397977D01*
X92190249Y-86386515D01*
X92180482Y-86362707D01*
X92161136Y-86347376D01*
X92133675Y-86341948D01*
X92120554Y-86343459D01*
X92098982Y-86354131D01*
X92084293Y-86372332D01*
X92077769Y-86394859D01*
X92045678Y-86394859D01*
X92045627Y-86393007D01*
X92046501Y-86369742D01*
X92050204Y-86353054D01*
X92057418Y-86338650D01*
X92070056Y-86322063D01*
X92097042Y-86302160D01*
X92129398Y-86294219D01*
X92166192Y-86298581D01*
X92177440Y-86300918D01*
X92183372Y-86297266D01*
X92184491Y-86283516D01*
X92185120Y-86272784D01*
X92190345Y-86265059D01*
X92204455Y-86263426D01*
X92224418Y-86263426D01*
X92225753Y-86324980D01*
X92226037Y-86339386D01*
X92226324Y-86378272D01*
X92225742Y-86397977D01*
X92225474Y-86407074D01*
G37*
G36*
X92193032Y-86051886D02*
G01*
X92212939Y-86059112D01*
X92224723Y-86073646D01*
X92226681Y-86092584D01*
X92217108Y-86113023D01*
X92211150Y-86119476D01*
X92192938Y-86128701D01*
X92173888Y-86125326D01*
X92156139Y-86109474D01*
X92149289Y-86099200D01*
X92146834Y-86087641D01*
X92152200Y-86072875D01*
X92163049Y-86058296D01*
X92181210Y-86051854D01*
X92193032Y-86051886D01*
G37*
G36*
X92012859Y-86058802D02*
G01*
X92024415Y-86072373D01*
X92027482Y-86091973D01*
X92017764Y-86112656D01*
X92003932Y-86124970D01*
X91988185Y-86130337D01*
X91974922Y-86126619D01*
X91959954Y-86114219D01*
X91950027Y-86097496D01*
X91948814Y-86081047D01*
X91956548Y-86066245D01*
X91973216Y-86053752D01*
X91993368Y-86050791D01*
X92012859Y-86058802D01*
G37*
G36*
X90666712Y-85687524D02*
G01*
X90676297Y-85693767D01*
X90686404Y-85704764D01*
X90696336Y-85721789D01*
X90707370Y-85747097D01*
X90720786Y-85782945D01*
X90720853Y-85783132D01*
X90733592Y-85812579D01*
X90746534Y-85829467D01*
X90760573Y-85834526D01*
X90776601Y-85828484D01*
X90783347Y-85822027D01*
X90793157Y-85802796D01*
X90798284Y-85778505D01*
X90797275Y-85754361D01*
X90796366Y-85749911D01*
X90791340Y-85724062D01*
X90789561Y-85708486D01*
X90791535Y-85700748D01*
X90797770Y-85698412D01*
X90808769Y-85699047D01*
X90830313Y-85701126D01*
X90832361Y-85747707D01*
X90832853Y-85772594D01*
X90832190Y-85797915D01*
X90830432Y-85815719D01*
X90825356Y-85831451D01*
X90812314Y-85853195D01*
X90795533Y-85870629D01*
X90778514Y-85879456D01*
X90774029Y-85880303D01*
X90754326Y-85882720D01*
X90740576Y-85880463D01*
X90726986Y-85872783D01*
X90725862Y-85872004D01*
X90711003Y-85860098D01*
X90699995Y-85846413D01*
X90690486Y-85827236D01*
X90680123Y-85798855D01*
X90671541Y-85776353D01*
X90656624Y-85748325D01*
X90641238Y-85731343D01*
X90626208Y-85725897D01*
X90612357Y-85732477D01*
X90600512Y-85751572D01*
X90600175Y-85752431D01*
X90596664Y-85770699D01*
X90595474Y-85796767D01*
X90596452Y-85825705D01*
X90599443Y-85852585D01*
X90604292Y-85872478D01*
X90605662Y-85878774D01*
X90600702Y-85883075D01*
X90585340Y-85884123D01*
X90561867Y-85884123D01*
X90557205Y-85840587D01*
X90556965Y-85838273D01*
X90555676Y-85791373D01*
X90561322Y-85751140D01*
X90573136Y-85718647D01*
X90590349Y-85694965D01*
X90612194Y-85681169D01*
X90637905Y-85678331D01*
X90666712Y-85687524D01*
G37*
G36*
X91974695Y-85365084D02*
G01*
X91984415Y-85366067D01*
X91989408Y-85370935D01*
X91991249Y-85382829D01*
X91991513Y-85404891D01*
X91991513Y-85444705D01*
X92162864Y-85446481D01*
X92334216Y-85448257D01*
X92334216Y-85511474D01*
X92334216Y-85574691D01*
X92316245Y-85576765D01*
X92312979Y-85577122D01*
X92304529Y-85576852D01*
X92299895Y-85571981D01*
X92297629Y-85559609D01*
X92296281Y-85536839D01*
X92294290Y-85494838D01*
X92142901Y-85493050D01*
X91991513Y-85491261D01*
X91991513Y-85537967D01*
X91991513Y-85584673D01*
X91971549Y-85584673D01*
X91951586Y-85584673D01*
X91951586Y-85474875D01*
X91951586Y-85365077D01*
X91971549Y-85365077D01*
X91974695Y-85365084D01*
G37*
G36*
X90677822Y-85372966D02*
G01*
X90794835Y-85375058D01*
X90814970Y-85397610D01*
X90824211Y-85408631D01*
X90831075Y-85421129D01*
X90833268Y-85436205D01*
X90832284Y-85459171D01*
X90829249Y-85483779D01*
X90822928Y-85501885D01*
X90811588Y-85516836D01*
X90808221Y-85520413D01*
X90797878Y-85532392D01*
X90793713Y-85538954D01*
X90798304Y-85539968D01*
X90813752Y-85540501D01*
X90837515Y-85540317D01*
X90866912Y-85539398D01*
X90940111Y-85536382D01*
X90940111Y-85560528D01*
X90940111Y-85584673D01*
X90750459Y-85584673D01*
X90560808Y-85584673D01*
X90560808Y-85561383D01*
X90560808Y-85538092D01*
X90653196Y-85538092D01*
X90745583Y-85538092D01*
X90769648Y-85511455D01*
X90778537Y-85500949D01*
X90790276Y-85481265D01*
X90793713Y-85461924D01*
X90792947Y-85449313D01*
X90789012Y-85437510D01*
X90780196Y-85429107D01*
X90764817Y-85423546D01*
X90741192Y-85420265D01*
X90707638Y-85418707D01*
X90662471Y-85418312D01*
X90560808Y-85418312D01*
X90560808Y-85394593D01*
X90560808Y-85370873D01*
X90677822Y-85372966D01*
G37*
G36*
X92224909Y-85200940D02*
G01*
X92211258Y-85236856D01*
X92186504Y-85266213D01*
X92151172Y-85287932D01*
X92136679Y-85292348D01*
X92111421Y-85296547D01*
X92084421Y-85298272D01*
X92040838Y-85293634D01*
X92003633Y-85279259D01*
X91975225Y-85256227D01*
X91956566Y-85225636D01*
X91948608Y-85188581D01*
X91949013Y-85183935D01*
X91987197Y-85183935D01*
X91991886Y-85201185D01*
X92008462Y-85225487D01*
X92036216Y-85242888D01*
X92050749Y-85247450D01*
X92081885Y-85251246D01*
X92114288Y-85249630D01*
X92141237Y-85242618D01*
X92166574Y-85226975D01*
X92182644Y-85204552D01*
X92187819Y-85175214D01*
X92187026Y-85161763D01*
X92177864Y-85133650D01*
X92158095Y-85113348D01*
X92127281Y-85100318D01*
X92122846Y-85099215D01*
X92084820Y-85094781D01*
X92050527Y-85099222D01*
X92021793Y-85111447D01*
X92000443Y-85130367D01*
X91988303Y-85154893D01*
X91987197Y-85183935D01*
X91949013Y-85183935D01*
X91952303Y-85146157D01*
X91952828Y-85143853D01*
X91967758Y-85106598D01*
X91992705Y-85077952D01*
X92027278Y-85058239D01*
X92071086Y-85047783D01*
X92114493Y-85047450D01*
X92153824Y-85057118D01*
X92186141Y-85076061D01*
X92209925Y-85103380D01*
X92223657Y-85138174D01*
X92226937Y-85159544D01*
X92226169Y-85175214D01*
X92224909Y-85200940D01*
G37*
G36*
X90831557Y-85199330D02*
G01*
X90822722Y-85229694D01*
X90821919Y-85231330D01*
X90803545Y-85256382D01*
X90777554Y-85278014D01*
X90749228Y-85291766D01*
X90745862Y-85292700D01*
X90717692Y-85296953D01*
X90684943Y-85297525D01*
X90653449Y-85294583D01*
X90629046Y-85288297D01*
X90603692Y-85275269D01*
X90582783Y-85256180D01*
X90566669Y-85228661D01*
X90559384Y-85208838D01*
X90554734Y-85170188D01*
X90556083Y-85163062D01*
X90595931Y-85163062D01*
X90597026Y-85190828D01*
X90607135Y-85216459D01*
X90625957Y-85235969D01*
X90633337Y-85239705D01*
X90656655Y-85246054D01*
X90686838Y-85249475D01*
X90713064Y-85249462D01*
X90748583Y-85242938D01*
X90773760Y-85228179D01*
X90788751Y-85205072D01*
X90793713Y-85173507D01*
X90793705Y-85171626D01*
X90790499Y-85143092D01*
X90780419Y-85123503D01*
X90761907Y-85109736D01*
X90754743Y-85106364D01*
X90718715Y-85096429D01*
X90681137Y-85095718D01*
X90645989Y-85103927D01*
X90617252Y-85120754D01*
X90604152Y-85137145D01*
X90595931Y-85163062D01*
X90556083Y-85163062D01*
X90561741Y-85133180D01*
X90579401Y-85100111D01*
X90606708Y-85073279D01*
X90642657Y-85054982D01*
X90649285Y-85052936D01*
X90689897Y-85046477D01*
X90730089Y-85049329D01*
X90767001Y-85060676D01*
X90797773Y-85079699D01*
X90819546Y-85105580D01*
X90828743Y-85129680D01*
X90833515Y-85164054D01*
X90832990Y-85173507D01*
X90831557Y-85199330D01*
G37*
G36*
X92064248Y-84760748D02*
G01*
X92080794Y-84761071D01*
X92118385Y-84762029D01*
X92145663Y-84763294D01*
X92164830Y-84765134D01*
X92178087Y-84767818D01*
X92187634Y-84771615D01*
X92195673Y-84776794D01*
X92211330Y-84792561D01*
X92224020Y-84819684D01*
X92226488Y-84850583D01*
X92218635Y-84882399D01*
X92200361Y-84912272D01*
X92183308Y-84932538D01*
X92203863Y-84932538D01*
X92217654Y-84933776D01*
X92223322Y-84940190D01*
X92224418Y-84955828D01*
X92224418Y-84979119D01*
X92088002Y-84979119D01*
X91951586Y-84979119D01*
X91951586Y-84955828D01*
X91951586Y-84932538D01*
X92040910Y-84932538D01*
X92048634Y-84932536D01*
X92082564Y-84932375D01*
X92106295Y-84931647D01*
X92122447Y-84929926D01*
X92133638Y-84926786D01*
X92142487Y-84921802D01*
X92151613Y-84914549D01*
X92168945Y-84896570D01*
X92182598Y-84872306D01*
X92186766Y-84848632D01*
X92181108Y-84828076D01*
X92165284Y-84813163D01*
X92163438Y-84812426D01*
X92148723Y-84809878D01*
X92123657Y-84807878D01*
X92090582Y-84806572D01*
X92051840Y-84806104D01*
X91951586Y-84806104D01*
X91951586Y-84782375D01*
X91951586Y-84758646D01*
X92064248Y-84760748D01*
G37*
G36*
X90761221Y-84747792D02*
G01*
X90786876Y-84753100D01*
X90812606Y-84768020D01*
X90828319Y-84791544D01*
X90833640Y-84823282D01*
X90830950Y-84852268D01*
X90821216Y-84876171D01*
X90802071Y-84900476D01*
X90785438Y-84918322D01*
X90809539Y-84922843D01*
X90824050Y-84926539D01*
X90831888Y-84933381D01*
X90833640Y-84946587D01*
X90833640Y-84965810D01*
X90697224Y-84965810D01*
X90560808Y-84965810D01*
X90560808Y-84942520D01*
X90560808Y-84919229D01*
X90649795Y-84919229D01*
X90738783Y-84919229D01*
X90766248Y-84889433D01*
X90770318Y-84884844D01*
X90787673Y-84858480D01*
X90794090Y-84834284D01*
X90789844Y-84813955D01*
X90775209Y-84799190D01*
X90750459Y-84791688D01*
X90739630Y-84789640D01*
X90731531Y-84782689D01*
X90728344Y-84766947D01*
X90726192Y-84744426D01*
X90761221Y-84747792D01*
G37*
G36*
X90596791Y-84486599D02*
G01*
X90595797Y-84496866D01*
X90597597Y-84527466D01*
X90606359Y-84551774D01*
X90621173Y-84566798D01*
X90631766Y-84569229D01*
X90652812Y-84571291D01*
X90681064Y-84572685D01*
X90713422Y-84573198D01*
X90793713Y-84573198D01*
X90793713Y-84513308D01*
X90793713Y-84453418D01*
X90813677Y-84453418D01*
X90833640Y-84453418D01*
X90833640Y-84513004D01*
X90833640Y-84572590D01*
X90875678Y-84574558D01*
X90917715Y-84576525D01*
X90912087Y-84598152D01*
X90908389Y-84610001D01*
X90902564Y-84616741D01*
X90891054Y-84619346D01*
X90870049Y-84619779D01*
X90833640Y-84619779D01*
X90833640Y-84655270D01*
X90833305Y-84669090D01*
X90831696Y-84686532D01*
X90829204Y-84695196D01*
X90823215Y-84697912D01*
X90809240Y-84699633D01*
X90800851Y-84698716D01*
X90796079Y-84693831D01*
X90794103Y-84681864D01*
X90793713Y-84659706D01*
X90793713Y-84619779D01*
X90706875Y-84619779D01*
X90687456Y-84619678D01*
X90649519Y-84618445D01*
X90621561Y-84615398D01*
X90601269Y-84610020D01*
X90586328Y-84601794D01*
X90574424Y-84590204D01*
X90573273Y-84588700D01*
X90565139Y-84570293D01*
X90559458Y-84543861D01*
X90556938Y-84514009D01*
X90558287Y-84485344D01*
X90560006Y-84473485D01*
X90563650Y-84460030D01*
X90570082Y-84454495D01*
X90581858Y-84453418D01*
X90601193Y-84453418D01*
X90596791Y-84486599D01*
G37*
G36*
X92225484Y-84582829D02*
G01*
X92222233Y-84603326D01*
X92208532Y-84633369D01*
X92186546Y-84655657D01*
X92158568Y-84668809D01*
X92126889Y-84671444D01*
X92093800Y-84662181D01*
X92090994Y-84660857D01*
X92076591Y-84655198D01*
X92067304Y-84656063D01*
X92057327Y-84663693D01*
X92055623Y-84665126D01*
X92037591Y-84673520D01*
X92015730Y-84676191D01*
X91995304Y-84673104D01*
X91981577Y-84664221D01*
X91980224Y-84662404D01*
X91974053Y-84656798D01*
X91966798Y-84658944D01*
X91954298Y-84669674D01*
X91942853Y-84678838D01*
X91927327Y-84684674D01*
X91905582Y-84684971D01*
X91886217Y-84682395D01*
X91872562Y-84675428D01*
X91860745Y-84661034D01*
X91851013Y-84640880D01*
X91842756Y-84608427D01*
X91839136Y-84571726D01*
X91840165Y-84550641D01*
X91878040Y-84550641D01*
X91878055Y-84579388D01*
X91881516Y-84605530D01*
X91888281Y-84623906D01*
X91889473Y-84625632D01*
X91905093Y-84637618D01*
X91924095Y-84637837D01*
X91943677Y-84626174D01*
X91947549Y-84622228D01*
X91954203Y-84611196D01*
X91957409Y-84595178D01*
X91958240Y-84570045D01*
X91958122Y-84560356D01*
X91954824Y-84524696D01*
X91947087Y-84500811D01*
X91935035Y-84489129D01*
X91917138Y-84487360D01*
X91898276Y-84495722D01*
X91885192Y-84512944D01*
X91881616Y-84524452D01*
X91878040Y-84550641D01*
X91840165Y-84550641D01*
X91840903Y-84535525D01*
X91845540Y-84512184D01*
X91859031Y-84478106D01*
X91878285Y-84453080D01*
X91901968Y-84438168D01*
X91928743Y-84434433D01*
X91957275Y-84442937D01*
X91964422Y-84447234D01*
X91977679Y-84460719D01*
X91986910Y-84480873D01*
X91992912Y-84509876D01*
X91996487Y-84549908D01*
X91996857Y-84556217D01*
X91997992Y-84570045D01*
X91999612Y-84589793D01*
X92003547Y-84612248D01*
X92009440Y-84625477D01*
X92018073Y-84631371D01*
X92030223Y-84631823D01*
X92037272Y-84630815D01*
X92043406Y-84627806D01*
X92046321Y-84620255D01*
X92046906Y-84605243D01*
X92046050Y-84579853D01*
X92045741Y-84570729D01*
X92045811Y-84566135D01*
X92078232Y-84566135D01*
X92080525Y-84585404D01*
X92091914Y-84606018D01*
X92113932Y-84619518D01*
X92130300Y-84624749D01*
X92145604Y-84625098D01*
X92161201Y-84618396D01*
X92170126Y-84612538D01*
X92185866Y-84593608D01*
X92190934Y-84567770D01*
X92188776Y-84545736D01*
X92178498Y-84526415D01*
X92158257Y-84513467D01*
X92146254Y-84509767D01*
X92120553Y-84510117D01*
X92098760Y-84520871D01*
X92083708Y-84540166D01*
X92078232Y-84566135D01*
X92045811Y-84566135D01*
X92046160Y-84543421D01*
X92049551Y-84523694D01*
X92056546Y-84507168D01*
X92058285Y-84504153D01*
X92079905Y-84480179D01*
X92108321Y-84465762D01*
X92140359Y-84461925D01*
X92172846Y-84469689D01*
X92178252Y-84471428D01*
X92183269Y-84468020D01*
X92184491Y-84454130D01*
X92185197Y-84442509D01*
X92190482Y-84435017D01*
X92204455Y-84433455D01*
X92224418Y-84433455D01*
X92225753Y-84495008D01*
X92225960Y-84506125D01*
X92226230Y-84536913D01*
X92226066Y-84564098D01*
X92225952Y-84567770D01*
X92225484Y-84582829D01*
G37*
G36*
X91785225Y-82696646D02*
G01*
X91785225Y-83049331D01*
X91582264Y-83049331D01*
X91379304Y-83049331D01*
X91379304Y-83009405D01*
X91379304Y-82969478D01*
X91532356Y-82969478D01*
X91685408Y-82969478D01*
X91685408Y-82656719D01*
X91685408Y-82343961D01*
X91735317Y-82343961D01*
X91785225Y-82343961D01*
X91785225Y-82696646D01*
G37*
G36*
X91192980Y-82696646D02*
G01*
X91192980Y-83049331D01*
X90990019Y-83049331D01*
X90787059Y-83049331D01*
X90787059Y-83009405D01*
X90787059Y-82969478D01*
X90940111Y-82969478D01*
X91093163Y-82969478D01*
X91093163Y-82846371D01*
X91093163Y-82723264D01*
X90946765Y-82723264D01*
X90800368Y-82723264D01*
X90800368Y-82683337D01*
X90800368Y-82643410D01*
X90946765Y-82643410D01*
X91093163Y-82643410D01*
X91093163Y-82533612D01*
X91093163Y-82423814D01*
X90940111Y-82423814D01*
X90787059Y-82423814D01*
X90787059Y-82383887D01*
X90787059Y-82343961D01*
X90990019Y-82343961D01*
X91192980Y-82343961D01*
X91192980Y-82696646D01*
G37*
G36*
X90627352Y-83049331D02*
G01*
X90520531Y-83049331D01*
X90503412Y-83049241D01*
X90433684Y-83046483D01*
X90374638Y-83039497D01*
X90324533Y-83027779D01*
X90281630Y-83010822D01*
X90244185Y-82988119D01*
X90210459Y-82959165D01*
X90207755Y-82956447D01*
X90173996Y-82915884D01*
X90148881Y-82870761D01*
X90131799Y-82819274D01*
X90122139Y-82759619D01*
X90120511Y-82719838D01*
X90218782Y-82719838D01*
X90226097Y-82780326D01*
X90241129Y-82834462D01*
X90263439Y-82879714D01*
X90274917Y-82894415D01*
X90301663Y-82918733D01*
X90333631Y-82939695D01*
X90365896Y-82953743D01*
X90375394Y-82956165D01*
X90401212Y-82960764D01*
X90433012Y-82964757D01*
X90465982Y-82967484D01*
X90534190Y-82971483D01*
X90534190Y-82696845D01*
X90534190Y-82422207D01*
X90452673Y-82425157D01*
X90441106Y-82425638D01*
X90392968Y-82429583D01*
X90354834Y-82436926D01*
X90324136Y-82448581D01*
X90298306Y-82465464D01*
X90274775Y-82488487D01*
X90272579Y-82491021D01*
X90253292Y-82518160D01*
X90239037Y-82549602D01*
X90228753Y-82588308D01*
X90221377Y-82637234D01*
X90219625Y-82655532D01*
X90218782Y-82719838D01*
X90120511Y-82719838D01*
X90119289Y-82689991D01*
X90119586Y-82668845D01*
X90123575Y-82605862D01*
X90132650Y-82552808D01*
X90147429Y-82507627D01*
X90168529Y-82468264D01*
X90196567Y-82432664D01*
X90197106Y-82432080D01*
X90224906Y-82405647D01*
X90255162Y-82384677D01*
X90289647Y-82368661D01*
X90330131Y-82357091D01*
X90378389Y-82349457D01*
X90436191Y-82345250D01*
X90505309Y-82343961D01*
X90627352Y-82343961D01*
X90627352Y-82696646D01*
X90627352Y-82696845D01*
X90627352Y-83049331D01*
G37*
%TD*%
M02*
